SplineFontDB: 3.2
FontName: AbugidaR
FullName: AbugidaR
FamilyName: AbugidaR
Weight: Regular
Copyright: Copyright (c) 2025, 
UComments: "2025-7-12: Created with FontForge (http://fontforge.org)"
Version: 001.000
ItalicAngle: 0
UnderlinePosition: -100
UnderlineWidth: 50
Ascent: 1000
Descent: 300
InvalidEm: 0
LayerCount: 2
Layer: 0 0 "Back" 1
Layer: 1 0 "Fore" 0
XUID: [1021 583 -294313556 16685745]
FSType: 0
OS2Version: 0
OS2_WeightWidthSlopeOnly: 0
OS2_UseTypoMetrics: 1
CreationTime: 1752363677
ModificationTime: 1754462606
PfmFamily: 17
TTFWeight: 400
TTFWidth: 5
LineGap: 90
VLineGap: 0
OS2TypoAscent: 0
OS2TypoAOffset: 1
OS2TypoDescent: 0
OS2TypoDOffset: 1
OS2TypoLinegap: 90
OS2WinAscent: 0
OS2WinAOffset: 1
OS2WinDescent: 0
OS2WinDOffset: 1
HheadAscent: 0
HheadAOffset: 1
HheadDescent: 0
HheadDOffset: 1
OS2Vendor: 'PfEd'
Lookup: 1 0 0 "'liga' Standard Ligatures in Latin lookup 0" { "'liga' Standard Ligatures in Latin lookup 0 subtable"  } ['liga' ('latn' <'dflt' > 'DFLT' <'dflt' > ) ]
Lookup: 4 0 1 "'liga' Standard Ligatures in Latin lookup 1" { "'liga' Standard Ligatures in Latin lookup 1 subtable"  } ['liga' ('latn' <'dflt' > 'DFLT' <'dflt' > ) ]

StartChar: comma
Encoding: 1 44 0
Width: 600
VWidth: 1000
Flags: HW
LayerCount: 2
Fore
SplineSet
275 0 m 25
 275 1000 l 25
 375 1000 l 17
 375 200 l 1
 425 300 l 1
 525 300 l 1
 375 0 l 9
 275 0 l 25
75 0 m 25
 75 1000 l 25
 175 1000 l 25
 175 0 l 25
 75 0 l 25
EndSplineSet
Ligature2: "'liga' Standard Ligatures in Latin lookup 176 subtable" space comma
Ligature2: "'liga' Standard Ligatures in Latin lookup 176 subtable" comma space
Ligature2: "'liga' Standard Ligatures in Latin lookup 176 subtable" comma emphasis
Ligature2: "'liga' Standard Ligatures in Latin lookup 176 subtable" comma special
Ligature2: "'liga' Standard Ligatures in Latin lookup 176 subtable" comma start
Ligature2: "'liga' Standard Ligatures in Latin lookup 176 subtable" comma ellipsis
Ligature2: "'liga' Standard Ligatures in Latin lookup 176 subtable" comma question
Ligature2: "'liga' Standard Ligatures in Latin lookup 176 subtable" comma hyphen
Ligature2: "'liga' Standard Ligatures in Latin lookup 176 subtable" comma space
Ligature2: "'liga' Standard Ligatures in Latin lookup 176 subtable" comma comma
Ligature2: "'liga' Standard Ligatures in Latin lookup 176 subtable" comma period
Ligature2: "'liga' Standard Ligatures in Latin lookup 93 subtable" start comma
EndChar

StartChar: hyphen
Encoding: 2 45 1
Width: 450
VWidth: 1000
Flags: HW
LayerCount: 2
Fore
SplineSet
275 0 m 17
 275 450 l 1
 175 450 l 1
 175 0 l 1
 75 0 l 1
 75 1000 l 1
 175 1000 l 1
 175 550 l 1
 275 550 l 1
 275 1000 l 9
 375 1000 l 25
 375 0 l 25
 275 0 l 17
EndSplineSet
Ligature2: "'liga' Standard Ligatures in Latin lookup 176 subtable" space hyphen
Ligature2: "'liga' Standard Ligatures in Latin lookup 176 subtable" hyphen space
Ligature2: "'liga' Standard Ligatures in Latin lookup 176 subtable" hyphen emphasis
Ligature2: "'liga' Standard Ligatures in Latin lookup 176 subtable" hyphen special
Ligature2: "'liga' Standard Ligatures in Latin lookup 176 subtable" hyphen start
Ligature2: "'liga' Standard Ligatures in Latin lookup 176 subtable" hyphen ellipsis
Ligature2: "'liga' Standard Ligatures in Latin lookup 176 subtable" hyphen question
Ligature2: "'liga' Standard Ligatures in Latin lookup 176 subtable" hyphen hyphen
Ligature2: "'liga' Standard Ligatures in Latin lookup 176 subtable" hyphen space
Ligature2: "'liga' Standard Ligatures in Latin lookup 176 subtable" hyphen comma
Ligature2: "'liga' Standard Ligatures in Latin lookup 176 subtable" hyphen period
Ligature2: "'liga' Standard Ligatures in Latin lookup 93 subtable" start hyphen
EndChar

StartChar: period
Encoding: 3 46 2
Width: 450
VWidth: 1000
Flags: HW
LayerCount: 2
Fore
SplineSet
275 0 m 25
 275 1000 l 25
 375 1000 l 25
 375 0 l 25
 275 0 l 25
75 0 m 25
 75 1000 l 25
 175 1000 l 25
 175 0 l 25
 75 0 l 25
EndSplineSet
Ligature2: "'liga' Standard Ligatures in Latin lookup 176 subtable" space period
Ligature2: "'liga' Standard Ligatures in Latin lookup 176 subtable" period space
Ligature2: "'liga' Standard Ligatures in Latin lookup 176 subtable" period emphasis
Ligature2: "'liga' Standard Ligatures in Latin lookup 176 subtable" period special
Ligature2: "'liga' Standard Ligatures in Latin lookup 176 subtable" period start
Ligature2: "'liga' Standard Ligatures in Latin lookup 176 subtable" period ellipsis
Ligature2: "'liga' Standard Ligatures in Latin lookup 176 subtable" period question
Ligature2: "'liga' Standard Ligatures in Latin lookup 176 subtable" period hyphen
Ligature2: "'liga' Standard Ligatures in Latin lookup 176 subtable" period space
Ligature2: "'liga' Standard Ligatures in Latin lookup 176 subtable" period comma
Ligature2: "'liga' Standard Ligatures in Latin lookup 176 subtable" period period
Ligature2: "'liga' Standard Ligatures in Latin lookup 93 subtable" start period
EndChar

StartChar: special
Encoding: 4 59 3
Width: 750
VWidth: 1000
Flags: HW
LayerCount: 2
Fore
SplineSet
175 900 m 25
 175 100 l 25
 575 100 l 25
 575 900 l 29
 175 900 l 25
75 0 m 25
 75 1000 l 25
 675 1000 l 25
 675 0 l 25
 75 0 l 25
EndSplineSet
Ligature2: "'liga' Standard Ligatures in Latin lookup 176 subtable" space special
Ligature2: "'liga' Standard Ligatures in Latin lookup 176 subtable" special space
Ligature2: "'liga' Standard Ligatures in Latin lookup 176 subtable" special emphasis
Ligature2: "'liga' Standard Ligatures in Latin lookup 176 subtable" special special
Ligature2: "'liga' Standard Ligatures in Latin lookup 176 subtable" special start
Ligature2: "'liga' Standard Ligatures in Latin lookup 176 subtable" special ellipsis
Ligature2: "'liga' Standard Ligatures in Latin lookup 176 subtable" special question
Ligature2: "'liga' Standard Ligatures in Latin lookup 176 subtable" special hyphen
Ligature2: "'liga' Standard Ligatures in Latin lookup 176 subtable" special space
Ligature2: "'liga' Standard Ligatures in Latin lookup 176 subtable" special comma
Ligature2: "'liga' Standard Ligatures in Latin lookup 176 subtable" special period
Ligature2: "'liga' Standard Ligatures in Latin lookup 93 subtable" start special
EndChar

StartChar: question
Encoding: 5 63 4
Width: 600
VWidth: 1000
Flags: HW
LayerCount: 2
Fore
SplineSet
275 0 m 25
 275 1000 l 25
 375 1000 l 1
 525 700 l 1
 425 700 l 1
 375 800 l 1
 375 0 l 1
 275 0 l 25
75 0 m 25
 75 1000 l 25
 175 1000 l 25
 175 0 l 25
 75 0 l 25
EndSplineSet
Ligature2: "'liga' Standard Ligatures in Latin lookup 176 subtable" space question
Ligature2: "'liga' Standard Ligatures in Latin lookup 176 subtable" question space
Ligature2: "'liga' Standard Ligatures in Latin lookup 176 subtable" question emphasis
Ligature2: "'liga' Standard Ligatures in Latin lookup 176 subtable" question special
Ligature2: "'liga' Standard Ligatures in Latin lookup 176 subtable" question start
Ligature2: "'liga' Standard Ligatures in Latin lookup 176 subtable" question ellipsis
Ligature2: "'liga' Standard Ligatures in Latin lookup 176 subtable" question question
Ligature2: "'liga' Standard Ligatures in Latin lookup 176 subtable" question hyphen
Ligature2: "'liga' Standard Ligatures in Latin lookup 176 subtable" question space
Ligature2: "'liga' Standard Ligatures in Latin lookup 176 subtable" question comma
Ligature2: "'liga' Standard Ligatures in Latin lookup 176 subtable" question period
Ligature2: "'liga' Standard Ligatures in Latin lookup 93 subtable" start question
EndChar

StartChar: A
Encoding: 7 65 5
Width: 750
VWidth: 1000
Flags: HW
LayerCount: 2
Fore
SplineSet
75 800 m 25
 75 900 l 25
 675 900 l 29
 675 800 l 25
 75 800 l 25
EndSplineSet
MultipleSubs2: "Multiple Substitution lookup 167 subtable" X A
MultipleSubs2: "Multiple Substitution lookup 158 subtable" X A
MultipleSubs2: "Multiple Substitution lookup 149 subtable" X A
MultipleSubs2: "Multiple Substitution lookup 140 subtable" X A
MultipleSubs2: "Multiple Substitution lookup 131 subtable" X A
MultipleSubs2: "Multiple Substitution lookup 122 subtable" X A
MultipleSubs2: "Multiple Substitution lookup 113 subtable" X A
MultipleSubs2: "Multiple Substitution lookup 104 subtable" X A
MultipleSubs2: "Multiple Substitution lookup 95 subtable" X A
MultipleSubs2: "Multiple Substitution lookup 83 subtable" X A
MultipleSubs2: "Multiple Substitution lookup 73 subtable" X A
MultipleSubs2: "Multiple Substitution lookup 63 subtable" X A
MultipleSubs2: "Multiple Substitution lookup 53 subtable" X A
MultipleSubs2: "Multiple Substitution lookup 43 subtable" X A
MultipleSubs2: "Multiple Substitution lookup 33 subtable" X A
MultipleSubs2: "Multiple Substitution lookup 23 subtable" X A
MultipleSubs2: "Multiple Substitution lookup 13 subtable" X A
MultipleSubs2: "Multiple Substitution lookup 3 subtable" X A
EndChar

StartChar: B
Encoding: 8 66 6
Width: 750
VWidth: 1000
Flags: HW
LayerCount: 2
Fore
SplineSet
175 500 m 25
 575 500 l 25
 575 600 l 25
 175 600 l 25
 175 500 l 25
75 0 m 17
 75 100 l 1
 575 100 l 1
 575 400 l 1
 75 400 l 5
 75 700 l 9
 675 700 l 25
 675 0 l 25
 75 0 l 17
325 600 m 25
 425 600 l 25
 425 500 l 25
 325 500 l 29
 325 600 l 25
EndSplineSet
Ligature2: "'liga' Standard Ligatures in Latin lookup 93 subtable" start B
EndChar

StartChar: C
Encoding: 9 67 7
Width: 750
VWidth: 1000
Flags: HW
LayerCount: 2
Fore
SplineSet
675 700 m 1
 675 300 l 1
 175 300 l 1
 175 100 l 1
 675 100 l 1
 675 0 l 1
 75 0 l 1
 75 400 l 1
 575 400 l 1
 575 700 l 1
 675 700 l 1
EndSplineSet
Ligature2: "'liga' Standard Ligatures in Latin lookup 93 subtable" start C
EndChar

StartChar: D
Encoding: 10 68 8
Width: 750
VWidth: 1000
Flags: HW
LayerCount: 2
Fore
SplineSet
225 100 m 25
 525 100 l 25
 375 550 l 29
 225 100 l 25
75 0 m 1
 325 700 l 1
 425 700 l 1
 675 0 l 1
 75 0 l 1
275 250 m 29
 275 350 l 25
 475 350 l 25
 475 250 l 25
 275 250 l 29
EndSplineSet
Ligature2: "'liga' Standard Ligatures in Latin lookup 93 subtable" start D
EndChar

StartChar: E
Encoding: 11 69 9
Width: 750
VWidth: 1000
Flags: HW
LayerCount: 2
Fore
SplineSet
75 800 m 25
 75 900 l 25
 675 1000 l 25
 675 900 l 29
 75 800 l 25
EndSplineSet
MultipleSubs2: "Multiple Substitution lookup 168 subtable" X E
MultipleSubs2: "Multiple Substitution lookup 159 subtable" X E
MultipleSubs2: "Multiple Substitution lookup 150 subtable" X E
MultipleSubs2: "Multiple Substitution lookup 141 subtable" X E
MultipleSubs2: "Multiple Substitution lookup 132 subtable" X E
MultipleSubs2: "Multiple Substitution lookup 123 subtable" X E
MultipleSubs2: "Multiple Substitution lookup 114 subtable" X E
MultipleSubs2: "Multiple Substitution lookup 105 subtable" X E
MultipleSubs2: "Multiple Substitution lookup 96 subtable" X E
MultipleSubs2: "Multiple Substitution lookup 84 subtable" X E
MultipleSubs2: "Multiple Substitution lookup 74 subtable" X E
MultipleSubs2: "Multiple Substitution lookup 64 subtable" X E
MultipleSubs2: "Multiple Substitution lookup 54 subtable" X E
MultipleSubs2: "Multiple Substitution lookup 44 subtable" X E
MultipleSubs2: "Multiple Substitution lookup 34 subtable" X E
MultipleSubs2: "Multiple Substitution lookup 24 subtable" X E
MultipleSubs2: "Multiple Substitution lookup 14 subtable" X E
MultipleSubs2: "Multiple Substitution lookup 4 subtable" X E
EndChar

StartChar: F
Encoding: 12 70 10
Width: 750
VWidth: 1000
Flags: HW
LayerCount: 2
Fore
SplineSet
175 600 m 25
 175 500 l 25
 575 500 l 25
 575 600 l 25
 175 600 l 25
75 0 m 25
 75 700 l 25
 675 700 l 25
 675 400 l 25
 175 400 l 25
 175 0 l 25
 75 0 l 25
EndSplineSet
Ligature2: "'liga' Standard Ligatures in Latin lookup 93 subtable" start F
EndChar

StartChar: G
Encoding: 13 71 11
Width: 750
VWidth: 1000
Flags: HW
LayerCount: 2
Fore
SplineSet
75 0 m 1
 75 700 l 29
 675 700 l 1
 675 600 l 1
 175 600 l 1
 175 0 l 1
 75 0 l 1
75 300 m 25
 75 400 l 29
 475 400 l 25
 475 300 l 25
 75 300 l 25
EndSplineSet
Ligature2: "'liga' Standard Ligatures in Latin lookup 93 subtable" start G
EndChar

StartChar: H
Encoding: 14 72 12
Width: 750
VWidth: 1000
Flags: HW
LayerCount: 2
Fore
SplineSet
75 500 m 9
 75 700 l 1
 675 700 l 25
 675 0 l 1
 575 0 l 1
 575 600 l 1
 175 600 l 1
 175 500 l 1
 75 500 l 9
EndSplineSet
Ligature2: "'liga' Standard Ligatures in Latin lookup 93 subtable" start H
EndChar

StartChar: I
Encoding: 15 73 13
Width: 250
VWidth: 1000
Flags: HW
LayerCount: 2
Fore
SplineSet
75 800 m 29
 75 1000 l 29
 175 1000 l 29
 175 800 l 29
 75 800 l 29
EndSplineSet
MultipleSubs2: "Multiple Substitution lookup 170 subtable" X I
MultipleSubs2: "Multiple Substitution lookup 161 subtable" X I
MultipleSubs2: "Multiple Substitution lookup 152 subtable" X I
MultipleSubs2: "Multiple Substitution lookup 143 subtable" X I
MultipleSubs2: "Multiple Substitution lookup 134 subtable" X I
MultipleSubs2: "Multiple Substitution lookup 125 subtable" X I
MultipleSubs2: "Multiple Substitution lookup 116 subtable" X I
MultipleSubs2: "Multiple Substitution lookup 107 subtable" X I
MultipleSubs2: "Multiple Substitution lookup 98 subtable" X I
MultipleSubs2: "Multiple Substitution lookup 86 subtable" X I
MultipleSubs2: "Multiple Substitution lookup 76 subtable" X I
MultipleSubs2: "Multiple Substitution lookup 66 subtable" X I
MultipleSubs2: "Multiple Substitution lookup 56 subtable" X I
MultipleSubs2: "Multiple Substitution lookup 46 subtable" X I
MultipleSubs2: "Multiple Substitution lookup 36 subtable" X I
MultipleSubs2: "Multiple Substitution lookup 26 subtable" X I
MultipleSubs2: "Multiple Substitution lookup 16 subtable" X I
MultipleSubs2: "Multiple Substitution lookup 6 subtable" X I
EndChar

StartChar: J
Encoding: 16 74 14
Width: 750
VWidth: 1000
Flags: HW
LayerCount: 2
Fore
SplineSet
675 700 m 1
 675 300 l 1
 175 300 l 1
 175 100 l 1
 675 100 l 1
 675 0 l 1
 75 0 l 1
 75 400 l 1
 575 400 l 1
 575 700 l 1
 675 700 l 1
175 500 m 1
 175 600 l 1
 675 600 l 5
 675 500 l 1
 175 500 l 1
EndSplineSet
Ligature2: "'liga' Standard Ligatures in Latin lookup 93 subtable" start J
EndChar

StartChar: K
Encoding: 17 75 15
Width: 750
VWidth: 1000
Flags: HW
LayerCount: 2
Fore
SplineSet
75 0 m 1
 75 700 l 29
 675 700 l 1
 675 600 l 1
 175 600 l 1
 175 0 l 1
 75 0 l 1
EndSplineSet
Ligature2: "'liga' Standard Ligatures in Latin lookup 93 subtable" start K
EndChar

StartChar: L
Encoding: 18 76 16
Width: 750
VWidth: 1000
Flags: HW
LayerCount: 2
Fore
SplineSet
75 0 m 13
 75 700 l 17
 175 700 l 1
 575 500 l 1
 575 700 l 1
 675 700 l 1
 675 400 l 1
 575 400 l 1
 175 600 l 1
 175 0 l 1
 75 0 l 13
EndSplineSet
Ligature2: "'liga' Standard Ligatures in Latin lookup 93 subtable" start L
EndChar

StartChar: M
Encoding: 19 77 17
Width: 750
VWidth: 1000
Flags: HW
LayerCount: 2
Fore
SplineSet
75 0 m 1
 325 700 l 1
 425 700 l 1
 675 0 l 1
 575 0 l 1
 375 600 l 1
 175 0 l 5
 75 0 l 1
EndSplineSet
Ligature2: "'liga' Standard Ligatures in Latin lookup 93 subtable" start M
EndChar

StartChar: N
Encoding: 20 78 18
Width: 750
VWidth: 1000
Flags: HW
LayerCount: 2
Fore
SplineSet
325 0 m 5
 75 700 l 1
 175 700 l 1
 375 100 l 1
 575 700 l 1
 675 700 l 1
 425 0 l 1
 325 0 l 5
EndSplineSet
Ligature2: "'liga' Standard Ligatures in Latin lookup 93 subtable" start N
EndChar

StartChar: O
Encoding: 21 79 19
Width: 750
VWidth: 1000
Flags: HW
LayerCount: 2
Fore
SplineSet
175 950 m 29
 175 850 l 29
 575 850 l 29
 575 950 l 29
 175 950 l 29
75 800 m 29
 75 1000 l 29
 675 1000 l 29
 675 800 l 29
 75 800 l 29
EndSplineSet
MultipleSubs2: "Multiple Substitution lookup 172 subtable" X O
MultipleSubs2: "Multiple Substitution lookup 163 subtable" X O
MultipleSubs2: "Multiple Substitution lookup 154 subtable" X O
MultipleSubs2: "Multiple Substitution lookup 145 subtable" X O
MultipleSubs2: "Multiple Substitution lookup 136 subtable" X O
MultipleSubs2: "Multiple Substitution lookup 127 subtable" X O
MultipleSubs2: "Multiple Substitution lookup 118 subtable" X O
MultipleSubs2: "Multiple Substitution lookup 109 subtable" X O
MultipleSubs2: "Multiple Substitution lookup 100 subtable" X O
MultipleSubs2: "Multiple Substitution lookup 88 subtable" X O
MultipleSubs2: "Multiple Substitution lookup 78 subtable" X O
MultipleSubs2: "Multiple Substitution lookup 68 subtable" X O
MultipleSubs2: "Multiple Substitution lookup 58 subtable" X O
MultipleSubs2: "Multiple Substitution lookup 48 subtable" X O
MultipleSubs2: "Multiple Substitution lookup 38 subtable" X O
MultipleSubs2: "Multiple Substitution lookup 28 subtable" X O
MultipleSubs2: "Multiple Substitution lookup 18 subtable" X O
MultipleSubs2: "Multiple Substitution lookup 8 subtable" X O
EndChar

StartChar: P
Encoding: 22 80 20
Width: 750
VWidth: 1000
Flags: HW
LayerCount: 2
Fore
SplineSet
175 500 m 25
 575 500 l 25
 575 600 l 25
 175 600 l 25
 175 500 l 25
75 0 m 17
 75 100 l 1
 575 100 l 1
 575 400 l 1
 75 400 l 5
 75 700 l 9
 675 700 l 25
 675 0 l 25
 75 0 l 17
EndSplineSet
Ligature2: "'liga' Standard Ligatures in Latin lookup 93 subtable" start P
EndChar

StartChar: R
Encoding: 23 82 21
Width: 750
VWidth: 1000
Flags: HW
LayerCount: 2
Fore
SplineSet
75 0 m 1
 75 100 l 1
 575 300 l 1
 75 500 l 1
 75 700 l 9
 675 700 l 17
 675 600 l 1
 175 600 l 1
 675 400 l 1
 675 200 l 1
 75 0 l 1
EndSplineSet
Ligature2: "'liga' Standard Ligatures in Latin lookup 93 subtable" start R
EndChar

StartChar: S
Encoding: 24 83 22
Width: 750
VWidth: 1000
Flags: HW
LayerCount: 2
Fore
SplineSet
75 0 m 1
 525 300 l 1
 75 300 l 1
 75 400 l 1
 575 700 l 9
 675 700 l 1
 225 400 l 1
 675 400 l 1
 675 300 l 1
 175 0 l 9
 75 0 l 1
EndSplineSet
Ligature2: "'liga' Standard Ligatures in Latin lookup 93 subtable" start S
EndChar

StartChar: T
Encoding: 25 84 23
Width: 750
VWidth: 1000
Flags: HW
LayerCount: 2
Fore
SplineSet
225 100 m 25
 525 100 l 25
 375 550 l 29
 225 100 l 25
75 0 m 1
 325 700 l 1
 425 700 l 1
 675 0 l 1
 75 0 l 1
EndSplineSet
Ligature2: "'liga' Standard Ligatures in Latin lookup 93 subtable" start T
EndChar

StartChar: U
Encoding: 26 85 24
Width: 750
VWidth: 1000
Flags: HW
LayerCount: 2
Fore
SplineSet
75 900 m 13
 75 1000 l 17
 375 900 l 1
 675 1000 l 9
 675 900 l 17
 375 800 l 1
 75 900 l 13
EndSplineSet
MultipleSubs2: "Multiple Substitution lookup 174 subtable" X U
MultipleSubs2: "Multiple Substitution lookup 165 subtable" X U
MultipleSubs2: "Multiple Substitution lookup 156 subtable" X U
MultipleSubs2: "Multiple Substitution lookup 147 subtable" X U
MultipleSubs2: "Multiple Substitution lookup 138 subtable" X U
MultipleSubs2: "Multiple Substitution lookup 129 subtable" X U
MultipleSubs2: "Multiple Substitution lookup 120 subtable" X U
MultipleSubs2: "Multiple Substitution lookup 111 subtable" X U
MultipleSubs2: "Multiple Substitution lookup 102 subtable" X U
MultipleSubs2: "Multiple Substitution lookup 90 subtable" X U
MultipleSubs2: "Multiple Substitution lookup 80 subtable" X U
MultipleSubs2: "Multiple Substitution lookup 70 subtable" X U
MultipleSubs2: "Multiple Substitution lookup 60 subtable" X U
MultipleSubs2: "Multiple Substitution lookup 50 subtable" X U
MultipleSubs2: "Multiple Substitution lookup 40 subtable" X U
MultipleSubs2: "Multiple Substitution lookup 30 subtable" X U
MultipleSubs2: "Multiple Substitution lookup 20 subtable" X U
MultipleSubs2: "Multiple Substitution lookup 10 subtable" X U
EndChar

StartChar: V
Encoding: 27 86 25
Width: 750
VWidth: 1000
Flags: HW
LayerCount: 2
Fore
SplineSet
175 600 m 25
 175 500 l 25
 575 500 l 25
 575 600 l 25
 175 600 l 25
75 0 m 25
 75 700 l 25
 675 700 l 25
 675 400 l 25
 175 400 l 25
 175 0 l 25
 75 0 l 25
325 600 m 29
 425 600 l 29
 425 500 l 29
 325 500 l 29
 325 600 l 29
EndSplineSet
Ligature2: "'liga' Standard Ligatures in Latin lookup 93 subtable" start V
EndChar

StartChar: W
Encoding: 28 87 26
Width: 750
VWidth: 1000
Flags: HW
LayerCount: 2
Fore
SplineSet
575 0 m 17
 175 600 l 1
 175 100 l 1
 325 100 l 1
 225 250 l 1
 225 400 l 1
 475 0 l 1
 75 0 l 1
 75 700 l 5
 225 700 l 25
 675 0 l 1
 575 0 l 17
EndSplineSet
Ligature2: "'liga' Standard Ligatures in Latin lookup 93 subtable" start W
EndChar

StartChar: X
Encoding: 29 88 27
Width: 750
VWidth: 1000
Flags: HW
LayerCount: 2
Fore
SplineSet
75 0 m 1
 325 350 l 1
 75 700 l 1
 175 700 l 1
 375 400 l 1
 575 700 l 1
 675 700 l 1
 425 350 l 1
 675 0 l 1
 575 0 l 1
 375 300 l 1
 175 0 l 1
 75 0 l 1
EndSplineSet
Ligature2: "'liga' Standard Ligatures in Latin lookup 93 subtable" start X
EndChar

StartChar: Y
Encoding: 30 89 28
Width: 750
VWidth: 1000
Flags: HW
LayerCount: 2
Fore
SplineSet
75 400 m 25
 75 500 l 25
 675 500 l 25
 675 400 l 25
 75 400 l 25
75 200 m 1
 75 300 l 1
 675 300 l 1
 675 200 l 5
 75 200 l 1
EndSplineSet
Ligature2: "'liga' Standard Ligatures in Latin lookup 93 subtable" start Y
EndChar

StartChar: Z
Encoding: 31 90 29
Width: 750
VWidth: 1000
Flags: HW
LayerCount: 2
Fore
SplineSet
75 0 m 1
 525 300 l 1
 75 300 l 1
 75 400 l 1
 575 700 l 9
 675 700 l 1
 225 400 l 1
 675 400 l 1
 675 300 l 1
 175 0 l 9
 75 0 l 1
75 500 m 29
 75 600 l 29
 675 600 l 29
 675 500 l 29
 75 500 l 29
EndSplineSet
Ligature2: "'liga' Standard Ligatures in Latin lookup 93 subtable" start Z
EndChar

StartChar: Eacute
Encoding: 32 201 30
Width: 750
VWidth: 1000
Flags: HW
LayerCount: 2
Fore
SplineSet
75 900 m 29
 75 1000 l 29
 675 900 l 29
 675 800 l 29
 75 900 l 29
EndSplineSet
MultipleSubs2: "Multiple Substitution lookup 169 subtable" X Eacute
MultipleSubs2: "Multiple Substitution lookup 160 subtable" X Eacute
MultipleSubs2: "Multiple Substitution lookup 151 subtable" X Eacute
MultipleSubs2: "Multiple Substitution lookup 142 subtable" X Eacute
MultipleSubs2: "Multiple Substitution lookup 133 subtable" X Eacute
MultipleSubs2: "Multiple Substitution lookup 124 subtable" X Eacute
MultipleSubs2: "Multiple Substitution lookup 115 subtable" X Eacute
MultipleSubs2: "Multiple Substitution lookup 106 subtable" X Eacute
MultipleSubs2: "Multiple Substitution lookup 97 subtable" X Eacute
MultipleSubs2: "Multiple Substitution lookup 85 subtable" X Eacute
MultipleSubs2: "Multiple Substitution lookup 75 subtable" X Eacute
MultipleSubs2: "Multiple Substitution lookup 65 subtable" X Eacute
MultipleSubs2: "Multiple Substitution lookup 55 subtable" X Eacute
MultipleSubs2: "Multiple Substitution lookup 45 subtable" X Eacute
MultipleSubs2: "Multiple Substitution lookup 35 subtable" X Eacute
MultipleSubs2: "Multiple Substitution lookup 25 subtable" X Eacute
MultipleSubs2: "Multiple Substitution lookup 15 subtable" X Eacute
MultipleSubs2: "Multiple Substitution lookup 5 subtable" X Eacute
Ligature2: "'liga' Standard Ligatures in Latin lookup 1 subtable" E special
EndChar

StartChar: Iacute
Encoding: 33 205 31
Width: 750
VWidth: 1000
Flags: HW
LayerCount: 2
Fore
SplineSet
75 800 m 1
 75 900 l 1
 375 1000 l 1
 675 900 l 1
 675 800 l 1
 375 900 l 1
 75 800 l 1
EndSplineSet
MultipleSubs2: "Multiple Substitution lookup 171 subtable" X Iacute
MultipleSubs2: "Multiple Substitution lookup 162 subtable" X Iacute
MultipleSubs2: "Multiple Substitution lookup 153 subtable" X Iacute
MultipleSubs2: "Multiple Substitution lookup 144 subtable" X Iacute
MultipleSubs2: "Multiple Substitution lookup 135 subtable" X Iacute
MultipleSubs2: "Multiple Substitution lookup 126 subtable" X Iacute
MultipleSubs2: "Multiple Substitution lookup 117 subtable" X Iacute
MultipleSubs2: "Multiple Substitution lookup 108 subtable" X Iacute
MultipleSubs2: "Multiple Substitution lookup 99 subtable" X Iacute
MultipleSubs2: "Multiple Substitution lookup 87 subtable" X Iacute
MultipleSubs2: "Multiple Substitution lookup 77 subtable" X Iacute
MultipleSubs2: "Multiple Substitution lookup 67 subtable" X Iacute
MultipleSubs2: "Multiple Substitution lookup 57 subtable" X Iacute
MultipleSubs2: "Multiple Substitution lookup 47 subtable" X Iacute
MultipleSubs2: "Multiple Substitution lookup 37 subtable" X Iacute
MultipleSubs2: "Multiple Substitution lookup 27 subtable" X Iacute
MultipleSubs2: "Multiple Substitution lookup 17 subtable" X Iacute
MultipleSubs2: "Multiple Substitution lookup 7 subtable" X Iacute
Ligature2: "'liga' Standard Ligatures in Latin lookup 1 subtable" I special
EndChar

StartChar: Edh
Encoding: 34 208 32
Width: 750
VWidth: 1000
Flags: HW
LayerCount: 2
Fore
SplineSet
175 0 m 29
 225 100 l 25
 575 100 l 25
 575 300 l 25
 675 300 l 25
 675 0 l 25
 175 0 l 29
75 0 m 1
 525 300 l 1
 75 300 l 1
 75 400 l 1
 575 700 l 9
 675 700 l 1
 225 400 l 1
 675 400 l 1
 675 300 l 1
 175 0 l 9
 75 0 l 1
75 500 m 25
 75 600 l 29
 675 600 l 25
 675 500 l 25
 75 500 l 25
EndSplineSet
Ligature2: "'liga' Standard Ligatures in Latin lookup 93 subtable" start Edh
Ligature2: "'liga' Standard Ligatures in Latin lookup 1 subtable" D special
EndChar

StartChar: Uacute
Encoding: 36 218 33
Width: 750
VWidth: 1000
Flags: HW
LayerCount: 2
Fore
SplineSet
75 800 m 9
 75 900 l 17
 275 1000 l 1
 475 900 l 1
 675 1000 l 9
 675 900 l 17
 475 800 l 1
 275 900 l 1
 75 800 l 9
EndSplineSet
MultipleSubs2: "Multiple Substitution lookup 175 subtable" X Uacute
MultipleSubs2: "Multiple Substitution lookup 166 subtable" X Uacute
MultipleSubs2: "Multiple Substitution lookup 157 subtable" X Uacute
MultipleSubs2: "Multiple Substitution lookup 148 subtable" X Uacute
MultipleSubs2: "Multiple Substitution lookup 139 subtable" X Uacute
MultipleSubs2: "Multiple Substitution lookup 130 subtable" X Uacute
MultipleSubs2: "Multiple Substitution lookup 121 subtable" X Uacute
MultipleSubs2: "Multiple Substitution lookup 112 subtable" X Uacute
MultipleSubs2: "Multiple Substitution lookup 103 subtable" X Uacute
MultipleSubs2: "Multiple Substitution lookup 91 subtable" X Uacute
MultipleSubs2: "Multiple Substitution lookup 81 subtable" X Uacute
MultipleSubs2: "Multiple Substitution lookup 71 subtable" X Uacute
MultipleSubs2: "Multiple Substitution lookup 61 subtable" X Uacute
MultipleSubs2: "Multiple Substitution lookup 51 subtable" X Uacute
MultipleSubs2: "Multiple Substitution lookup 41 subtable" X Uacute
MultipleSubs2: "Multiple Substitution lookup 31 subtable" X Uacute
MultipleSubs2: "Multiple Substitution lookup 21 subtable" X Uacute
MultipleSubs2: "Multiple Substitution lookup 11 subtable" X Uacute
Ligature2: "'liga' Standard Ligatures in Latin lookup 1 subtable" U special
EndChar

StartChar: Thorn
Encoding: 37 222 34
Width: 750
VWidth: 1000
Flags: HW
LayerCount: 2
Fore
SplineSet
175 0 m 29
 225 100 l 25
 575 100 l 25
 575 300 l 25
 675 300 l 25
 675 0 l 25
 175 0 l 29
75 0 m 1
 525 300 l 1
 75 300 l 1
 75 400 l 1
 575 700 l 9
 675 700 l 1
 225 400 l 1
 675 400 l 1
 675 300 l 1
 175 0 l 9
 75 0 l 1
EndSplineSet
Ligature2: "'liga' Standard Ligatures in Latin lookup 93 subtable" start Thorn
Ligature2: "'liga' Standard Ligatures in Latin lookup 1 subtable" T special
EndChar

StartChar: .notdef
Encoding: 38 -1 35
Width: 750
VWidth: 1000
Flags: HW
LayerCount: 2
Fore
SplineSet
175 950 m 25
 175 850 l 25
 575 850 l 25
 575 950 l 25
 175 950 l 25
175 600 m 25
 175 100 l 25
 575 100 l 25
 575 600 l 25
 175 600 l 25
75 800 m 25x98
 75 1000 l 25
 675 1000 l 25
 675 800 l 25
 75 800 l 25x98
75 0 m 25
 75 700 l 25
 675 700 l 25xd8
 675 0 l 25
 75 0 l 25
EndSplineSet
EndChar

StartChar: Oacute
Encoding: 35 211 36
Width: 750
VWidth: 1000
Flags: HW
LayerCount: 2
Fore
SplineSet
75 800 m 17
 75 850 l 1
 575 850 l 1
 575 950 l 1
 75 950 l 1
 75 1000 l 9
 675 1000 l 25
 675 800 l 25
 75 800 l 17
EndSplineSet
MultipleSubs2: "Multiple Substitution lookup 173 subtable" X Oacute
MultipleSubs2: "Multiple Substitution lookup 164 subtable" X Oacute
MultipleSubs2: "Multiple Substitution lookup 155 subtable" X Oacute
MultipleSubs2: "Multiple Substitution lookup 146 subtable" X Oacute
MultipleSubs2: "Multiple Substitution lookup 137 subtable" X Oacute
MultipleSubs2: "Multiple Substitution lookup 128 subtable" X Oacute
MultipleSubs2: "Multiple Substitution lookup 119 subtable" X Oacute
MultipleSubs2: "Multiple Substitution lookup 110 subtable" X Oacute
MultipleSubs2: "Multiple Substitution lookup 101 subtable" X Oacute
MultipleSubs2: "Multiple Substitution lookup 89 subtable" X Oacute
MultipleSubs2: "Multiple Substitution lookup 79 subtable" X Oacute
MultipleSubs2: "Multiple Substitution lookup 69 subtable" X Oacute
MultipleSubs2: "Multiple Substitution lookup 59 subtable" X Oacute
MultipleSubs2: "Multiple Substitution lookup 49 subtable" X Oacute
MultipleSubs2: "Multiple Substitution lookup 39 subtable" X Oacute
MultipleSubs2: "Multiple Substitution lookup 29 subtable" X Oacute
MultipleSubs2: "Multiple Substitution lookup 19 subtable" X Oacute
MultipleSubs2: "Multiple Substitution lookup 9 subtable" X Oacute
Ligature2: "'liga' Standard Ligatures in Latin lookup 1 subtable" O special
EndChar

StartChar: space
Encoding: 0 32 37
Width: 250
VWidth: 1000
Flags: HW
LayerCount: 2
Fore
SplineSet
75 0 m 29
 75 1000 l 25
 175 1000 l 25
 175 0 l 25
 75 0 l 29
EndSplineSet
Ligature2: "'liga' Standard Ligatures in Latin lookup 176 subtable" space space
Ligature2: "'liga' Standard Ligatures in Latin lookup 176 subtable" space space
Ligature2: "'liga' Standard Ligatures in Latin lookup 176 subtable" space emphasis
Ligature2: "'liga' Standard Ligatures in Latin lookup 176 subtable" space special
Ligature2: "'liga' Standard Ligatures in Latin lookup 176 subtable" space start
Ligature2: "'liga' Standard Ligatures in Latin lookup 176 subtable" space ellipsis
Ligature2: "'liga' Standard Ligatures in Latin lookup 176 subtable" space question
Ligature2: "'liga' Standard Ligatures in Latin lookup 176 subtable" space hyphen
Ligature2: "'liga' Standard Ligatures in Latin lookup 176 subtable" space space
Ligature2: "'liga' Standard Ligatures in Latin lookup 176 subtable" space comma
Ligature2: "'liga' Standard Ligatures in Latin lookup 176 subtable" space period
Ligature2: "'liga' Standard Ligatures in Latin lookup 93 subtable" start space
EndChar

StartChar: start
Encoding: 6 94 38
Width: 750
VWidth: 1000
Flags: HW
LayerCount: 2
Fore
SplineSet
175 900 m 25
 175 100 l 25
 575 100 l 25
 575 900 l 29
 175 900 l 25
75 0 m 25
 75 1000 l 25
 675 1000 l 25
 675 0 l 25
 75 0 l 25
EndSplineSet
Ligature2: "'liga' Standard Ligatures in Latin lookup 176 subtable" space start
Ligature2: "'liga' Standard Ligatures in Latin lookup 176 subtable" start space
Ligature2: "'liga' Standard Ligatures in Latin lookup 176 subtable" start emphasis
Ligature2: "'liga' Standard Ligatures in Latin lookup 176 subtable" start special
Ligature2: "'liga' Standard Ligatures in Latin lookup 176 subtable" start start
Ligature2: "'liga' Standard Ligatures in Latin lookup 176 subtable" start ellipsis
Ligature2: "'liga' Standard Ligatures in Latin lookup 176 subtable" start question
Ligature2: "'liga' Standard Ligatures in Latin lookup 176 subtable" start hyphen
Ligature2: "'liga' Standard Ligatures in Latin lookup 176 subtable" start space
Ligature2: "'liga' Standard Ligatures in Latin lookup 176 subtable" start comma
Ligature2: "'liga' Standard Ligatures in Latin lookup 176 subtable" start period
Ligature2: "'liga' Standard Ligatures in Latin lookup 93 subtable" start start
EndChar

StartChar: Eng
Encoding: 39 330 39
Width: 750
VWidth: 1000
Flags: HW
LayerCount: 2
Fore
SplineSet
75 0 m 17
 75 100 l 1
 325 100 l 1
 325 700 l 1
 425 700 l 1
 425 100 l 1
 675 100 l 5
 675 0 l 9
 75 0 l 17
EndSplineSet
Ligature2: "'liga' Standard Ligatures in Latin lookup 93 subtable" start Eng
Ligature2: "'liga' Standard Ligatures in Latin lookup 1 subtable" N special
EndChar

StartChar: Esh
Encoding: 40 346 40
Width: 750
VWidth: 1000
Flags: HW
LayerCount: 2
Fore
SplineSet
75 0 m 1
 525 300 l 1
 75 300 l 1
 75 400 l 1
 575 700 l 9
 675 700 l 1
 225 400 l 1
 675 400 l 1
 675 300 l 1
 175 0 l 9
 75 0 l 1
75 200 m 29
 675 600 l 29
 675 500 l 29
 75 100 l 29
 75 200 l 29
EndSplineSet
Ligature2: "'liga' Standard Ligatures in Latin lookup 93 subtable" start Esh
Ligature2: "'liga' Standard Ligatures in Latin lookup 1 subtable" S special
EndChar

StartChar: Zhed
Encoding: 41 377 41
Width: 750
VWidth: 1000
Flags: HW
LayerCount: 2
Fore
SplineSet
75 500 m 29
 75 600 l 29
 675 600 l 29
 675 500 l 29
 75 500 l 29
75 0 m 1
 525 300 l 1
 75 300 l 1
 75 400 l 1
 575 700 l 9
 675 700 l 1
 225 400 l 1
 675 400 l 1
 675 300 l 1
 175 0 l 9
 75 0 l 1
75 200 m 29
 675 600 l 29
 675 500 l 29
 75 100 l 29
 75 200 l 29
EndSplineSet
Ligature2: "'liga' Standard Ligatures in Latin lookup 93 subtable" start Zhed
Ligature2: "'liga' Standard Ligatures in Latin lookup 1 subtable" Z special
EndChar

StartChar: emphasis
Encoding: 42 39 42
Width: 750
VWidth: 1000
Flags: HW
LayerCount: 2
Fore
SplineSet
75 -300 m 25
 75 -200 l 25
 375 -100 l 25
 675 -200 l 25
 675 -300 l 25
 375 -200 l 25
 75 -300 l 25
EndSplineSet
Ligature2: "'liga' Standard Ligatures in Latin lookup 176 subtable" space emphasis
Ligature2: "'liga' Standard Ligatures in Latin lookup 176 subtable" emphasis space
Ligature2: "'liga' Standard Ligatures in Latin lookup 176 subtable" emphasis emphasis
Ligature2: "'liga' Standard Ligatures in Latin lookup 176 subtable" emphasis special
Ligature2: "'liga' Standard Ligatures in Latin lookup 176 subtable" emphasis start
Ligature2: "'liga' Standard Ligatures in Latin lookup 176 subtable" emphasis ellipsis
Ligature2: "'liga' Standard Ligatures in Latin lookup 176 subtable" emphasis question
Ligature2: "'liga' Standard Ligatures in Latin lookup 176 subtable" emphasis hyphen
Ligature2: "'liga' Standard Ligatures in Latin lookup 176 subtable" emphasis space
Ligature2: "'liga' Standard Ligatures in Latin lookup 176 subtable" emphasis comma
Ligature2: "'liga' Standard Ligatures in Latin lookup 176 subtable" emphasis period
Ligature2: "'liga' Standard Ligatures in Latin lookup 93 subtable" start emphasis
MultipleSubs2: "Multiple Substitution lookup 92 subtable" X emphasis
MultipleSubs2: "Multiple Substitution lookup 82 subtable" X emphasis
MultipleSubs2: "Multiple Substitution lookup 72 subtable" X emphasis
MultipleSubs2: "Multiple Substitution lookup 62 subtable" X emphasis
MultipleSubs2: "Multiple Substitution lookup 52 subtable" X emphasis
MultipleSubs2: "Multiple Substitution lookup 42 subtable" X emphasis
MultipleSubs2: "Multiple Substitution lookup 32 subtable" X emphasis
MultipleSubs2: "Multiple Substitution lookup 22 subtable" X emphasis
MultipleSubs2: "Multiple Substitution lookup 12 subtable" X emphasis
EndChar

StartChar: ellipsis
Encoding: 43 8230 43
Width: 650
VWidth: 1000
Flags: HW
LayerCount: 2
Fore
SplineSet
75 0 m 1
 75 1000 l 25
 175 1000 l 1
 175 0 l 25
 75 0 l 1
475 0 m 25
 475 1000 l 25
 575 1000 l 25
 575 0 l 25
 475 0 l 25
275 0 m 25
 275 1000 l 25
 375 1000 l 25
 375 0 l 25
 275 0 l 25
EndSplineSet
Ligature2: "'liga' Standard Ligatures in Latin lookup 176 subtable" period period period
Ligature2: "'liga' Standard Ligatures in Latin lookup 176 subtable" space ellipsis
Ligature2: "'liga' Standard Ligatures in Latin lookup 176 subtable" ellipsis space
Ligature2: "'liga' Standard Ligatures in Latin lookup 176 subtable" ellipsis emphasis
Ligature2: "'liga' Standard Ligatures in Latin lookup 176 subtable" ellipsis special
Ligature2: "'liga' Standard Ligatures in Latin lookup 176 subtable" ellipsis start
Ligature2: "'liga' Standard Ligatures in Latin lookup 176 subtable" ellipsis ellipsis
Ligature2: "'liga' Standard Ligatures in Latin lookup 176 subtable" ellipsis question
Ligature2: "'liga' Standard Ligatures in Latin lookup 176 subtable" ellipsis hyphen
Ligature2: "'liga' Standard Ligatures in Latin lookup 176 subtable" ellipsis space
Ligature2: "'liga' Standard Ligatures in Latin lookup 176 subtable" ellipsis comma
Ligature2: "'liga' Standard Ligatures in Latin lookup 176 subtable" ellipsis period
Ligature2: "'liga' Standard Ligatures in Latin lookup 93 subtable" start ellipsis
LCarets2: 2 0 0
EndChar

StartChar: a
Encoding: 44 97 44
Width: 750
VWidth: 1000
Flags: HW
LayerCount: 2
Fore
SplineSet
175 950 m 25
 175 850 l 25
 575 850 l 25
 575 950 l 25
 175 950 l 25
75 800 m 25x98
 75 1000 l 25
 675 1000 l 25
 675 800 l 25
 75 800 l 25x98
EndSplineSet
Substitution2: "'liga' Standard Ligatures in Latin lookup 0 subtable" A
EndChar

StartChar: b
Encoding: 45 98 45
Width: 750
VWidth: 1000
Flags: HW
LayerCount: 2
Fore
SplineSet
175 600 m 25
 175 100 l 25
 575 100 l 25
 575 600 l 25
 175 600 l 25
75 0 m 25
 75 700 l 25
 675 700 l 25xd8
 675 0 l 25
 75 0 l 25
EndSplineSet
Substitution2: "'liga' Standard Ligatures in Latin lookup 0 subtable" B
EndChar

StartChar: c
Encoding: 46 99 46
Width: 750
VWidth: 1000
Flags: HW
LayerCount: 2
Fore
SplineSet
175 600 m 25
 175 100 l 25
 575 100 l 25
 575 600 l 25
 175 600 l 25
75 0 m 25
 75 700 l 25
 675 700 l 25xd8
 675 0 l 25
 75 0 l 25
EndSplineSet
Substitution2: "'liga' Standard Ligatures in Latin lookup 0 subtable" C
EndChar

StartChar: d
Encoding: 47 100 47
Width: 750
VWidth: 1000
Flags: HW
LayerCount: 2
Fore
SplineSet
175 600 m 25
 175 100 l 25
 575 100 l 25
 575 600 l 25
 175 600 l 25
75 0 m 25
 75 700 l 25
 675 700 l 25xd8
 675 0 l 25
 75 0 l 25
EndSplineSet
Substitution2: "'liga' Standard Ligatures in Latin lookup 0 subtable" D
EndChar

StartChar: e
Encoding: 48 101 48
Width: 750
VWidth: 1000
Flags: HW
LayerCount: 2
Fore
SplineSet
175 950 m 25
 175 850 l 25
 575 850 l 25
 575 950 l 25
 175 950 l 25
75 800 m 25x98
 75 1000 l 25
 675 1000 l 25
 675 800 l 25
 75 800 l 25x98
EndSplineSet
Substitution2: "'liga' Standard Ligatures in Latin lookup 0 subtable" E
EndChar

StartChar: f
Encoding: 49 102 49
Width: 750
VWidth: 1000
Flags: HW
LayerCount: 2
Fore
SplineSet
175 600 m 25
 175 100 l 25
 575 100 l 25
 575 600 l 25
 175 600 l 25
75 0 m 25
 75 700 l 25
 675 700 l 25xd8
 675 0 l 25
 75 0 l 25
EndSplineSet
Substitution2: "'liga' Standard Ligatures in Latin lookup 0 subtable" F
EndChar

StartChar: g
Encoding: 50 103 50
Width: 750
VWidth: 1000
Flags: HW
LayerCount: 2
Fore
SplineSet
175 600 m 25
 175 100 l 25
 575 100 l 25
 575 600 l 25
 175 600 l 25
75 0 m 25
 75 700 l 25
 675 700 l 25xd8
 675 0 l 25
 75 0 l 25
EndSplineSet
Substitution2: "'liga' Standard Ligatures in Latin lookup 0 subtable" G
EndChar

StartChar: h
Encoding: 51 104 51
Width: 750
VWidth: 1000
Flags: HW
LayerCount: 2
Fore
SplineSet
175 600 m 25
 175 100 l 25
 575 100 l 25
 575 600 l 25
 175 600 l 25
75 0 m 25
 75 700 l 25
 675 700 l 25xd8
 675 0 l 25
 75 0 l 25
EndSplineSet
Substitution2: "'liga' Standard Ligatures in Latin lookup 0 subtable" H
EndChar

StartChar: i
Encoding: 52 105 52
Width: 750
VWidth: 1000
Flags: HW
LayerCount: 2
Fore
SplineSet
175 950 m 25
 175 850 l 25
 575 850 l 25
 575 950 l 25
 175 950 l 25
75 800 m 25x98
 75 1000 l 25
 675 1000 l 25
 675 800 l 25
 75 800 l 25x98
EndSplineSet
Substitution2: "'liga' Standard Ligatures in Latin lookup 0 subtable" I
EndChar

StartChar: j
Encoding: 53 106 53
Width: 750
VWidth: 1000
Flags: HW
LayerCount: 2
Fore
SplineSet
175 600 m 25
 175 100 l 25
 575 100 l 25
 575 600 l 25
 175 600 l 25
75 0 m 25
 75 700 l 25
 675 700 l 25xd8
 675 0 l 25
 75 0 l 25
EndSplineSet
Substitution2: "'liga' Standard Ligatures in Latin lookup 0 subtable" J
EndChar

StartChar: k
Encoding: 54 107 54
Width: 750
VWidth: 1000
Flags: HW
LayerCount: 2
Fore
SplineSet
175 600 m 25
 175 100 l 25
 575 100 l 25
 575 600 l 25
 175 600 l 25
75 0 m 25
 75 700 l 25
 675 700 l 25xd8
 675 0 l 25
 75 0 l 25
EndSplineSet
Substitution2: "'liga' Standard Ligatures in Latin lookup 0 subtable" K
EndChar

StartChar: l
Encoding: 55 108 55
Width: 750
VWidth: 1000
Flags: HW
LayerCount: 2
Fore
SplineSet
175 600 m 25
 175 100 l 25
 575 100 l 25
 575 600 l 25
 175 600 l 25
75 0 m 25
 75 700 l 25
 675 700 l 25xd8
 675 0 l 25
 75 0 l 25
EndSplineSet
Substitution2: "'liga' Standard Ligatures in Latin lookup 0 subtable" L
EndChar

StartChar: m
Encoding: 56 109 56
Width: 750
VWidth: 1000
Flags: HW
LayerCount: 2
Fore
SplineSet
175 600 m 25
 175 100 l 25
 575 100 l 25
 575 600 l 25
 175 600 l 25
75 0 m 25
 75 700 l 25
 675 700 l 25xd8
 675 0 l 25
 75 0 l 25
EndSplineSet
Substitution2: "'liga' Standard Ligatures in Latin lookup 0 subtable" M
EndChar

StartChar: n
Encoding: 57 110 57
Width: 750
VWidth: 1000
Flags: HW
LayerCount: 2
Fore
SplineSet
175 600 m 25
 175 100 l 25
 575 100 l 25
 575 600 l 25
 175 600 l 25
75 0 m 25
 75 700 l 25
 675 700 l 25xd8
 675 0 l 25
 75 0 l 25
EndSplineSet
Substitution2: "'liga' Standard Ligatures in Latin lookup 0 subtable" N
EndChar

StartChar: o
Encoding: 58 111 58
Width: 750
VWidth: 1000
Flags: HW
LayerCount: 2
Fore
SplineSet
175 950 m 25
 175 850 l 25
 575 850 l 25
 575 950 l 25
 175 950 l 25
75 800 m 25x98
 75 1000 l 25
 675 1000 l 25
 675 800 l 25
 75 800 l 25x98
EndSplineSet
Substitution2: "'liga' Standard Ligatures in Latin lookup 0 subtable" O
EndChar

StartChar: p
Encoding: 59 112 59
Width: 750
VWidth: 1000
Flags: HW
LayerCount: 2
Fore
SplineSet
175 600 m 25
 175 100 l 25
 575 100 l 25
 575 600 l 25
 175 600 l 25
75 0 m 25
 75 700 l 25
 675 700 l 25xd8
 675 0 l 25
 75 0 l 25
EndSplineSet
Substitution2: "'liga' Standard Ligatures in Latin lookup 0 subtable" P
EndChar

StartChar: r
Encoding: 60 114 60
Width: 750
VWidth: 1000
Flags: HW
LayerCount: 2
Fore
SplineSet
175 600 m 25
 175 100 l 25
 575 100 l 25
 575 600 l 25
 175 600 l 25
75 0 m 25
 75 700 l 25
 675 700 l 25xd8
 675 0 l 25
 75 0 l 25
EndSplineSet
Substitution2: "'liga' Standard Ligatures in Latin lookup 0 subtable" R
EndChar

StartChar: s
Encoding: 61 115 61
Width: 750
VWidth: 1000
Flags: HW
LayerCount: 2
Fore
SplineSet
175 600 m 25
 175 100 l 25
 575 100 l 25
 575 600 l 25
 175 600 l 25
75 0 m 25
 75 700 l 25
 675 700 l 25xd8
 675 0 l 25
 75 0 l 25
EndSplineSet
Substitution2: "'liga' Standard Ligatures in Latin lookup 0 subtable" S
EndChar

StartChar: t
Encoding: 62 116 62
Width: 750
VWidth: 1000
Flags: HW
LayerCount: 2
Fore
SplineSet
175 600 m 25
 175 100 l 25
 575 100 l 25
 575 600 l 25
 175 600 l 25
75 0 m 25
 75 700 l 25
 675 700 l 25xd8
 675 0 l 25
 75 0 l 25
EndSplineSet
Substitution2: "'liga' Standard Ligatures in Latin lookup 0 subtable" T
EndChar

StartChar: u
Encoding: 63 117 63
Width: 750
VWidth: 1000
Flags: HW
LayerCount: 2
Fore
SplineSet
175 950 m 25
 175 850 l 25
 575 850 l 25
 575 950 l 25
 175 950 l 25
75 800 m 25x98
 75 1000 l 25
 675 1000 l 25
 675 800 l 25
 75 800 l 25x98
EndSplineSet
Substitution2: "'liga' Standard Ligatures in Latin lookup 0 subtable" U
EndChar

StartChar: v
Encoding: 64 118 64
Width: 750
VWidth: 1000
Flags: HW
LayerCount: 2
Fore
SplineSet
175 600 m 25
 175 100 l 25
 575 100 l 25
 575 600 l 25
 175 600 l 25
75 0 m 25
 75 700 l 25
 675 700 l 25xd8
 675 0 l 25
 75 0 l 25
EndSplineSet
Substitution2: "'liga' Standard Ligatures in Latin lookup 0 subtable" V
EndChar

StartChar: w
Encoding: 65 119 65
Width: 750
VWidth: 1000
Flags: HW
LayerCount: 2
Fore
SplineSet
175 600 m 25
 175 100 l 25
 575 100 l 25
 575 600 l 25
 175 600 l 25
75 0 m 25
 75 700 l 25
 675 700 l 25xd8
 675 0 l 25
 75 0 l 25
EndSplineSet
Substitution2: "'liga' Standard Ligatures in Latin lookup 0 subtable" W
EndChar

StartChar: x
Encoding: 66 120 66
Width: 750
VWidth: 1000
Flags: HW
LayerCount: 2
Fore
SplineSet
175 600 m 25
 175 100 l 25
 575 100 l 25
 575 600 l 25
 175 600 l 25
75 0 m 25
 75 700 l 25
 675 700 l 25xd8
 675 0 l 25
 75 0 l 25
EndSplineSet
Substitution2: "'liga' Standard Ligatures in Latin lookup 0 subtable" X
EndChar

StartChar: y
Encoding: 67 121 67
Width: 750
VWidth: 1000
Flags: HW
LayerCount: 2
Fore
SplineSet
175 600 m 25
 175 100 l 25
 575 100 l 25
 575 600 l 25
 175 600 l 25
75 0 m 25
 75 700 l 25
 675 700 l 25xd8
 675 0 l 25
 75 0 l 25
EndSplineSet
Substitution2: "'liga' Standard Ligatures in Latin lookup 0 subtable" Y
EndChar

StartChar: z
Encoding: 68 122 68
Width: 750
VWidth: 1000
Flags: HW
LayerCount: 2
Fore
SplineSet
175 600 m 25
 175 100 l 25
 575 100 l 25
 575 600 l 25
 175 600 l 25
75 0 m 25
 75 700 l 25
 675 700 l 25xd8
 675 0 l 25
 75 0 l 25
EndSplineSet
Substitution2: "'liga' Standard Ligatures in Latin lookup 0 subtable" Z
EndChar

StartChar: eacute
Encoding: 69 233 69
Width: 750
VWidth: 1000
Flags: HW
LayerCount: 2
Fore
SplineSet
175 950 m 25
 175 850 l 25
 575 850 l 25
 575 950 l 25
 175 950 l 25
75 800 m 25x98
 75 1000 l 25
 675 1000 l 25
 675 800 l 25
 75 800 l 25x98
EndSplineSet
Substitution2: "'liga' Standard Ligatures in Latin lookup 0 subtable" Eacute
EndChar

StartChar: iacute
Encoding: 70 237 70
Width: 750
VWidth: 1000
Flags: HW
LayerCount: 2
Fore
SplineSet
175 950 m 25
 175 850 l 25
 575 850 l 25
 575 950 l 25
 175 950 l 25
75 800 m 25x98
 75 1000 l 25
 675 1000 l 25
 675 800 l 25
 75 800 l 25x98
EndSplineSet
Substitution2: "'liga' Standard Ligatures in Latin lookup 0 subtable" Iacute
EndChar

StartChar: edh
Encoding: 71 240 71
Width: 750
VWidth: 1000
Flags: HW
LayerCount: 2
Fore
SplineSet
175 600 m 25
 175 100 l 25
 575 100 l 25
 575 600 l 25
 175 600 l 25
75 0 m 25
 75 700 l 25
 675 700 l 25xd8
 675 0 l 25
 75 0 l 25
EndSplineSet
Substitution2: "'liga' Standard Ligatures in Latin lookup 0 subtable" Edh
EndChar

StartChar: oacute
Encoding: 72 243 72
Width: 750
VWidth: 1000
Flags: HW
LayerCount: 2
Fore
SplineSet
175 950 m 25
 175 850 l 25
 575 850 l 25
 575 950 l 25
 175 950 l 25
75 800 m 25x98
 75 1000 l 25
 675 1000 l 25
 675 800 l 25
 75 800 l 25x98
EndSplineSet
Substitution2: "'liga' Standard Ligatures in Latin lookup 0 subtable" Oacute
EndChar

StartChar: uacute
Encoding: 73 250 73
Width: 750
VWidth: 1000
Flags: HW
LayerCount: 2
Fore
SplineSet
175 950 m 25
 175 850 l 25
 575 850 l 25
 575 950 l 25
 175 950 l 25
75 800 m 25x98
 75 1000 l 25
 675 1000 l 25
 675 800 l 25
 75 800 l 25x98
EndSplineSet
Substitution2: "'liga' Standard Ligatures in Latin lookup 0 subtable" Uacute
EndChar

StartChar: thorn
Encoding: 74 254 74
Width: 750
VWidth: 1000
Flags: HW
LayerCount: 2
Fore
SplineSet
175 600 m 25
 175 100 l 25
 575 100 l 25
 575 600 l 25
 175 600 l 25
75 0 m 25
 75 700 l 25
 675 700 l 25xd8
 675 0 l 25
 75 0 l 25
EndSplineSet
Substitution2: "'liga' Standard Ligatures in Latin lookup 0 subtable" Thorn
EndChar

StartChar: eng
Encoding: 75 331 75
Width: 750
VWidth: 1000
Flags: HW
LayerCount: 2
Fore
SplineSet
175 600 m 25
 175 100 l 25
 575 100 l 25
 575 600 l 25
 175 600 l 25
75 0 m 25
 75 700 l 25
 675 700 l 25xd8
 675 0 l 25
 75 0 l 25
EndSplineSet
Substitution2: "'liga' Standard Ligatures in Latin lookup 0 subtable" Eng
EndChar

StartChar: esh
Encoding: 76 347 76
Width: 750
VWidth: 1000
Flags: HW
LayerCount: 2
Fore
SplineSet
175 600 m 25
 175 100 l 25
 575 100 l 25
 575 600 l 25
 175 600 l 25
75 0 m 25
 75 700 l 25
 675 700 l 25xd8
 675 0 l 25
 75 0 l 25
EndSplineSet
Substitution2: "'liga' Standard Ligatures in Latin lookup 0 subtable" Esh
EndChar

StartChar: zhed
Encoding: 77 378 77
Width: 750
VWidth: 1000
Flags: HW
LayerCount: 2
Fore
SplineSet
175 600 m 25
 175 100 l 25
 575 100 l 25
 575 600 l 25
 175 600 l 25
75 0 m 25
 75 700 l 25
 675 700 l 25xd8
 675 0 l 25
 75 0 l 25
EndSplineSet
Substitution2: "'liga' Standard Ligatures in Latin lookup 0 subtable" Zhed
EndChar

StartChar: B_A_emphasis
Encoding: 79 -1 78
Width: 750
VWidth: 0
Flags: HW
LayerCount: 2
Fore
SplineSet
325 600 m 25
 425 600 l 25
 425 500 l 25
 325 500 l 29
 325 600 l 25
175 500 m 25
 575 500 l 25
 575 600 l 25
 175 600 l 25
 175 500 l 25
75 0 m 17
 75 100 l 1
 575 100 l 1
 575 400 l 1
 75 400 l 5
 75 700 l 9
 675 700 l 25
 675 0 l 25
 75 0 l 17
75 800 m 25
 75 900 l 25
 675 900 l 29
 675 800 l 25
 75 800 l 25
75 -300 m 25
 75 -200 l 25
 375 -100 l 25
 675 -200 l 25
 675 -300 l 25
 375 -200 l 25
 75 -300 l 25
EndSplineSet
Ligature2: "'liga' Standard Ligatures in Latin lookup 176 subtable" B A emphasis
EndChar

StartChar: B_E_emphasis
Encoding: 80 -1 79
Width: 750
VWidth: 0
Flags: HW
LayerCount: 2
Fore
SplineSet
325 600 m 25
 425 600 l 25
 425 500 l 25
 325 500 l 29
 325 600 l 25
175 500 m 25
 575 500 l 25
 575 600 l 25
 175 600 l 25
 175 500 l 25
75 0 m 17
 75 100 l 1
 575 100 l 1
 575 400 l 1
 75 400 l 5
 75 700 l 9
 675 700 l 25
 675 0 l 25
 75 0 l 17
75 800 m 25
 75 900 l 25
 675 1000 l 25
 675 900 l 29
 75 800 l 25
75 -300 m 25
 75 -200 l 25
 375 -100 l 25
 675 -200 l 25
 675 -300 l 25
 375 -200 l 25
 75 -300 l 25
EndSplineSet
Ligature2: "'liga' Standard Ligatures in Latin lookup 176 subtable" B E emphasis
EndChar

StartChar: B_Eacute_emphasis
Encoding: 81 -1 80
Width: 750
VWidth: 0
Flags: HW
LayerCount: 2
Fore
SplineSet
325 600 m 25
 425 600 l 25
 425 500 l 25
 325 500 l 29
 325 600 l 25
175 500 m 25
 575 500 l 25
 575 600 l 25
 175 600 l 25
 175 500 l 25
75 0 m 17
 75 100 l 1
 575 100 l 1
 575 400 l 1
 75 400 l 5
 75 700 l 9
 675 700 l 25
 675 0 l 25
 75 0 l 17
75 900 m 29
 75 1000 l 29
 675 900 l 29
 675 800 l 29
 75 900 l 29
75 -300 m 25
 75 -200 l 25
 375 -100 l 25
 675 -200 l 25
 675 -300 l 25
 375 -200 l 25
 75 -300 l 25
EndSplineSet
Ligature2: "'liga' Standard Ligatures in Latin lookup 176 subtable" B Eacute emphasis
EndChar

StartChar: B_I_emphasis
Encoding: 82 -1 81
Width: 750
VWidth: 0
Flags: HW
LayerCount: 2
Fore
SplineSet
325 600 m 25
 425 600 l 25
 425 500 l 25
 325 500 l 29
 325 600 l 25
175 500 m 25
 575 500 l 25
 575 600 l 25
 175 600 l 25
 175 500 l 25
75 0 m 17
 75 100 l 1
 575 100 l 1
 575 400 l 1
 75 400 l 5
 75 700 l 9
 675 700 l 25
 675 0 l 25
 75 0 l 17
325 800 m 29
 325 1000 l 29
 425 1000 l 29
 425 800 l 29
 325 800 l 29
75 -300 m 25
 75 -200 l 25
 375 -100 l 25
 675 -200 l 25
 675 -300 l 25
 375 -200 l 25
 75 -300 l 25
EndSplineSet
Ligature2: "'liga' Standard Ligatures in Latin lookup 176 subtable" B I emphasis
EndChar

StartChar: B_Iacute_emphasis
Encoding: 83 -1 82
Width: 750
VWidth: 0
Flags: HW
LayerCount: 2
Fore
SplineSet
325 600 m 25
 425 600 l 25
 425 500 l 25
 325 500 l 29
 325 600 l 25
175 500 m 25
 575 500 l 25
 575 600 l 25
 175 600 l 25
 175 500 l 25
75 0 m 17
 75 100 l 1
 575 100 l 1
 575 400 l 1
 75 400 l 5
 75 700 l 9
 675 700 l 25
 675 0 l 25
 75 0 l 17
75 800 m 1
 75 900 l 1
 375 1000 l 1
 675 900 l 1
 675 800 l 1
 375 900 l 1
 75 800 l 1
75 -300 m 25
 75 -200 l 25
 375 -100 l 25
 675 -200 l 25
 675 -300 l 25
 375 -200 l 25
 75 -300 l 25
EndSplineSet
Ligature2: "'liga' Standard Ligatures in Latin lookup 176 subtable" B Iacute emphasis
EndChar

StartChar: B_O_emphasis
Encoding: 84 -1 83
Width: 750
VWidth: 0
Flags: HW
LayerCount: 2
Fore
SplineSet
325 600 m 25
 425 600 l 25
 425 500 l 25
 325 500 l 29
 325 600 l 25
175 500 m 25
 575 500 l 25
 575 600 l 25
 175 600 l 25
 175 500 l 25
75 0 m 17
 75 100 l 1
 575 100 l 1
 575 400 l 1
 75 400 l 5
 75 700 l 9
 675 700 l 25
 675 0 l 25
 75 0 l 17
175 950 m 29
 175 850 l 29
 575 850 l 29
 575 950 l 29
 175 950 l 29
75 800 m 29
 75 1000 l 29
 675 1000 l 29
 675 800 l 29
 75 800 l 29
75 -300 m 25
 75 -200 l 25
 375 -100 l 25
 675 -200 l 25
 675 -300 l 25
 375 -200 l 25
 75 -300 l 25
EndSplineSet
Ligature2: "'liga' Standard Ligatures in Latin lookup 176 subtable" B O emphasis
EndChar

StartChar: B_Oacute_emphasis
Encoding: 85 -1 84
Width: 750
VWidth: 0
Flags: HW
LayerCount: 2
Fore
SplineSet
325 600 m 25
 425 600 l 25
 425 500 l 25
 325 500 l 29
 325 600 l 25
175 500 m 25
 575 500 l 25
 575 600 l 25
 175 600 l 25
 175 500 l 25
75 0 m 17
 75 100 l 1
 575 100 l 1
 575 400 l 1
 75 400 l 5
 75 700 l 9
 675 700 l 25
 675 0 l 25
 75 0 l 17
75 800 m 17
 75 850 l 1
 575 850 l 1
 575 950 l 1
 75 950 l 1
 75 1000 l 9
 675 1000 l 25
 675 800 l 25
 75 800 l 17
75 -300 m 25
 75 -200 l 25
 375 -100 l 25
 675 -200 l 25
 675 -300 l 25
 375 -200 l 25
 75 -300 l 25
EndSplineSet
Ligature2: "'liga' Standard Ligatures in Latin lookup 176 subtable" B Oacute emphasis
EndChar

StartChar: B_U_emphasis
Encoding: 86 -1 85
Width: 750
VWidth: 0
Flags: HW
LayerCount: 2
Fore
SplineSet
325 600 m 25
 425 600 l 25
 425 500 l 25
 325 500 l 29
 325 600 l 25
175 500 m 25
 575 500 l 25
 575 600 l 25
 175 600 l 25
 175 500 l 25
75 0 m 17
 75 100 l 1
 575 100 l 1
 575 400 l 1
 75 400 l 5
 75 700 l 9
 675 700 l 25
 675 0 l 25
 75 0 l 17
75 900 m 13
 75 1000 l 17
 375 900 l 1
 675 1000 l 9
 675 900 l 17
 375 800 l 1
 75 900 l 13
75 -300 m 25
 75 -200 l 25
 375 -100 l 25
 675 -200 l 25
 675 -300 l 25
 375 -200 l 25
 75 -300 l 25
EndSplineSet
Ligature2: "'liga' Standard Ligatures in Latin lookup 176 subtable" B U emphasis
EndChar

StartChar: B_Uacute_emphasis
Encoding: 87 -1 86
Width: 750
VWidth: 0
Flags: HW
LayerCount: 2
Fore
SplineSet
325 600 m 25
 425 600 l 25
 425 500 l 25
 325 500 l 29
 325 600 l 25
175 500 m 25
 575 500 l 25
 575 600 l 25
 175 600 l 25
 175 500 l 25
75 0 m 17
 75 100 l 1
 575 100 l 1
 575 400 l 1
 75 400 l 5
 75 700 l 9
 675 700 l 25
 675 0 l 25
 75 0 l 17
75 800 m 9
 75 900 l 17
 275 1000 l 1
 475 900 l 1
 675 1000 l 9
 675 900 l 17
 475 800 l 1
 275 900 l 1
 75 800 l 9
75 -300 m 25
 75 -200 l 25
 375 -100 l 25
 675 -200 l 25
 675 -300 l 25
 375 -200 l 25
 75 -300 l 25
EndSplineSet
Ligature2: "'liga' Standard Ligatures in Latin lookup 176 subtable" B Uacute emphasis
EndChar

StartChar: B_emphasis
Encoding: 88 -1 87
Width: 750
VWidth: 0
Flags: HW
LayerCount: 2
Fore
SplineSet
325 600 m 25
 425 600 l 25
 425 500 l 25
 325 500 l 29
 325 600 l 25
175 500 m 25
 575 500 l 25
 575 600 l 25
 175 600 l 25
 175 500 l 25
75 0 m 17
 75 100 l 1
 575 100 l 1
 575 400 l 1
 75 400 l 5
 75 700 l 9
 675 700 l 25
 675 0 l 25
 75 0 l 17
75 -300 m 25
 75 -200 l 25
 375 -100 l 25
 675 -200 l 25
 675 -300 l 25
 375 -200 l 25
 75 -300 l 25
EndSplineSet
Ligature2: "'liga' Standard Ligatures in Latin lookup 176 subtable" B emphasis
EndChar

StartChar: C_A_emphasis
Encoding: 89 -1 88
Width: 750
VWidth: 0
Flags: HW
LayerCount: 2
Fore
SplineSet
675 700 m 1
 675 300 l 1
 175 300 l 1
 175 100 l 1
 675 100 l 1
 675 0 l 1
 75 0 l 1
 75 400 l 1
 575 400 l 1
 575 700 l 1
 675 700 l 1
75 800 m 25
 75 900 l 25
 675 900 l 29
 675 800 l 25
 75 800 l 25
75 -300 m 25
 75 -200 l 25
 375 -100 l 25
 675 -200 l 25
 675 -300 l 25
 375 -200 l 25
 75 -300 l 25
EndSplineSet
Ligature2: "'liga' Standard Ligatures in Latin lookup 176 subtable" C A emphasis
EndChar

StartChar: C_E_emphasis
Encoding: 90 -1 89
Width: 750
VWidth: 0
Flags: HW
LayerCount: 2
Fore
SplineSet
675 700 m 1
 675 300 l 1
 175 300 l 1
 175 100 l 1
 675 100 l 1
 675 0 l 1
 75 0 l 1
 75 400 l 1
 575 400 l 1
 575 700 l 1
 675 700 l 1
75 800 m 25
 75 900 l 25
 675 1000 l 25
 675 900 l 29
 75 800 l 25
75 -300 m 25
 75 -200 l 25
 375 -100 l 25
 675 -200 l 25
 675 -300 l 25
 375 -200 l 25
 75 -300 l 25
EndSplineSet
Ligature2: "'liga' Standard Ligatures in Latin lookup 176 subtable" C E emphasis
EndChar

StartChar: C_Eacute_emphasis
Encoding: 91 -1 90
Width: 750
VWidth: 0
Flags: HW
LayerCount: 2
Fore
SplineSet
675 700 m 1
 675 300 l 1
 175 300 l 1
 175 100 l 1
 675 100 l 1
 675 0 l 1
 75 0 l 1
 75 400 l 1
 575 400 l 1
 575 700 l 1
 675 700 l 1
75 900 m 29
 75 1000 l 29
 675 900 l 29
 675 800 l 29
 75 900 l 29
75 -300 m 25
 75 -200 l 25
 375 -100 l 25
 675 -200 l 25
 675 -300 l 25
 375 -200 l 25
 75 -300 l 25
EndSplineSet
Ligature2: "'liga' Standard Ligatures in Latin lookup 176 subtable" C Eacute emphasis
EndChar

StartChar: C_I_emphasis
Encoding: 92 -1 91
Width: 750
VWidth: 0
Flags: HW
LayerCount: 2
Fore
SplineSet
675 700 m 1
 675 300 l 1
 175 300 l 1
 175 100 l 1
 675 100 l 1
 675 0 l 1
 75 0 l 1
 75 400 l 1
 575 400 l 1
 575 700 l 1
 675 700 l 1
325 800 m 29
 325 1000 l 29
 425 1000 l 29
 425 800 l 29
 325 800 l 29
75 -300 m 25
 75 -200 l 25
 375 -100 l 25
 675 -200 l 25
 675 -300 l 25
 375 -200 l 25
 75 -300 l 25
EndSplineSet
Ligature2: "'liga' Standard Ligatures in Latin lookup 176 subtable" C I emphasis
EndChar

StartChar: C_Iacute_emphasis
Encoding: 93 -1 92
Width: 750
VWidth: 0
Flags: HW
LayerCount: 2
Fore
SplineSet
675 700 m 1
 675 300 l 1
 175 300 l 1
 175 100 l 1
 675 100 l 1
 675 0 l 1
 75 0 l 1
 75 400 l 1
 575 400 l 1
 575 700 l 1
 675 700 l 1
75 800 m 1
 75 900 l 1
 375 1000 l 1
 675 900 l 1
 675 800 l 1
 375 900 l 1
 75 800 l 1
75 -300 m 25
 75 -200 l 25
 375 -100 l 25
 675 -200 l 25
 675 -300 l 25
 375 -200 l 25
 75 -300 l 25
EndSplineSet
Ligature2: "'liga' Standard Ligatures in Latin lookup 176 subtable" C Iacute emphasis
EndChar

StartChar: C_O_emphasis
Encoding: 94 -1 93
Width: 750
VWidth: 0
Flags: HW
LayerCount: 2
Fore
SplineSet
675 700 m 1
 675 300 l 1
 175 300 l 1
 175 100 l 1
 675 100 l 1
 675 0 l 1
 75 0 l 1
 75 400 l 1
 575 400 l 1
 575 700 l 1
 675 700 l 1
175 950 m 29
 175 850 l 29
 575 850 l 29
 575 950 l 29
 175 950 l 29
75 800 m 29
 75 1000 l 29
 675 1000 l 29
 675 800 l 29
 75 800 l 29
75 -300 m 25
 75 -200 l 25
 375 -100 l 25
 675 -200 l 25
 675 -300 l 25
 375 -200 l 25
 75 -300 l 25
EndSplineSet
Ligature2: "'liga' Standard Ligatures in Latin lookup 176 subtable" C O emphasis
EndChar

StartChar: C_Oacute_emphasis
Encoding: 95 -1 94
Width: 750
VWidth: 0
Flags: HW
LayerCount: 2
Fore
SplineSet
675 700 m 1
 675 300 l 1
 175 300 l 1
 175 100 l 1
 675 100 l 1
 675 0 l 1
 75 0 l 1
 75 400 l 1
 575 400 l 1
 575 700 l 1
 675 700 l 1
75 800 m 17
 75 850 l 1
 575 850 l 1
 575 950 l 1
 75 950 l 1
 75 1000 l 9
 675 1000 l 25
 675 800 l 25
 75 800 l 17
75 -300 m 25
 75 -200 l 25
 375 -100 l 25
 675 -200 l 25
 675 -300 l 25
 375 -200 l 25
 75 -300 l 25
EndSplineSet
Ligature2: "'liga' Standard Ligatures in Latin lookup 176 subtable" C Oacute emphasis
EndChar

StartChar: C_U_emphasis
Encoding: 96 -1 95
Width: 750
VWidth: 0
Flags: HW
LayerCount: 2
Fore
SplineSet
675 700 m 1
 675 300 l 1
 175 300 l 1
 175 100 l 1
 675 100 l 1
 675 0 l 1
 75 0 l 1
 75 400 l 1
 575 400 l 1
 575 700 l 1
 675 700 l 1
75 900 m 13
 75 1000 l 17
 375 900 l 1
 675 1000 l 9
 675 900 l 17
 375 800 l 1
 75 900 l 13
75 -300 m 25
 75 -200 l 25
 375 -100 l 25
 675 -200 l 25
 675 -300 l 25
 375 -200 l 25
 75 -300 l 25
EndSplineSet
Ligature2: "'liga' Standard Ligatures in Latin lookup 176 subtable" C U emphasis
EndChar

StartChar: C_Uacute_emphasis
Encoding: 97 -1 96
Width: 750
VWidth: 0
Flags: HW
LayerCount: 2
Fore
SplineSet
675 700 m 1
 675 300 l 1
 175 300 l 1
 175 100 l 1
 675 100 l 1
 675 0 l 1
 75 0 l 1
 75 400 l 1
 575 400 l 1
 575 700 l 1
 675 700 l 1
75 800 m 9
 75 900 l 17
 275 1000 l 1
 475 900 l 1
 675 1000 l 9
 675 900 l 17
 475 800 l 1
 275 900 l 1
 75 800 l 9
75 -300 m 25
 75 -200 l 25
 375 -100 l 25
 675 -200 l 25
 675 -300 l 25
 375 -200 l 25
 75 -300 l 25
EndSplineSet
Ligature2: "'liga' Standard Ligatures in Latin lookup 176 subtable" C Uacute emphasis
EndChar

StartChar: C_emphasis
Encoding: 98 -1 97
Width: 750
VWidth: 0
Flags: HW
LayerCount: 2
Fore
SplineSet
675 700 m 1
 675 300 l 1
 175 300 l 1
 175 100 l 1
 675 100 l 1
 675 0 l 1
 75 0 l 1
 75 400 l 1
 575 400 l 1
 575 700 l 1
 675 700 l 1
75 -300 m 25
 75 -200 l 25
 375 -100 l 25
 675 -200 l 25
 675 -300 l 25
 375 -200 l 25
 75 -300 l 25
EndSplineSet
Ligature2: "'liga' Standard Ligatures in Latin lookup 176 subtable" C emphasis
EndChar

StartChar: D_A_emphasis
Encoding: 99 -1 98
Width: 750
VWidth: 0
Flags: HW
LayerCount: 2
Fore
SplineSet
275 250 m 29
 275 350 l 25
 475 350 l 25
 475 250 l 25
 275 250 l 29
225 100 m 25
 525 100 l 25
 375 550 l 29
 225 100 l 25
75 0 m 1
 325 700 l 1
 425 700 l 1
 675 0 l 1
 75 0 l 1
75 800 m 25
 75 900 l 25
 675 900 l 29
 675 800 l 25
 75 800 l 25
75 -300 m 25
 75 -200 l 25
 375 -100 l 25
 675 -200 l 25
 675 -300 l 25
 375 -200 l 25
 75 -300 l 25
EndSplineSet
Ligature2: "'liga' Standard Ligatures in Latin lookup 176 subtable" D A emphasis
EndChar

StartChar: D_E_emphasis
Encoding: 100 -1 99
Width: 750
VWidth: 0
Flags: HW
LayerCount: 2
Fore
SplineSet
275 250 m 29
 275 350 l 25
 475 350 l 25
 475 250 l 25
 275 250 l 29
225 100 m 25
 525 100 l 25
 375 550 l 29
 225 100 l 25
75 0 m 1
 325 700 l 1
 425 700 l 1
 675 0 l 1
 75 0 l 1
75 800 m 25
 75 900 l 25
 675 1000 l 25
 675 900 l 29
 75 800 l 25
75 -300 m 25
 75 -200 l 25
 375 -100 l 25
 675 -200 l 25
 675 -300 l 25
 375 -200 l 25
 75 -300 l 25
EndSplineSet
Ligature2: "'liga' Standard Ligatures in Latin lookup 176 subtable" D E emphasis
EndChar

StartChar: D_Eacute_emphasis
Encoding: 101 -1 100
Width: 750
VWidth: 0
Flags: HW
LayerCount: 2
Fore
SplineSet
275 250 m 29
 275 350 l 25
 475 350 l 25
 475 250 l 25
 275 250 l 29
225 100 m 25
 525 100 l 25
 375 550 l 29
 225 100 l 25
75 0 m 1
 325 700 l 1
 425 700 l 1
 675 0 l 1
 75 0 l 1
75 900 m 29
 75 1000 l 29
 675 900 l 29
 675 800 l 29
 75 900 l 29
75 -300 m 25
 75 -200 l 25
 375 -100 l 25
 675 -200 l 25
 675 -300 l 25
 375 -200 l 25
 75 -300 l 25
EndSplineSet
Ligature2: "'liga' Standard Ligatures in Latin lookup 176 subtable" D Eacute emphasis
EndChar

StartChar: D_I_emphasis
Encoding: 102 -1 101
Width: 750
VWidth: 0
Flags: HW
LayerCount: 2
Fore
SplineSet
275 250 m 29
 275 350 l 25
 475 350 l 25
 475 250 l 25
 275 250 l 29
225 100 m 25
 525 100 l 25
 375 550 l 29
 225 100 l 25
75 0 m 1
 325 700 l 1
 425 700 l 1
 675 0 l 1
 75 0 l 1
325 800 m 29
 325 1000 l 29
 425 1000 l 29
 425 800 l 29
 325 800 l 29
75 -300 m 25
 75 -200 l 25
 375 -100 l 25
 675 -200 l 25
 675 -300 l 25
 375 -200 l 25
 75 -300 l 25
EndSplineSet
Ligature2: "'liga' Standard Ligatures in Latin lookup 176 subtable" D I emphasis
EndChar

StartChar: D_Iacute_emphasis
Encoding: 103 -1 102
Width: 750
VWidth: 0
Flags: HW
LayerCount: 2
Fore
SplineSet
275 250 m 29
 275 350 l 25
 475 350 l 25
 475 250 l 25
 275 250 l 29
225 100 m 25
 525 100 l 25
 375 550 l 29
 225 100 l 25
75 0 m 1
 325 700 l 1
 425 700 l 1
 675 0 l 1
 75 0 l 1
75 800 m 1
 75 900 l 1
 375 1000 l 1
 675 900 l 1
 675 800 l 1
 375 900 l 1
 75 800 l 1
75 -300 m 25
 75 -200 l 25
 375 -100 l 25
 675 -200 l 25
 675 -300 l 25
 375 -200 l 25
 75 -300 l 25
EndSplineSet
Ligature2: "'liga' Standard Ligatures in Latin lookup 176 subtable" D Iacute emphasis
EndChar

StartChar: D_O_emphasis
Encoding: 104 -1 103
Width: 750
VWidth: 0
Flags: HW
LayerCount: 2
Fore
SplineSet
275 250 m 29
 275 350 l 25
 475 350 l 25
 475 250 l 25
 275 250 l 29
225 100 m 25
 525 100 l 25
 375 550 l 29
 225 100 l 25
75 0 m 1
 325 700 l 1
 425 700 l 1
 675 0 l 1
 75 0 l 1
175 950 m 29
 175 850 l 29
 575 850 l 29
 575 950 l 29
 175 950 l 29
75 800 m 29
 75 1000 l 29
 675 1000 l 29
 675 800 l 29
 75 800 l 29
75 -300 m 25
 75 -200 l 25
 375 -100 l 25
 675 -200 l 25
 675 -300 l 25
 375 -200 l 25
 75 -300 l 25
EndSplineSet
Ligature2: "'liga' Standard Ligatures in Latin lookup 176 subtable" D O emphasis
EndChar

StartChar: D_Oacute_emphasis
Encoding: 105 -1 104
Width: 750
VWidth: 0
Flags: HW
LayerCount: 2
Fore
SplineSet
275 250 m 29
 275 350 l 25
 475 350 l 25
 475 250 l 25
 275 250 l 29
225 100 m 25
 525 100 l 25
 375 550 l 29
 225 100 l 25
75 0 m 1
 325 700 l 1
 425 700 l 1
 675 0 l 1
 75 0 l 1
75 800 m 17
 75 850 l 1
 575 850 l 1
 575 950 l 1
 75 950 l 1
 75 1000 l 9
 675 1000 l 25
 675 800 l 25
 75 800 l 17
75 -300 m 25
 75 -200 l 25
 375 -100 l 25
 675 -200 l 25
 675 -300 l 25
 375 -200 l 25
 75 -300 l 25
EndSplineSet
Ligature2: "'liga' Standard Ligatures in Latin lookup 176 subtable" D Oacute emphasis
EndChar

StartChar: D_U_emphasis
Encoding: 106 -1 105
Width: 750
VWidth: 0
Flags: HW
LayerCount: 2
Fore
SplineSet
275 250 m 29
 275 350 l 25
 475 350 l 25
 475 250 l 25
 275 250 l 29
225 100 m 25
 525 100 l 25
 375 550 l 29
 225 100 l 25
75 0 m 1
 325 700 l 1
 425 700 l 1
 675 0 l 1
 75 0 l 1
75 900 m 13
 75 1000 l 17
 375 900 l 1
 675 1000 l 9
 675 900 l 17
 375 800 l 1
 75 900 l 13
75 -300 m 25
 75 -200 l 25
 375 -100 l 25
 675 -200 l 25
 675 -300 l 25
 375 -200 l 25
 75 -300 l 25
EndSplineSet
Ligature2: "'liga' Standard Ligatures in Latin lookup 176 subtable" D U emphasis
EndChar

StartChar: D_Uacute_emphasis
Encoding: 107 -1 106
Width: 750
VWidth: 0
Flags: HW
LayerCount: 2
Fore
SplineSet
275 250 m 29
 275 350 l 25
 475 350 l 25
 475 250 l 25
 275 250 l 29
225 100 m 25
 525 100 l 25
 375 550 l 29
 225 100 l 25
75 0 m 1
 325 700 l 1
 425 700 l 1
 675 0 l 1
 75 0 l 1
75 800 m 9
 75 900 l 17
 275 1000 l 1
 475 900 l 1
 675 1000 l 9
 675 900 l 17
 475 800 l 1
 275 900 l 1
 75 800 l 9
75 -300 m 25
 75 -200 l 25
 375 -100 l 25
 675 -200 l 25
 675 -300 l 25
 375 -200 l 25
 75 -300 l 25
EndSplineSet
Ligature2: "'liga' Standard Ligatures in Latin lookup 176 subtable" D Uacute emphasis
EndChar

StartChar: D_emphasis
Encoding: 108 -1 107
Width: 750
VWidth: 0
Flags: HW
LayerCount: 2
Fore
SplineSet
275 250 m 29
 275 350 l 25
 475 350 l 25
 475 250 l 25
 275 250 l 29
225 100 m 25
 525 100 l 25
 375 550 l 29
 225 100 l 25
75 0 m 1
 325 700 l 1
 425 700 l 1
 675 0 l 1
 75 0 l 1
75 -300 m 25
 75 -200 l 25
 375 -100 l 25
 675 -200 l 25
 675 -300 l 25
 375 -200 l 25
 75 -300 l 25
EndSplineSet
Ligature2: "'liga' Standard Ligatures in Latin lookup 176 subtable" D emphasis
EndChar

StartChar: Edh_A_emphasis
Encoding: 109 -1 108
Width: 750
VWidth: 0
Flags: HW
LayerCount: 2
Fore
SplineSet
75 500 m 25
 75 600 l 29
 675 600 l 25
 675 500 l 25
 75 500 l 25
175 0 m 29
 225 100 l 25
 575 100 l 25
 575 300 l 25
 675 300 l 25
 675 0 l 25
 175 0 l 29
75 0 m 1
 525 300 l 1
 75 300 l 1
 75 400 l 1
 575 700 l 9
 675 700 l 1
 225 400 l 1
 675 400 l 1
 675 300 l 1
 175 0 l 9
 75 0 l 1
75 800 m 25
 75 900 l 25
 675 900 l 29
 675 800 l 25
 75 800 l 25
75 -300 m 25
 75 -200 l 25
 375 -100 l 25
 675 -200 l 25
 675 -300 l 25
 375 -200 l 25
 75 -300 l 25
EndSplineSet
Ligature2: "'liga' Standard Ligatures in Latin lookup 176 subtable" Edh A emphasis
EndChar

StartChar: Edh_E_emphasis
Encoding: 110 -1 109
Width: 750
VWidth: 0
Flags: HW
LayerCount: 2
Fore
SplineSet
75 500 m 25
 75 600 l 29
 675 600 l 25
 675 500 l 25
 75 500 l 25
175 0 m 29
 225 100 l 25
 575 100 l 25
 575 300 l 25
 675 300 l 25
 675 0 l 25
 175 0 l 29
75 0 m 1
 525 300 l 1
 75 300 l 1
 75 400 l 1
 575 700 l 9
 675 700 l 1
 225 400 l 1
 675 400 l 1
 675 300 l 1
 175 0 l 9
 75 0 l 1
75 800 m 25
 75 900 l 25
 675 1000 l 25
 675 900 l 29
 75 800 l 25
75 -300 m 25
 75 -200 l 25
 375 -100 l 25
 675 -200 l 25
 675 -300 l 25
 375 -200 l 25
 75 -300 l 25
EndSplineSet
Ligature2: "'liga' Standard Ligatures in Latin lookup 176 subtable" Edh E emphasis
EndChar

StartChar: Edh_Eacute_emphasis
Encoding: 111 -1 110
Width: 750
VWidth: 0
Flags: HW
LayerCount: 2
Fore
SplineSet
75 500 m 25
 75 600 l 29
 675 600 l 25
 675 500 l 25
 75 500 l 25
175 0 m 29
 225 100 l 25
 575 100 l 25
 575 300 l 25
 675 300 l 25
 675 0 l 25
 175 0 l 29
75 0 m 1
 525 300 l 1
 75 300 l 1
 75 400 l 1
 575 700 l 9
 675 700 l 1
 225 400 l 1
 675 400 l 1
 675 300 l 1
 175 0 l 9
 75 0 l 1
75 900 m 29
 75 1000 l 29
 675 900 l 29
 675 800 l 29
 75 900 l 29
75 -300 m 25
 75 -200 l 25
 375 -100 l 25
 675 -200 l 25
 675 -300 l 25
 375 -200 l 25
 75 -300 l 25
EndSplineSet
Ligature2: "'liga' Standard Ligatures in Latin lookup 176 subtable" Edh Eacute emphasis
EndChar

StartChar: Edh_I_emphasis
Encoding: 112 -1 111
Width: 750
VWidth: 0
Flags: HW
LayerCount: 2
Fore
SplineSet
75 500 m 25
 75 600 l 29
 675 600 l 25
 675 500 l 25
 75 500 l 25
175 0 m 29
 225 100 l 25
 575 100 l 25
 575 300 l 25
 675 300 l 25
 675 0 l 25
 175 0 l 29
75 0 m 1
 525 300 l 1
 75 300 l 1
 75 400 l 1
 575 700 l 9
 675 700 l 1
 225 400 l 1
 675 400 l 1
 675 300 l 1
 175 0 l 9
 75 0 l 1
325 800 m 29
 325 1000 l 29
 425 1000 l 29
 425 800 l 29
 325 800 l 29
75 -300 m 25
 75 -200 l 25
 375 -100 l 25
 675 -200 l 25
 675 -300 l 25
 375 -200 l 25
 75 -300 l 25
EndSplineSet
Ligature2: "'liga' Standard Ligatures in Latin lookup 176 subtable" Edh I emphasis
EndChar

StartChar: Edh_Iacute_emphasis
Encoding: 113 -1 112
Width: 750
VWidth: 0
Flags: HW
LayerCount: 2
Fore
SplineSet
75 500 m 25
 75 600 l 29
 675 600 l 25
 675 500 l 25
 75 500 l 25
175 0 m 29
 225 100 l 25
 575 100 l 25
 575 300 l 25
 675 300 l 25
 675 0 l 25
 175 0 l 29
75 0 m 1
 525 300 l 1
 75 300 l 1
 75 400 l 1
 575 700 l 9
 675 700 l 1
 225 400 l 1
 675 400 l 1
 675 300 l 1
 175 0 l 9
 75 0 l 1
75 800 m 1
 75 900 l 1
 375 1000 l 1
 675 900 l 1
 675 800 l 1
 375 900 l 1
 75 800 l 1
75 -300 m 25
 75 -200 l 25
 375 -100 l 25
 675 -200 l 25
 675 -300 l 25
 375 -200 l 25
 75 -300 l 25
EndSplineSet
Ligature2: "'liga' Standard Ligatures in Latin lookup 176 subtable" Edh Iacute emphasis
EndChar

StartChar: Edh_O_emphasis
Encoding: 114 -1 113
Width: 750
VWidth: 0
Flags: HW
LayerCount: 2
Fore
SplineSet
75 500 m 25
 75 600 l 29
 675 600 l 25
 675 500 l 25
 75 500 l 25
175 0 m 29
 225 100 l 25
 575 100 l 25
 575 300 l 25
 675 300 l 25
 675 0 l 25
 175 0 l 29
75 0 m 1
 525 300 l 1
 75 300 l 1
 75 400 l 1
 575 700 l 9
 675 700 l 1
 225 400 l 1
 675 400 l 1
 675 300 l 1
 175 0 l 9
 75 0 l 1
175 950 m 29
 175 850 l 29
 575 850 l 29
 575 950 l 29
 175 950 l 29
75 800 m 29
 75 1000 l 29
 675 1000 l 29
 675 800 l 29
 75 800 l 29
75 -300 m 25
 75 -200 l 25
 375 -100 l 25
 675 -200 l 25
 675 -300 l 25
 375 -200 l 25
 75 -300 l 25
EndSplineSet
Ligature2: "'liga' Standard Ligatures in Latin lookup 176 subtable" Edh O emphasis
EndChar

StartChar: Edh_Oacute_emphasis
Encoding: 115 -1 114
Width: 750
VWidth: 0
Flags: HW
LayerCount: 2
Fore
SplineSet
75 500 m 25
 75 600 l 29
 675 600 l 25
 675 500 l 25
 75 500 l 25
175 0 m 29
 225 100 l 25
 575 100 l 25
 575 300 l 25
 675 300 l 25
 675 0 l 25
 175 0 l 29
75 0 m 1
 525 300 l 1
 75 300 l 1
 75 400 l 1
 575 700 l 9
 675 700 l 1
 225 400 l 1
 675 400 l 1
 675 300 l 1
 175 0 l 9
 75 0 l 1
75 800 m 17
 75 850 l 1
 575 850 l 1
 575 950 l 1
 75 950 l 1
 75 1000 l 9
 675 1000 l 25
 675 800 l 25
 75 800 l 17
75 -300 m 25
 75 -200 l 25
 375 -100 l 25
 675 -200 l 25
 675 -300 l 25
 375 -200 l 25
 75 -300 l 25
EndSplineSet
Ligature2: "'liga' Standard Ligatures in Latin lookup 176 subtable" Edh Oacute emphasis
EndChar

StartChar: Edh_U_emphasis
Encoding: 116 -1 115
Width: 750
VWidth: 0
Flags: HW
LayerCount: 2
Fore
SplineSet
75 500 m 25
 75 600 l 29
 675 600 l 25
 675 500 l 25
 75 500 l 25
175 0 m 29
 225 100 l 25
 575 100 l 25
 575 300 l 25
 675 300 l 25
 675 0 l 25
 175 0 l 29
75 0 m 1
 525 300 l 1
 75 300 l 1
 75 400 l 1
 575 700 l 9
 675 700 l 1
 225 400 l 1
 675 400 l 1
 675 300 l 1
 175 0 l 9
 75 0 l 1
75 900 m 13
 75 1000 l 17
 375 900 l 1
 675 1000 l 9
 675 900 l 17
 375 800 l 1
 75 900 l 13
75 -300 m 25
 75 -200 l 25
 375 -100 l 25
 675 -200 l 25
 675 -300 l 25
 375 -200 l 25
 75 -300 l 25
EndSplineSet
Ligature2: "'liga' Standard Ligatures in Latin lookup 176 subtable" Edh U emphasis
EndChar

StartChar: Edh_Uacute_emphasis
Encoding: 117 -1 116
Width: 750
VWidth: 0
Flags: HW
LayerCount: 2
Fore
SplineSet
75 500 m 25
 75 600 l 29
 675 600 l 25
 675 500 l 25
 75 500 l 25
175 0 m 29
 225 100 l 25
 575 100 l 25
 575 300 l 25
 675 300 l 25
 675 0 l 25
 175 0 l 29
75 0 m 1
 525 300 l 1
 75 300 l 1
 75 400 l 1
 575 700 l 9
 675 700 l 1
 225 400 l 1
 675 400 l 1
 675 300 l 1
 175 0 l 9
 75 0 l 1
75 800 m 9
 75 900 l 17
 275 1000 l 1
 475 900 l 1
 675 1000 l 9
 675 900 l 17
 475 800 l 1
 275 900 l 1
 75 800 l 9
75 -300 m 25
 75 -200 l 25
 375 -100 l 25
 675 -200 l 25
 675 -300 l 25
 375 -200 l 25
 75 -300 l 25
EndSplineSet
Ligature2: "'liga' Standard Ligatures in Latin lookup 176 subtable" Edh Uacute emphasis
EndChar

StartChar: Edh_emphasis
Encoding: 118 -1 117
Width: 750
VWidth: 0
Flags: HW
LayerCount: 2
Fore
SplineSet
75 500 m 25
 75 600 l 29
 675 600 l 25
 675 500 l 25
 75 500 l 25
175 0 m 29
 225 100 l 25
 575 100 l 25
 575 300 l 25
 675 300 l 25
 675 0 l 25
 175 0 l 29
75 0 m 1
 525 300 l 1
 75 300 l 1
 75 400 l 1
 575 700 l 9
 675 700 l 1
 225 400 l 1
 675 400 l 1
 675 300 l 1
 175 0 l 9
 75 0 l 1
75 -300 m 25
 75 -200 l 25
 375 -100 l 25
 675 -200 l 25
 675 -300 l 25
 375 -200 l 25
 75 -300 l 25
EndSplineSet
Ligature2: "'liga' Standard Ligatures in Latin lookup 176 subtable" Edh emphasis
EndChar

StartChar: F_A_emphasis
Encoding: 119 -1 118
Width: 750
VWidth: 0
Flags: HW
LayerCount: 2
Fore
SplineSet
175 600 m 25
 175 500 l 25
 575 500 l 25
 575 600 l 25
 175 600 l 25
75 0 m 25
 75 700 l 25
 675 700 l 25
 675 400 l 25
 175 400 l 25
 175 0 l 25
 75 0 l 25
75 800 m 25
 75 900 l 25
 675 900 l 29
 675 800 l 25
 75 800 l 25
75 -300 m 25
 75 -200 l 25
 375 -100 l 25
 675 -200 l 25
 675 -300 l 25
 375 -200 l 25
 75 -300 l 25
EndSplineSet
Ligature2: "'liga' Standard Ligatures in Latin lookup 176 subtable" F A emphasis
EndChar

StartChar: F_E_emphasis
Encoding: 120 -1 119
Width: 750
VWidth: 0
Flags: HW
LayerCount: 2
Fore
SplineSet
175 600 m 25
 175 500 l 25
 575 500 l 25
 575 600 l 25
 175 600 l 25
75 0 m 25
 75 700 l 25
 675 700 l 25
 675 400 l 25
 175 400 l 25
 175 0 l 25
 75 0 l 25
75 800 m 25
 75 900 l 25
 675 1000 l 25
 675 900 l 29
 75 800 l 25
75 -300 m 25
 75 -200 l 25
 375 -100 l 25
 675 -200 l 25
 675 -300 l 25
 375 -200 l 25
 75 -300 l 25
EndSplineSet
Ligature2: "'liga' Standard Ligatures in Latin lookup 176 subtable" F E emphasis
EndChar

StartChar: F_Eacute_emphasis
Encoding: 121 -1 120
Width: 750
VWidth: 0
Flags: HW
LayerCount: 2
Fore
SplineSet
175 600 m 25
 175 500 l 25
 575 500 l 25
 575 600 l 25
 175 600 l 25
75 0 m 25
 75 700 l 25
 675 700 l 25
 675 400 l 25
 175 400 l 25
 175 0 l 25
 75 0 l 25
75 900 m 29
 75 1000 l 29
 675 900 l 29
 675 800 l 29
 75 900 l 29
75 -300 m 25
 75 -200 l 25
 375 -100 l 25
 675 -200 l 25
 675 -300 l 25
 375 -200 l 25
 75 -300 l 25
EndSplineSet
Ligature2: "'liga' Standard Ligatures in Latin lookup 176 subtable" F Eacute emphasis
EndChar

StartChar: F_I_emphasis
Encoding: 122 -1 121
Width: 750
VWidth: 0
Flags: HW
LayerCount: 2
Fore
SplineSet
175 600 m 25
 175 500 l 25
 575 500 l 25
 575 600 l 25
 175 600 l 25
75 0 m 25
 75 700 l 25
 675 700 l 25
 675 400 l 25
 175 400 l 25
 175 0 l 25
 75 0 l 25
325 800 m 29
 325 1000 l 29
 425 1000 l 29
 425 800 l 29
 325 800 l 29
75 -300 m 25
 75 -200 l 25
 375 -100 l 25
 675 -200 l 25
 675 -300 l 25
 375 -200 l 25
 75 -300 l 25
EndSplineSet
Ligature2: "'liga' Standard Ligatures in Latin lookup 176 subtable" F I emphasis
EndChar

StartChar: F_Iacute_emphasis
Encoding: 123 -1 122
Width: 750
VWidth: 0
Flags: HW
LayerCount: 2
Fore
SplineSet
175 600 m 25
 175 500 l 25
 575 500 l 25
 575 600 l 25
 175 600 l 25
75 0 m 25
 75 700 l 25
 675 700 l 25
 675 400 l 25
 175 400 l 25
 175 0 l 25
 75 0 l 25
75 800 m 1
 75 900 l 1
 375 1000 l 1
 675 900 l 1
 675 800 l 1
 375 900 l 1
 75 800 l 1
75 -300 m 25
 75 -200 l 25
 375 -100 l 25
 675 -200 l 25
 675 -300 l 25
 375 -200 l 25
 75 -300 l 25
EndSplineSet
Ligature2: "'liga' Standard Ligatures in Latin lookup 176 subtable" F Iacute emphasis
EndChar

StartChar: F_O_emphasis
Encoding: 124 -1 123
Width: 750
VWidth: 0
Flags: HW
LayerCount: 2
Fore
SplineSet
175 600 m 25
 175 500 l 25
 575 500 l 25
 575 600 l 25
 175 600 l 25
75 0 m 25
 75 700 l 25
 675 700 l 25
 675 400 l 25
 175 400 l 25
 175 0 l 25
 75 0 l 25
175 950 m 29
 175 850 l 29
 575 850 l 29
 575 950 l 29
 175 950 l 29
75 800 m 29
 75 1000 l 29
 675 1000 l 29
 675 800 l 29
 75 800 l 29
75 -300 m 25
 75 -200 l 25
 375 -100 l 25
 675 -200 l 25
 675 -300 l 25
 375 -200 l 25
 75 -300 l 25
EndSplineSet
Ligature2: "'liga' Standard Ligatures in Latin lookup 176 subtable" F O emphasis
EndChar

StartChar: F_Oacute_emphasis
Encoding: 125 -1 124
Width: 750
VWidth: 0
Flags: HW
LayerCount: 2
Fore
SplineSet
175 600 m 25
 175 500 l 25
 575 500 l 25
 575 600 l 25
 175 600 l 25
75 0 m 25
 75 700 l 25
 675 700 l 25
 675 400 l 25
 175 400 l 25
 175 0 l 25
 75 0 l 25
75 800 m 17
 75 850 l 1
 575 850 l 1
 575 950 l 1
 75 950 l 1
 75 1000 l 9
 675 1000 l 25
 675 800 l 25
 75 800 l 17
75 -300 m 25
 75 -200 l 25
 375 -100 l 25
 675 -200 l 25
 675 -300 l 25
 375 -200 l 25
 75 -300 l 25
EndSplineSet
Ligature2: "'liga' Standard Ligatures in Latin lookup 176 subtable" F Oacute emphasis
EndChar

StartChar: F_U_emphasis
Encoding: 126 -1 125
Width: 750
VWidth: 0
Flags: HW
LayerCount: 2
Fore
SplineSet
175 600 m 25
 175 500 l 25
 575 500 l 25
 575 600 l 25
 175 600 l 25
75 0 m 25
 75 700 l 25
 675 700 l 25
 675 400 l 25
 175 400 l 25
 175 0 l 25
 75 0 l 25
75 900 m 13
 75 1000 l 17
 375 900 l 1
 675 1000 l 9
 675 900 l 17
 375 800 l 1
 75 900 l 13
75 -300 m 25
 75 -200 l 25
 375 -100 l 25
 675 -200 l 25
 675 -300 l 25
 375 -200 l 25
 75 -300 l 25
EndSplineSet
Ligature2: "'liga' Standard Ligatures in Latin lookup 176 subtable" F U emphasis
EndChar

StartChar: F_Uacute_emphasis
Encoding: 127 -1 126
Width: 750
VWidth: 0
Flags: HW
LayerCount: 2
Fore
SplineSet
175 600 m 25
 175 500 l 25
 575 500 l 25
 575 600 l 25
 175 600 l 25
75 0 m 25
 75 700 l 25
 675 700 l 25
 675 400 l 25
 175 400 l 25
 175 0 l 25
 75 0 l 25
75 800 m 9
 75 900 l 17
 275 1000 l 1
 475 900 l 1
 675 1000 l 9
 675 900 l 17
 475 800 l 1
 275 900 l 1
 75 800 l 9
75 -300 m 25
 75 -200 l 25
 375 -100 l 25
 675 -200 l 25
 675 -300 l 25
 375 -200 l 25
 75 -300 l 25
EndSplineSet
Ligature2: "'liga' Standard Ligatures in Latin lookup 176 subtable" F Uacute emphasis
EndChar

StartChar: F_emphasis
Encoding: 128 -1 127
Width: 750
VWidth: 0
Flags: HW
LayerCount: 2
Fore
SplineSet
175 600 m 25
 175 500 l 25
 575 500 l 25
 575 600 l 25
 175 600 l 25
75 0 m 25
 75 700 l 25
 675 700 l 25
 675 400 l 25
 175 400 l 25
 175 0 l 25
 75 0 l 25
75 -300 m 25
 75 -200 l 25
 375 -100 l 25
 675 -200 l 25
 675 -300 l 25
 375 -200 l 25
 75 -300 l 25
EndSplineSet
Ligature2: "'liga' Standard Ligatures in Latin lookup 176 subtable" F emphasis
EndChar

StartChar: G_A_emphasis
Encoding: 129 -1 128
Width: 750
VWidth: 0
Flags: HW
LayerCount: 2
Fore
SplineSet
75 300 m 25
 75 400 l 29
 475 400 l 25
 475 300 l 25
 75 300 l 25
75 0 m 1
 75 700 l 29
 675 700 l 1
 675 600 l 1
 175 600 l 1
 175 0 l 1
 75 0 l 1
75 800 m 25
 75 900 l 25
 675 900 l 29
 675 800 l 25
 75 800 l 25
75 -300 m 25
 75 -200 l 25
 375 -100 l 25
 675 -200 l 25
 675 -300 l 25
 375 -200 l 25
 75 -300 l 25
EndSplineSet
Ligature2: "'liga' Standard Ligatures in Latin lookup 176 subtable" G A emphasis
EndChar

StartChar: G_E_emphasis
Encoding: 130 -1 129
Width: 750
VWidth: 0
Flags: HW
LayerCount: 2
Fore
SplineSet
75 300 m 25
 75 400 l 29
 475 400 l 25
 475 300 l 25
 75 300 l 25
75 0 m 1
 75 700 l 29
 675 700 l 1
 675 600 l 1
 175 600 l 1
 175 0 l 1
 75 0 l 1
75 800 m 25
 75 900 l 25
 675 1000 l 25
 675 900 l 29
 75 800 l 25
75 -300 m 25
 75 -200 l 25
 375 -100 l 25
 675 -200 l 25
 675 -300 l 25
 375 -200 l 25
 75 -300 l 25
EndSplineSet
Ligature2: "'liga' Standard Ligatures in Latin lookup 176 subtable" G E emphasis
EndChar

StartChar: G_Eacute_emphasis
Encoding: 131 -1 130
Width: 750
VWidth: 0
Flags: HW
LayerCount: 2
Fore
SplineSet
75 300 m 25
 75 400 l 29
 475 400 l 25
 475 300 l 25
 75 300 l 25
75 0 m 1
 75 700 l 29
 675 700 l 1
 675 600 l 1
 175 600 l 1
 175 0 l 1
 75 0 l 1
75 900 m 29
 75 1000 l 29
 675 900 l 29
 675 800 l 29
 75 900 l 29
75 -300 m 25
 75 -200 l 25
 375 -100 l 25
 675 -200 l 25
 675 -300 l 25
 375 -200 l 25
 75 -300 l 25
EndSplineSet
Ligature2: "'liga' Standard Ligatures in Latin lookup 176 subtable" G Eacute emphasis
EndChar

StartChar: G_I_emphasis
Encoding: 132 -1 131
Width: 750
VWidth: 0
Flags: HW
LayerCount: 2
Fore
SplineSet
75 300 m 25
 75 400 l 29
 475 400 l 25
 475 300 l 25
 75 300 l 25
75 0 m 1
 75 700 l 29
 675 700 l 1
 675 600 l 1
 175 600 l 1
 175 0 l 1
 75 0 l 1
325 800 m 29
 325 1000 l 29
 425 1000 l 29
 425 800 l 29
 325 800 l 29
75 -300 m 25
 75 -200 l 25
 375 -100 l 25
 675 -200 l 25
 675 -300 l 25
 375 -200 l 25
 75 -300 l 25
EndSplineSet
Ligature2: "'liga' Standard Ligatures in Latin lookup 176 subtable" G I emphasis
EndChar

StartChar: G_Iacute_emphasis
Encoding: 133 -1 132
Width: 750
VWidth: 0
Flags: HW
LayerCount: 2
Fore
SplineSet
75 300 m 25
 75 400 l 29
 475 400 l 25
 475 300 l 25
 75 300 l 25
75 0 m 1
 75 700 l 29
 675 700 l 1
 675 600 l 1
 175 600 l 1
 175 0 l 1
 75 0 l 1
75 800 m 1
 75 900 l 1
 375 1000 l 1
 675 900 l 1
 675 800 l 1
 375 900 l 1
 75 800 l 1
75 -300 m 25
 75 -200 l 25
 375 -100 l 25
 675 -200 l 25
 675 -300 l 25
 375 -200 l 25
 75 -300 l 25
EndSplineSet
Ligature2: "'liga' Standard Ligatures in Latin lookup 176 subtable" G Iacute emphasis
EndChar

StartChar: G_O_emphasis
Encoding: 134 -1 133
Width: 750
VWidth: 0
Flags: HW
LayerCount: 2
Fore
SplineSet
75 300 m 25
 75 400 l 29
 475 400 l 25
 475 300 l 25
 75 300 l 25
75 0 m 1
 75 700 l 29
 675 700 l 1
 675 600 l 1
 175 600 l 1
 175 0 l 1
 75 0 l 1
175 950 m 29
 175 850 l 29
 575 850 l 29
 575 950 l 29
 175 950 l 29
75 800 m 29
 75 1000 l 29
 675 1000 l 29
 675 800 l 29
 75 800 l 29
75 -300 m 25
 75 -200 l 25
 375 -100 l 25
 675 -200 l 25
 675 -300 l 25
 375 -200 l 25
 75 -300 l 25
EndSplineSet
Ligature2: "'liga' Standard Ligatures in Latin lookup 176 subtable" G O emphasis
EndChar

StartChar: G_Oacute_emphasis
Encoding: 135 -1 134
Width: 750
VWidth: 0
Flags: HW
LayerCount: 2
Fore
SplineSet
75 300 m 25
 75 400 l 29
 475 400 l 25
 475 300 l 25
 75 300 l 25
75 0 m 1
 75 700 l 29
 675 700 l 1
 675 600 l 1
 175 600 l 1
 175 0 l 1
 75 0 l 1
75 800 m 17
 75 850 l 1
 575 850 l 1
 575 950 l 1
 75 950 l 1
 75 1000 l 9
 675 1000 l 25
 675 800 l 25
 75 800 l 17
75 -300 m 25
 75 -200 l 25
 375 -100 l 25
 675 -200 l 25
 675 -300 l 25
 375 -200 l 25
 75 -300 l 25
EndSplineSet
Ligature2: "'liga' Standard Ligatures in Latin lookup 176 subtable" G Oacute emphasis
EndChar

StartChar: G_U_emphasis
Encoding: 136 -1 135
Width: 750
VWidth: 0
Flags: HW
LayerCount: 2
Fore
SplineSet
75 300 m 25
 75 400 l 29
 475 400 l 25
 475 300 l 25
 75 300 l 25
75 0 m 1
 75 700 l 29
 675 700 l 1
 675 600 l 1
 175 600 l 1
 175 0 l 1
 75 0 l 1
75 900 m 13
 75 1000 l 17
 375 900 l 1
 675 1000 l 9
 675 900 l 17
 375 800 l 1
 75 900 l 13
75 -300 m 25
 75 -200 l 25
 375 -100 l 25
 675 -200 l 25
 675 -300 l 25
 375 -200 l 25
 75 -300 l 25
EndSplineSet
Ligature2: "'liga' Standard Ligatures in Latin lookup 176 subtable" G U emphasis
EndChar

StartChar: G_Uacute_emphasis
Encoding: 137 -1 136
Width: 750
VWidth: 0
Flags: HW
LayerCount: 2
Fore
SplineSet
75 300 m 25
 75 400 l 29
 475 400 l 25
 475 300 l 25
 75 300 l 25
75 0 m 1
 75 700 l 29
 675 700 l 1
 675 600 l 1
 175 600 l 1
 175 0 l 1
 75 0 l 1
75 800 m 9
 75 900 l 17
 275 1000 l 1
 475 900 l 1
 675 1000 l 9
 675 900 l 17
 475 800 l 1
 275 900 l 1
 75 800 l 9
75 -300 m 25
 75 -200 l 25
 375 -100 l 25
 675 -200 l 25
 675 -300 l 25
 375 -200 l 25
 75 -300 l 25
EndSplineSet
Ligature2: "'liga' Standard Ligatures in Latin lookup 176 subtable" G Uacute emphasis
EndChar

StartChar: G_emphasis
Encoding: 138 -1 137
Width: 750
VWidth: 0
Flags: HW
LayerCount: 2
Fore
SplineSet
75 300 m 25
 75 400 l 29
 475 400 l 25
 475 300 l 25
 75 300 l 25
75 0 m 1
 75 700 l 29
 675 700 l 1
 675 600 l 1
 175 600 l 1
 175 0 l 1
 75 0 l 1
75 -300 m 25
 75 -200 l 25
 375 -100 l 25
 675 -200 l 25
 675 -300 l 25
 375 -200 l 25
 75 -300 l 25
EndSplineSet
Ligature2: "'liga' Standard Ligatures in Latin lookup 176 subtable" G emphasis
EndChar

StartChar: H_A_emphasis
Encoding: 139 -1 138
Width: 750
VWidth: 0
Flags: HW
LayerCount: 2
Fore
SplineSet
75 500 m 9
 75 700 l 1
 675 700 l 25
 675 0 l 1
 575 0 l 1
 575 600 l 1
 175 600 l 1
 175 500 l 1
 75 500 l 9
75 800 m 25
 75 900 l 25
 675 900 l 29
 675 800 l 25
 75 800 l 25
75 -300 m 25
 75 -200 l 25
 375 -100 l 25
 675 -200 l 25
 675 -300 l 25
 375 -200 l 25
 75 -300 l 25
EndSplineSet
Ligature2: "'liga' Standard Ligatures in Latin lookup 176 subtable" H A emphasis
EndChar

StartChar: H_E_emphasis
Encoding: 140 -1 139
Width: 750
VWidth: 0
Flags: HW
LayerCount: 2
Fore
SplineSet
75 500 m 9
 75 700 l 1
 675 700 l 25
 675 0 l 1
 575 0 l 1
 575 600 l 1
 175 600 l 1
 175 500 l 1
 75 500 l 9
75 800 m 25
 75 900 l 25
 675 1000 l 25
 675 900 l 29
 75 800 l 25
75 -300 m 25
 75 -200 l 25
 375 -100 l 25
 675 -200 l 25
 675 -300 l 25
 375 -200 l 25
 75 -300 l 25
EndSplineSet
Ligature2: "'liga' Standard Ligatures in Latin lookup 176 subtable" H E emphasis
EndChar

StartChar: H_Eacute_emphasis
Encoding: 141 -1 140
Width: 750
VWidth: 0
Flags: HW
LayerCount: 2
Fore
SplineSet
75 500 m 9
 75 700 l 1
 675 700 l 25
 675 0 l 1
 575 0 l 1
 575 600 l 1
 175 600 l 1
 175 500 l 1
 75 500 l 9
75 900 m 29
 75 1000 l 29
 675 900 l 29
 675 800 l 29
 75 900 l 29
75 -300 m 25
 75 -200 l 25
 375 -100 l 25
 675 -200 l 25
 675 -300 l 25
 375 -200 l 25
 75 -300 l 25
EndSplineSet
Ligature2: "'liga' Standard Ligatures in Latin lookup 176 subtable" H Eacute emphasis
EndChar

StartChar: H_I_emphasis
Encoding: 142 -1 141
Width: 750
VWidth: 0
Flags: HW
LayerCount: 2
Fore
SplineSet
75 500 m 9
 75 700 l 1
 675 700 l 25
 675 0 l 1
 575 0 l 1
 575 600 l 1
 175 600 l 1
 175 500 l 1
 75 500 l 9
325 800 m 29
 325 1000 l 29
 425 1000 l 29
 425 800 l 29
 325 800 l 29
75 -300 m 25
 75 -200 l 25
 375 -100 l 25
 675 -200 l 25
 675 -300 l 25
 375 -200 l 25
 75 -300 l 25
EndSplineSet
Ligature2: "'liga' Standard Ligatures in Latin lookup 176 subtable" H I emphasis
EndChar

StartChar: H_Iacute_emphasis
Encoding: 143 -1 142
Width: 750
VWidth: 0
Flags: HW
LayerCount: 2
Fore
SplineSet
75 500 m 9
 75 700 l 1
 675 700 l 25
 675 0 l 1
 575 0 l 1
 575 600 l 1
 175 600 l 1
 175 500 l 1
 75 500 l 9
75 800 m 1
 75 900 l 1
 375 1000 l 1
 675 900 l 1
 675 800 l 1
 375 900 l 1
 75 800 l 1
75 -300 m 25
 75 -200 l 25
 375 -100 l 25
 675 -200 l 25
 675 -300 l 25
 375 -200 l 25
 75 -300 l 25
EndSplineSet
Ligature2: "'liga' Standard Ligatures in Latin lookup 176 subtable" H Iacute emphasis
EndChar

StartChar: H_O_emphasis
Encoding: 144 -1 143
Width: 750
VWidth: 0
Flags: HW
LayerCount: 2
Fore
SplineSet
75 500 m 9
 75 700 l 1
 675 700 l 25
 675 0 l 1
 575 0 l 1
 575 600 l 1
 175 600 l 1
 175 500 l 1
 75 500 l 9
175 950 m 29
 175 850 l 29
 575 850 l 29
 575 950 l 29
 175 950 l 29
75 800 m 29
 75 1000 l 29
 675 1000 l 29
 675 800 l 29
 75 800 l 29
75 -300 m 25
 75 -200 l 25
 375 -100 l 25
 675 -200 l 25
 675 -300 l 25
 375 -200 l 25
 75 -300 l 25
EndSplineSet
Ligature2: "'liga' Standard Ligatures in Latin lookup 176 subtable" H O emphasis
EndChar

StartChar: H_Oacute_emphasis
Encoding: 145 -1 144
Width: 750
VWidth: 0
Flags: HW
LayerCount: 2
Fore
SplineSet
75 500 m 9
 75 700 l 1
 675 700 l 25
 675 0 l 1
 575 0 l 1
 575 600 l 1
 175 600 l 1
 175 500 l 1
 75 500 l 9
75 800 m 17
 75 850 l 1
 575 850 l 1
 575 950 l 1
 75 950 l 1
 75 1000 l 9
 675 1000 l 25
 675 800 l 25
 75 800 l 17
75 -300 m 25
 75 -200 l 25
 375 -100 l 25
 675 -200 l 25
 675 -300 l 25
 375 -200 l 25
 75 -300 l 25
EndSplineSet
Ligature2: "'liga' Standard Ligatures in Latin lookup 176 subtable" H Oacute emphasis
EndChar

StartChar: H_U_emphasis
Encoding: 146 -1 145
Width: 750
VWidth: 0
Flags: HW
LayerCount: 2
Fore
SplineSet
75 500 m 9
 75 700 l 1
 675 700 l 25
 675 0 l 1
 575 0 l 1
 575 600 l 1
 175 600 l 1
 175 500 l 1
 75 500 l 9
75 900 m 13
 75 1000 l 17
 375 900 l 1
 675 1000 l 9
 675 900 l 17
 375 800 l 1
 75 900 l 13
75 -300 m 25
 75 -200 l 25
 375 -100 l 25
 675 -200 l 25
 675 -300 l 25
 375 -200 l 25
 75 -300 l 25
EndSplineSet
Ligature2: "'liga' Standard Ligatures in Latin lookup 176 subtable" H U emphasis
EndChar

StartChar: H_Uacute_emphasis
Encoding: 147 -1 146
Width: 750
VWidth: 0
Flags: HW
LayerCount: 2
Fore
SplineSet
75 500 m 9
 75 700 l 1
 675 700 l 25
 675 0 l 1
 575 0 l 1
 575 600 l 1
 175 600 l 1
 175 500 l 1
 75 500 l 9
75 800 m 9
 75 900 l 17
 275 1000 l 1
 475 900 l 1
 675 1000 l 9
 675 900 l 17
 475 800 l 1
 275 900 l 1
 75 800 l 9
75 -300 m 25
 75 -200 l 25
 375 -100 l 25
 675 -200 l 25
 675 -300 l 25
 375 -200 l 25
 75 -300 l 25
EndSplineSet
Ligature2: "'liga' Standard Ligatures in Latin lookup 176 subtable" H Uacute emphasis
EndChar

StartChar: H_emphasis
Encoding: 148 -1 147
Width: 750
VWidth: 0
Flags: HW
LayerCount: 2
Fore
SplineSet
75 500 m 9
 75 700 l 1
 675 700 l 25
 675 0 l 1
 575 0 l 1
 575 600 l 1
 175 600 l 1
 175 500 l 1
 75 500 l 9
75 -300 m 25
 75 -200 l 25
 375 -100 l 25
 675 -200 l 25
 675 -300 l 25
 375 -200 l 25
 75 -300 l 25
EndSplineSet
Ligature2: "'liga' Standard Ligatures in Latin lookup 176 subtable" H emphasis
EndChar

StartChar: J_A_emphasis
Encoding: 149 -1 148
Width: 750
VWidth: 0
Flags: HW
LayerCount: 2
Fore
SplineSet
175 500 m 1
 175 600 l 1
 675 600 l 5
 675 500 l 1
 175 500 l 1
675 700 m 1
 675 300 l 1
 175 300 l 1
 175 100 l 1
 675 100 l 1
 675 0 l 1
 75 0 l 1
 75 400 l 1
 575 400 l 1
 575 700 l 1
 675 700 l 1
75 800 m 25
 75 900 l 25
 675 900 l 29
 675 800 l 25
 75 800 l 25
75 -300 m 25
 75 -200 l 25
 375 -100 l 25
 675 -200 l 25
 675 -300 l 25
 375 -200 l 25
 75 -300 l 25
EndSplineSet
Ligature2: "'liga' Standard Ligatures in Latin lookup 176 subtable" J A emphasis
EndChar

StartChar: J_E_emphasis
Encoding: 150 -1 149
Width: 750
VWidth: 0
Flags: HW
LayerCount: 2
Fore
SplineSet
175 500 m 1
 175 600 l 1
 675 600 l 5
 675 500 l 1
 175 500 l 1
675 700 m 1
 675 300 l 1
 175 300 l 1
 175 100 l 1
 675 100 l 1
 675 0 l 1
 75 0 l 1
 75 400 l 1
 575 400 l 1
 575 700 l 1
 675 700 l 1
75 800 m 25
 75 900 l 25
 675 1000 l 25
 675 900 l 29
 75 800 l 25
75 -300 m 25
 75 -200 l 25
 375 -100 l 25
 675 -200 l 25
 675 -300 l 25
 375 -200 l 25
 75 -300 l 25
EndSplineSet
Ligature2: "'liga' Standard Ligatures in Latin lookup 176 subtable" J E emphasis
EndChar

StartChar: J_Eacute_emphasis
Encoding: 151 -1 150
Width: 750
VWidth: 0
Flags: HW
LayerCount: 2
Fore
SplineSet
175 500 m 1
 175 600 l 1
 675 600 l 5
 675 500 l 1
 175 500 l 1
675 700 m 1
 675 300 l 1
 175 300 l 1
 175 100 l 1
 675 100 l 1
 675 0 l 1
 75 0 l 1
 75 400 l 1
 575 400 l 1
 575 700 l 1
 675 700 l 1
75 900 m 29
 75 1000 l 29
 675 900 l 29
 675 800 l 29
 75 900 l 29
75 -300 m 25
 75 -200 l 25
 375 -100 l 25
 675 -200 l 25
 675 -300 l 25
 375 -200 l 25
 75 -300 l 25
EndSplineSet
Ligature2: "'liga' Standard Ligatures in Latin lookup 176 subtable" J Eacute emphasis
EndChar

StartChar: J_I_emphasis
Encoding: 152 -1 151
Width: 750
VWidth: 0
Flags: HW
LayerCount: 2
Fore
SplineSet
175 500 m 1
 175 600 l 1
 675 600 l 5
 675 500 l 1
 175 500 l 1
675 700 m 1
 675 300 l 1
 175 300 l 1
 175 100 l 1
 675 100 l 1
 675 0 l 1
 75 0 l 1
 75 400 l 1
 575 400 l 1
 575 700 l 1
 675 700 l 1
325 800 m 29
 325 1000 l 29
 425 1000 l 29
 425 800 l 29
 325 800 l 29
75 -300 m 25
 75 -200 l 25
 375 -100 l 25
 675 -200 l 25
 675 -300 l 25
 375 -200 l 25
 75 -300 l 25
EndSplineSet
Ligature2: "'liga' Standard Ligatures in Latin lookup 176 subtable" J I emphasis
EndChar

StartChar: J_Iacute_emphasis
Encoding: 153 -1 152
Width: 750
VWidth: 0
Flags: HW
LayerCount: 2
Fore
SplineSet
175 500 m 1
 175 600 l 1
 675 600 l 5
 675 500 l 1
 175 500 l 1
675 700 m 1
 675 300 l 1
 175 300 l 1
 175 100 l 1
 675 100 l 1
 675 0 l 1
 75 0 l 1
 75 400 l 1
 575 400 l 1
 575 700 l 1
 675 700 l 1
75 800 m 1
 75 900 l 1
 375 1000 l 1
 675 900 l 1
 675 800 l 1
 375 900 l 1
 75 800 l 1
75 -300 m 25
 75 -200 l 25
 375 -100 l 25
 675 -200 l 25
 675 -300 l 25
 375 -200 l 25
 75 -300 l 25
EndSplineSet
Ligature2: "'liga' Standard Ligatures in Latin lookup 176 subtable" J Iacute emphasis
EndChar

StartChar: J_O_emphasis
Encoding: 154 -1 153
Width: 750
VWidth: 0
Flags: HW
LayerCount: 2
Fore
SplineSet
175 500 m 1
 175 600 l 1
 675 600 l 5
 675 500 l 1
 175 500 l 1
675 700 m 1
 675 300 l 1
 175 300 l 1
 175 100 l 1
 675 100 l 1
 675 0 l 1
 75 0 l 1
 75 400 l 1
 575 400 l 1
 575 700 l 1
 675 700 l 1
175 950 m 29
 175 850 l 29
 575 850 l 29
 575 950 l 29
 175 950 l 29
75 800 m 29
 75 1000 l 29
 675 1000 l 29
 675 800 l 29
 75 800 l 29
75 -300 m 25
 75 -200 l 25
 375 -100 l 25
 675 -200 l 25
 675 -300 l 25
 375 -200 l 25
 75 -300 l 25
EndSplineSet
Ligature2: "'liga' Standard Ligatures in Latin lookup 176 subtable" J O emphasis
EndChar

StartChar: J_Oacute_emphasis
Encoding: 155 -1 154
Width: 750
VWidth: 0
Flags: HW
LayerCount: 2
Fore
SplineSet
175 500 m 1
 175 600 l 1
 675 600 l 5
 675 500 l 1
 175 500 l 1
675 700 m 1
 675 300 l 1
 175 300 l 1
 175 100 l 1
 675 100 l 1
 675 0 l 1
 75 0 l 1
 75 400 l 1
 575 400 l 1
 575 700 l 1
 675 700 l 1
75 800 m 17
 75 850 l 1
 575 850 l 1
 575 950 l 1
 75 950 l 1
 75 1000 l 9
 675 1000 l 25
 675 800 l 25
 75 800 l 17
75 -300 m 25
 75 -200 l 25
 375 -100 l 25
 675 -200 l 25
 675 -300 l 25
 375 -200 l 25
 75 -300 l 25
EndSplineSet
Ligature2: "'liga' Standard Ligatures in Latin lookup 176 subtable" J Oacute emphasis
EndChar

StartChar: J_U_emphasis
Encoding: 156 -1 155
Width: 750
VWidth: 0
Flags: HW
LayerCount: 2
Fore
SplineSet
175 500 m 1
 175 600 l 1
 675 600 l 5
 675 500 l 1
 175 500 l 1
675 700 m 1
 675 300 l 1
 175 300 l 1
 175 100 l 1
 675 100 l 1
 675 0 l 1
 75 0 l 1
 75 400 l 1
 575 400 l 1
 575 700 l 1
 675 700 l 1
75 900 m 13
 75 1000 l 17
 375 900 l 1
 675 1000 l 9
 675 900 l 17
 375 800 l 1
 75 900 l 13
75 -300 m 25
 75 -200 l 25
 375 -100 l 25
 675 -200 l 25
 675 -300 l 25
 375 -200 l 25
 75 -300 l 25
EndSplineSet
Ligature2: "'liga' Standard Ligatures in Latin lookup 176 subtable" J U emphasis
EndChar

StartChar: J_Uacute_emphasis
Encoding: 157 -1 156
Width: 750
VWidth: 0
Flags: HW
LayerCount: 2
Fore
SplineSet
175 500 m 1
 175 600 l 1
 675 600 l 5
 675 500 l 1
 175 500 l 1
675 700 m 1
 675 300 l 1
 175 300 l 1
 175 100 l 1
 675 100 l 1
 675 0 l 1
 75 0 l 1
 75 400 l 1
 575 400 l 1
 575 700 l 1
 675 700 l 1
75 800 m 9
 75 900 l 17
 275 1000 l 1
 475 900 l 1
 675 1000 l 9
 675 900 l 17
 475 800 l 1
 275 900 l 1
 75 800 l 9
75 -300 m 25
 75 -200 l 25
 375 -100 l 25
 675 -200 l 25
 675 -300 l 25
 375 -200 l 25
 75 -300 l 25
EndSplineSet
Ligature2: "'liga' Standard Ligatures in Latin lookup 176 subtable" J Uacute emphasis
EndChar

StartChar: J_emphasis
Encoding: 158 -1 157
Width: 750
VWidth: 0
Flags: HW
LayerCount: 2
Fore
SplineSet
175 500 m 1
 175 600 l 1
 675 600 l 5
 675 500 l 1
 175 500 l 1
675 700 m 1
 675 300 l 1
 175 300 l 1
 175 100 l 1
 675 100 l 1
 675 0 l 1
 75 0 l 1
 75 400 l 1
 575 400 l 1
 575 700 l 1
 675 700 l 1
75 -300 m 25
 75 -200 l 25
 375 -100 l 25
 675 -200 l 25
 675 -300 l 25
 375 -200 l 25
 75 -300 l 25
EndSplineSet
Ligature2: "'liga' Standard Ligatures in Latin lookup 176 subtable" J emphasis
EndChar

StartChar: K_A_emphasis
Encoding: 159 -1 158
Width: 750
VWidth: 0
Flags: HW
LayerCount: 2
Fore
SplineSet
75 0 m 1
 75 700 l 29
 675 700 l 1
 675 600 l 1
 175 600 l 1
 175 0 l 1
 75 0 l 1
75 800 m 25
 75 900 l 25
 675 900 l 29
 675 800 l 25
 75 800 l 25
75 -300 m 25
 75 -200 l 25
 375 -100 l 25
 675 -200 l 25
 675 -300 l 25
 375 -200 l 25
 75 -300 l 25
EndSplineSet
Ligature2: "'liga' Standard Ligatures in Latin lookup 176 subtable" K A emphasis
EndChar

StartChar: K_E_emphasis
Encoding: 160 -1 159
Width: 750
VWidth: 0
Flags: HW
LayerCount: 2
Fore
SplineSet
75 0 m 1
 75 700 l 29
 675 700 l 1
 675 600 l 1
 175 600 l 1
 175 0 l 1
 75 0 l 1
75 800 m 25
 75 900 l 25
 675 1000 l 25
 675 900 l 29
 75 800 l 25
75 -300 m 25
 75 -200 l 25
 375 -100 l 25
 675 -200 l 25
 675 -300 l 25
 375 -200 l 25
 75 -300 l 25
EndSplineSet
Ligature2: "'liga' Standard Ligatures in Latin lookup 176 subtable" K E emphasis
EndChar

StartChar: K_Eacute_emphasis
Encoding: 161 -1 160
Width: 750
VWidth: 0
Flags: HW
LayerCount: 2
Fore
SplineSet
75 0 m 1
 75 700 l 29
 675 700 l 1
 675 600 l 1
 175 600 l 1
 175 0 l 1
 75 0 l 1
75 900 m 29
 75 1000 l 29
 675 900 l 29
 675 800 l 29
 75 900 l 29
75 -300 m 25
 75 -200 l 25
 375 -100 l 25
 675 -200 l 25
 675 -300 l 25
 375 -200 l 25
 75 -300 l 25
EndSplineSet
Ligature2: "'liga' Standard Ligatures in Latin lookup 176 subtable" K Eacute emphasis
EndChar

StartChar: K_I_emphasis
Encoding: 162 -1 161
Width: 750
VWidth: 0
Flags: HW
LayerCount: 2
Fore
SplineSet
75 0 m 1
 75 700 l 29
 675 700 l 1
 675 600 l 1
 175 600 l 1
 175 0 l 1
 75 0 l 1
325 800 m 29
 325 1000 l 29
 425 1000 l 29
 425 800 l 29
 325 800 l 29
75 -300 m 25
 75 -200 l 25
 375 -100 l 25
 675 -200 l 25
 675 -300 l 25
 375 -200 l 25
 75 -300 l 25
EndSplineSet
Ligature2: "'liga' Standard Ligatures in Latin lookup 176 subtable" K I emphasis
EndChar

StartChar: K_Iacute_emphasis
Encoding: 163 -1 162
Width: 750
VWidth: 0
Flags: HW
LayerCount: 2
Fore
SplineSet
75 0 m 1
 75 700 l 29
 675 700 l 1
 675 600 l 1
 175 600 l 1
 175 0 l 1
 75 0 l 1
75 800 m 1
 75 900 l 1
 375 1000 l 1
 675 900 l 1
 675 800 l 1
 375 900 l 1
 75 800 l 1
75 -300 m 25
 75 -200 l 25
 375 -100 l 25
 675 -200 l 25
 675 -300 l 25
 375 -200 l 25
 75 -300 l 25
EndSplineSet
Ligature2: "'liga' Standard Ligatures in Latin lookup 176 subtable" K Iacute emphasis
EndChar

StartChar: K_O_emphasis
Encoding: 164 -1 163
Width: 750
VWidth: 0
Flags: HW
LayerCount: 2
Fore
SplineSet
75 0 m 1
 75 700 l 29
 675 700 l 1
 675 600 l 1
 175 600 l 1
 175 0 l 1
 75 0 l 1
175 950 m 29
 175 850 l 29
 575 850 l 29
 575 950 l 29
 175 950 l 29
75 800 m 29
 75 1000 l 29
 675 1000 l 29
 675 800 l 29
 75 800 l 29
75 -300 m 25
 75 -200 l 25
 375 -100 l 25
 675 -200 l 25
 675 -300 l 25
 375 -200 l 25
 75 -300 l 25
EndSplineSet
Ligature2: "'liga' Standard Ligatures in Latin lookup 176 subtable" K O emphasis
EndChar

StartChar: K_Oacute_emphasis
Encoding: 165 -1 164
Width: 750
VWidth: 0
Flags: HW
LayerCount: 2
Fore
SplineSet
75 0 m 1
 75 700 l 29
 675 700 l 1
 675 600 l 1
 175 600 l 1
 175 0 l 1
 75 0 l 1
75 800 m 17
 75 850 l 1
 575 850 l 1
 575 950 l 1
 75 950 l 1
 75 1000 l 9
 675 1000 l 25
 675 800 l 25
 75 800 l 17
75 -300 m 25
 75 -200 l 25
 375 -100 l 25
 675 -200 l 25
 675 -300 l 25
 375 -200 l 25
 75 -300 l 25
EndSplineSet
Ligature2: "'liga' Standard Ligatures in Latin lookup 176 subtable" K Oacute emphasis
EndChar

StartChar: K_U_emphasis
Encoding: 166 -1 165
Width: 750
VWidth: 0
Flags: HW
LayerCount: 2
Fore
SplineSet
75 0 m 1
 75 700 l 29
 675 700 l 1
 675 600 l 1
 175 600 l 1
 175 0 l 1
 75 0 l 1
75 900 m 13
 75 1000 l 17
 375 900 l 1
 675 1000 l 9
 675 900 l 17
 375 800 l 1
 75 900 l 13
75 -300 m 25
 75 -200 l 25
 375 -100 l 25
 675 -200 l 25
 675 -300 l 25
 375 -200 l 25
 75 -300 l 25
EndSplineSet
Ligature2: "'liga' Standard Ligatures in Latin lookup 176 subtable" K U emphasis
EndChar

StartChar: K_Uacute_emphasis
Encoding: 167 -1 166
Width: 750
VWidth: 0
Flags: HW
LayerCount: 2
Fore
SplineSet
75 0 m 1
 75 700 l 29
 675 700 l 1
 675 600 l 1
 175 600 l 1
 175 0 l 1
 75 0 l 1
75 800 m 9
 75 900 l 17
 275 1000 l 1
 475 900 l 1
 675 1000 l 9
 675 900 l 17
 475 800 l 1
 275 900 l 1
 75 800 l 9
75 -300 m 25
 75 -200 l 25
 375 -100 l 25
 675 -200 l 25
 675 -300 l 25
 375 -200 l 25
 75 -300 l 25
EndSplineSet
Ligature2: "'liga' Standard Ligatures in Latin lookup 176 subtable" K Uacute emphasis
EndChar

StartChar: K_emphasis
Encoding: 168 -1 167
Width: 750
VWidth: 0
Flags: HW
LayerCount: 2
Fore
SplineSet
75 0 m 1
 75 700 l 29
 675 700 l 1
 675 600 l 1
 175 600 l 1
 175 0 l 1
 75 0 l 1
75 -300 m 25
 75 -200 l 25
 375 -100 l 25
 675 -200 l 25
 675 -300 l 25
 375 -200 l 25
 75 -300 l 25
EndSplineSet
Ligature2: "'liga' Standard Ligatures in Latin lookup 176 subtable" K emphasis
EndChar

StartChar: L_A_emphasis
Encoding: 169 -1 168
Width: 750
VWidth: 0
Flags: HW
LayerCount: 2
Fore
SplineSet
75 0 m 13
 75 700 l 17
 175 700 l 1
 575 500 l 1
 575 700 l 1
 675 700 l 1
 675 400 l 1
 575 400 l 1
 175 600 l 1
 175 0 l 1
 75 0 l 13
75 800 m 25
 75 900 l 25
 675 900 l 29
 675 800 l 25
 75 800 l 25
75 -300 m 25
 75 -200 l 25
 375 -100 l 25
 675 -200 l 25
 675 -300 l 25
 375 -200 l 25
 75 -300 l 25
EndSplineSet
Ligature2: "'liga' Standard Ligatures in Latin lookup 176 subtable" L A emphasis
EndChar

StartChar: L_E_emphasis
Encoding: 170 -1 169
Width: 750
VWidth: 0
Flags: HW
LayerCount: 2
Fore
SplineSet
75 0 m 13
 75 700 l 17
 175 700 l 1
 575 500 l 1
 575 700 l 1
 675 700 l 1
 675 400 l 1
 575 400 l 1
 175 600 l 1
 175 0 l 1
 75 0 l 13
75 800 m 25
 75 900 l 25
 675 1000 l 25
 675 900 l 29
 75 800 l 25
75 -300 m 25
 75 -200 l 25
 375 -100 l 25
 675 -200 l 25
 675 -300 l 25
 375 -200 l 25
 75 -300 l 25
EndSplineSet
Ligature2: "'liga' Standard Ligatures in Latin lookup 176 subtable" L E emphasis
EndChar

StartChar: L_Eacute_emphasis
Encoding: 171 -1 170
Width: 750
VWidth: 0
Flags: HW
LayerCount: 2
Fore
SplineSet
75 0 m 13
 75 700 l 17
 175 700 l 1
 575 500 l 1
 575 700 l 1
 675 700 l 1
 675 400 l 1
 575 400 l 1
 175 600 l 1
 175 0 l 1
 75 0 l 13
75 900 m 29
 75 1000 l 29
 675 900 l 29
 675 800 l 29
 75 900 l 29
75 -300 m 25
 75 -200 l 25
 375 -100 l 25
 675 -200 l 25
 675 -300 l 25
 375 -200 l 25
 75 -300 l 25
EndSplineSet
Ligature2: "'liga' Standard Ligatures in Latin lookup 176 subtable" L Eacute emphasis
EndChar

StartChar: L_I_emphasis
Encoding: 172 -1 171
Width: 750
VWidth: 0
Flags: HW
LayerCount: 2
Fore
SplineSet
75 0 m 13
 75 700 l 17
 175 700 l 1
 575 500 l 1
 575 700 l 1
 675 700 l 1
 675 400 l 1
 575 400 l 1
 175 600 l 1
 175 0 l 1
 75 0 l 13
325 800 m 29
 325 1000 l 29
 425 1000 l 29
 425 800 l 29
 325 800 l 29
75 -300 m 25
 75 -200 l 25
 375 -100 l 25
 675 -200 l 25
 675 -300 l 25
 375 -200 l 25
 75 -300 l 25
EndSplineSet
Ligature2: "'liga' Standard Ligatures in Latin lookup 176 subtable" L I emphasis
EndChar

StartChar: L_Iacute_emphasis
Encoding: 173 -1 172
Width: 750
VWidth: 0
Flags: HW
LayerCount: 2
Fore
SplineSet
75 0 m 13
 75 700 l 17
 175 700 l 1
 575 500 l 1
 575 700 l 1
 675 700 l 1
 675 400 l 1
 575 400 l 1
 175 600 l 1
 175 0 l 1
 75 0 l 13
75 800 m 1
 75 900 l 1
 375 1000 l 1
 675 900 l 1
 675 800 l 1
 375 900 l 1
 75 800 l 1
75 -300 m 25
 75 -200 l 25
 375 -100 l 25
 675 -200 l 25
 675 -300 l 25
 375 -200 l 25
 75 -300 l 25
EndSplineSet
Ligature2: "'liga' Standard Ligatures in Latin lookup 176 subtable" L Iacute emphasis
EndChar

StartChar: L_O_emphasis
Encoding: 174 -1 173
Width: 750
VWidth: 0
Flags: HW
LayerCount: 2
Fore
SplineSet
75 0 m 13
 75 700 l 17
 175 700 l 1
 575 500 l 1
 575 700 l 1
 675 700 l 1
 675 400 l 1
 575 400 l 1
 175 600 l 1
 175 0 l 1
 75 0 l 13
175 950 m 29
 175 850 l 29
 575 850 l 29
 575 950 l 29
 175 950 l 29
75 800 m 29
 75 1000 l 29
 675 1000 l 29
 675 800 l 29
 75 800 l 29
75 -300 m 25
 75 -200 l 25
 375 -100 l 25
 675 -200 l 25
 675 -300 l 25
 375 -200 l 25
 75 -300 l 25
EndSplineSet
Ligature2: "'liga' Standard Ligatures in Latin lookup 176 subtable" L O emphasis
EndChar

StartChar: L_Oacute_emphasis
Encoding: 175 -1 174
Width: 750
VWidth: 0
Flags: HW
LayerCount: 2
Fore
SplineSet
75 0 m 13
 75 700 l 17
 175 700 l 1
 575 500 l 1
 575 700 l 1
 675 700 l 1
 675 400 l 1
 575 400 l 1
 175 600 l 1
 175 0 l 1
 75 0 l 13
75 800 m 17
 75 850 l 1
 575 850 l 1
 575 950 l 1
 75 950 l 1
 75 1000 l 9
 675 1000 l 25
 675 800 l 25
 75 800 l 17
75 -300 m 25
 75 -200 l 25
 375 -100 l 25
 675 -200 l 25
 675 -300 l 25
 375 -200 l 25
 75 -300 l 25
EndSplineSet
Ligature2: "'liga' Standard Ligatures in Latin lookup 176 subtable" L Oacute emphasis
EndChar

StartChar: L_U_emphasis
Encoding: 176 -1 175
Width: 750
VWidth: 0
Flags: HW
LayerCount: 2
Fore
SplineSet
75 0 m 13
 75 700 l 17
 175 700 l 1
 575 500 l 1
 575 700 l 1
 675 700 l 1
 675 400 l 1
 575 400 l 1
 175 600 l 1
 175 0 l 1
 75 0 l 13
75 900 m 13
 75 1000 l 17
 375 900 l 1
 675 1000 l 9
 675 900 l 17
 375 800 l 1
 75 900 l 13
75 -300 m 25
 75 -200 l 25
 375 -100 l 25
 675 -200 l 25
 675 -300 l 25
 375 -200 l 25
 75 -300 l 25
EndSplineSet
Ligature2: "'liga' Standard Ligatures in Latin lookup 176 subtable" L U emphasis
EndChar

StartChar: L_Uacute_emphasis
Encoding: 177 -1 176
Width: 750
VWidth: 0
Flags: HW
LayerCount: 2
Fore
SplineSet
75 0 m 13
 75 700 l 17
 175 700 l 1
 575 500 l 1
 575 700 l 1
 675 700 l 1
 675 400 l 1
 575 400 l 1
 175 600 l 1
 175 0 l 1
 75 0 l 13
75 800 m 9
 75 900 l 17
 275 1000 l 1
 475 900 l 1
 675 1000 l 9
 675 900 l 17
 475 800 l 1
 275 900 l 1
 75 800 l 9
75 -300 m 25
 75 -200 l 25
 375 -100 l 25
 675 -200 l 25
 675 -300 l 25
 375 -200 l 25
 75 -300 l 25
EndSplineSet
Ligature2: "'liga' Standard Ligatures in Latin lookup 176 subtable" L Uacute emphasis
EndChar

StartChar: L_emphasis
Encoding: 178 -1 177
Width: 750
VWidth: 0
Flags: HW
LayerCount: 2
Fore
SplineSet
75 0 m 13
 75 700 l 17
 175 700 l 1
 575 500 l 1
 575 700 l 1
 675 700 l 1
 675 400 l 1
 575 400 l 1
 175 600 l 1
 175 0 l 1
 75 0 l 13
75 -300 m 25
 75 -200 l 25
 375 -100 l 25
 675 -200 l 25
 675 -300 l 25
 375 -200 l 25
 75 -300 l 25
EndSplineSet
Ligature2: "'liga' Standard Ligatures in Latin lookup 176 subtable" L emphasis
EndChar

StartChar: M_A_emphasis
Encoding: 179 -1 178
Width: 750
VWidth: 0
Flags: HW
LayerCount: 2
Fore
SplineSet
75 0 m 1
 325 700 l 1
 425 700 l 1
 675 0 l 1
 575 0 l 1
 375 600 l 1
 175 0 l 5
 75 0 l 1
75 800 m 25
 75 900 l 25
 675 900 l 29
 675 800 l 25
 75 800 l 25
75 -300 m 25
 75 -200 l 25
 375 -100 l 25
 675 -200 l 25
 675 -300 l 25
 375 -200 l 25
 75 -300 l 25
EndSplineSet
Ligature2: "'liga' Standard Ligatures in Latin lookup 176 subtable" M A emphasis
EndChar

StartChar: M_E_emphasis
Encoding: 180 -1 179
Width: 750
VWidth: 0
Flags: HW
LayerCount: 2
Fore
SplineSet
75 0 m 1
 325 700 l 1
 425 700 l 1
 675 0 l 1
 575 0 l 1
 375 600 l 1
 175 0 l 5
 75 0 l 1
75 800 m 25
 75 900 l 25
 675 1000 l 25
 675 900 l 29
 75 800 l 25
75 -300 m 25
 75 -200 l 25
 375 -100 l 25
 675 -200 l 25
 675 -300 l 25
 375 -200 l 25
 75 -300 l 25
EndSplineSet
Ligature2: "'liga' Standard Ligatures in Latin lookup 176 subtable" M E emphasis
EndChar

StartChar: M_Eacute_emphasis
Encoding: 181 -1 180
Width: 750
VWidth: 0
Flags: HW
LayerCount: 2
Fore
SplineSet
75 0 m 1
 325 700 l 1
 425 700 l 1
 675 0 l 1
 575 0 l 1
 375 600 l 1
 175 0 l 5
 75 0 l 1
75 900 m 29
 75 1000 l 29
 675 900 l 29
 675 800 l 29
 75 900 l 29
75 -300 m 25
 75 -200 l 25
 375 -100 l 25
 675 -200 l 25
 675 -300 l 25
 375 -200 l 25
 75 -300 l 25
EndSplineSet
Ligature2: "'liga' Standard Ligatures in Latin lookup 176 subtable" M Eacute emphasis
EndChar

StartChar: M_I_emphasis
Encoding: 182 -1 181
Width: 750
VWidth: 0
Flags: HW
LayerCount: 2
Fore
SplineSet
75 0 m 1
 325 700 l 1
 425 700 l 1
 675 0 l 1
 575 0 l 1
 375 600 l 1
 175 0 l 5
 75 0 l 1
325 800 m 29
 325 1000 l 29
 425 1000 l 29
 425 800 l 29
 325 800 l 29
75 -300 m 25
 75 -200 l 25
 375 -100 l 25
 675 -200 l 25
 675 -300 l 25
 375 -200 l 25
 75 -300 l 25
EndSplineSet
Ligature2: "'liga' Standard Ligatures in Latin lookup 176 subtable" M I emphasis
EndChar

StartChar: M_Iacute_emphasis
Encoding: 183 -1 182
Width: 750
VWidth: 0
Flags: HW
LayerCount: 2
Fore
SplineSet
75 0 m 1
 325 700 l 1
 425 700 l 1
 675 0 l 1
 575 0 l 1
 375 600 l 1
 175 0 l 5
 75 0 l 1
75 800 m 1
 75 900 l 1
 375 1000 l 1
 675 900 l 1
 675 800 l 1
 375 900 l 1
 75 800 l 1
75 -300 m 25
 75 -200 l 25
 375 -100 l 25
 675 -200 l 25
 675 -300 l 25
 375 -200 l 25
 75 -300 l 25
EndSplineSet
Ligature2: "'liga' Standard Ligatures in Latin lookup 176 subtable" M Iacute emphasis
EndChar

StartChar: M_O_emphasis
Encoding: 184 -1 183
Width: 750
VWidth: 0
Flags: HW
LayerCount: 2
Fore
SplineSet
75 0 m 1
 325 700 l 1
 425 700 l 1
 675 0 l 1
 575 0 l 1
 375 600 l 1
 175 0 l 5
 75 0 l 1
175 950 m 29
 175 850 l 29
 575 850 l 29
 575 950 l 29
 175 950 l 29
75 800 m 29
 75 1000 l 29
 675 1000 l 29
 675 800 l 29
 75 800 l 29
75 -300 m 25
 75 -200 l 25
 375 -100 l 25
 675 -200 l 25
 675 -300 l 25
 375 -200 l 25
 75 -300 l 25
EndSplineSet
Ligature2: "'liga' Standard Ligatures in Latin lookup 176 subtable" M O emphasis
EndChar

StartChar: M_Oacute_emphasis
Encoding: 185 -1 184
Width: 750
VWidth: 0
Flags: HW
LayerCount: 2
Fore
SplineSet
75 0 m 1
 325 700 l 1
 425 700 l 1
 675 0 l 1
 575 0 l 1
 375 600 l 1
 175 0 l 5
 75 0 l 1
75 800 m 17
 75 850 l 1
 575 850 l 1
 575 950 l 1
 75 950 l 1
 75 1000 l 9
 675 1000 l 25
 675 800 l 25
 75 800 l 17
75 -300 m 25
 75 -200 l 25
 375 -100 l 25
 675 -200 l 25
 675 -300 l 25
 375 -200 l 25
 75 -300 l 25
EndSplineSet
Ligature2: "'liga' Standard Ligatures in Latin lookup 176 subtable" M Oacute emphasis
EndChar

StartChar: M_U_emphasis
Encoding: 186 -1 185
Width: 750
VWidth: 0
Flags: HW
LayerCount: 2
Fore
SplineSet
75 0 m 1
 325 700 l 1
 425 700 l 1
 675 0 l 1
 575 0 l 1
 375 600 l 1
 175 0 l 5
 75 0 l 1
75 900 m 13
 75 1000 l 17
 375 900 l 1
 675 1000 l 9
 675 900 l 17
 375 800 l 1
 75 900 l 13
75 -300 m 25
 75 -200 l 25
 375 -100 l 25
 675 -200 l 25
 675 -300 l 25
 375 -200 l 25
 75 -300 l 25
EndSplineSet
Ligature2: "'liga' Standard Ligatures in Latin lookup 176 subtable" M U emphasis
EndChar

StartChar: M_Uacute_emphasis
Encoding: 187 -1 186
Width: 750
VWidth: 0
Flags: HW
LayerCount: 2
Fore
SplineSet
75 0 m 1
 325 700 l 1
 425 700 l 1
 675 0 l 1
 575 0 l 1
 375 600 l 1
 175 0 l 5
 75 0 l 1
75 800 m 9
 75 900 l 17
 275 1000 l 1
 475 900 l 1
 675 1000 l 9
 675 900 l 17
 475 800 l 1
 275 900 l 1
 75 800 l 9
75 -300 m 25
 75 -200 l 25
 375 -100 l 25
 675 -200 l 25
 675 -300 l 25
 375 -200 l 25
 75 -300 l 25
EndSplineSet
Ligature2: "'liga' Standard Ligatures in Latin lookup 176 subtable" M Uacute emphasis
EndChar

StartChar: M_emphasis
Encoding: 188 -1 187
Width: 750
VWidth: 0
Flags: HW
LayerCount: 2
Fore
SplineSet
75 0 m 1
 325 700 l 1
 425 700 l 1
 675 0 l 1
 575 0 l 1
 375 600 l 1
 175 0 l 5
 75 0 l 1
75 -300 m 25
 75 -200 l 25
 375 -100 l 25
 675 -200 l 25
 675 -300 l 25
 375 -200 l 25
 75 -300 l 25
EndSplineSet
Ligature2: "'liga' Standard Ligatures in Latin lookup 176 subtable" M emphasis
EndChar

StartChar: N_A_emphasis
Encoding: 189 -1 188
Width: 750
VWidth: 0
Flags: HW
LayerCount: 2
Fore
SplineSet
325 0 m 5
 75 700 l 1
 175 700 l 1
 375 100 l 1
 575 700 l 1
 675 700 l 1
 425 0 l 1
 325 0 l 5
75 800 m 25
 75 900 l 25
 675 900 l 29
 675 800 l 25
 75 800 l 25
75 -300 m 25
 75 -200 l 25
 375 -100 l 25
 675 -200 l 25
 675 -300 l 25
 375 -200 l 25
 75 -300 l 25
EndSplineSet
Ligature2: "'liga' Standard Ligatures in Latin lookup 176 subtable" N A emphasis
EndChar

StartChar: N_E_emphasis
Encoding: 190 -1 189
Width: 750
VWidth: 0
Flags: HW
LayerCount: 2
Fore
SplineSet
325 0 m 5
 75 700 l 1
 175 700 l 1
 375 100 l 1
 575 700 l 1
 675 700 l 1
 425 0 l 1
 325 0 l 5
75 800 m 25
 75 900 l 25
 675 1000 l 25
 675 900 l 29
 75 800 l 25
75 -300 m 25
 75 -200 l 25
 375 -100 l 25
 675 -200 l 25
 675 -300 l 25
 375 -200 l 25
 75 -300 l 25
EndSplineSet
Ligature2: "'liga' Standard Ligatures in Latin lookup 176 subtable" N E emphasis
EndChar

StartChar: N_Eacute_emphasis
Encoding: 191 -1 190
Width: 750
VWidth: 0
Flags: HW
LayerCount: 2
Fore
SplineSet
325 0 m 5
 75 700 l 1
 175 700 l 1
 375 100 l 1
 575 700 l 1
 675 700 l 1
 425 0 l 1
 325 0 l 5
75 900 m 29
 75 1000 l 29
 675 900 l 29
 675 800 l 29
 75 900 l 29
75 -300 m 25
 75 -200 l 25
 375 -100 l 25
 675 -200 l 25
 675 -300 l 25
 375 -200 l 25
 75 -300 l 25
EndSplineSet
Ligature2: "'liga' Standard Ligatures in Latin lookup 176 subtable" N Eacute emphasis
EndChar

StartChar: N_I_emphasis
Encoding: 192 -1 191
Width: 750
VWidth: 0
Flags: HW
LayerCount: 2
Fore
SplineSet
325 0 m 5
 75 700 l 1
 175 700 l 1
 375 100 l 1
 575 700 l 1
 675 700 l 1
 425 0 l 1
 325 0 l 5
325 800 m 29
 325 1000 l 29
 425 1000 l 29
 425 800 l 29
 325 800 l 29
75 -300 m 25
 75 -200 l 25
 375 -100 l 25
 675 -200 l 25
 675 -300 l 25
 375 -200 l 25
 75 -300 l 25
EndSplineSet
Ligature2: "'liga' Standard Ligatures in Latin lookup 176 subtable" N I emphasis
EndChar

StartChar: N_Iacute_emphasis
Encoding: 193 -1 192
Width: 750
VWidth: 0
Flags: HW
LayerCount: 2
Fore
SplineSet
325 0 m 5
 75 700 l 1
 175 700 l 1
 375 100 l 1
 575 700 l 1
 675 700 l 1
 425 0 l 1
 325 0 l 5
75 800 m 1
 75 900 l 1
 375 1000 l 1
 675 900 l 1
 675 800 l 1
 375 900 l 1
 75 800 l 1
75 -300 m 25
 75 -200 l 25
 375 -100 l 25
 675 -200 l 25
 675 -300 l 25
 375 -200 l 25
 75 -300 l 25
EndSplineSet
Ligature2: "'liga' Standard Ligatures in Latin lookup 176 subtable" N Iacute emphasis
EndChar

StartChar: N_O_emphasis
Encoding: 194 -1 193
Width: 750
VWidth: 0
Flags: HW
LayerCount: 2
Fore
SplineSet
325 0 m 5
 75 700 l 1
 175 700 l 1
 375 100 l 1
 575 700 l 1
 675 700 l 1
 425 0 l 1
 325 0 l 5
175 950 m 29
 175 850 l 29
 575 850 l 29
 575 950 l 29
 175 950 l 29
75 800 m 29
 75 1000 l 29
 675 1000 l 29
 675 800 l 29
 75 800 l 29
75 -300 m 25
 75 -200 l 25
 375 -100 l 25
 675 -200 l 25
 675 -300 l 25
 375 -200 l 25
 75 -300 l 25
EndSplineSet
Ligature2: "'liga' Standard Ligatures in Latin lookup 176 subtable" N O emphasis
EndChar

StartChar: N_Oacute_emphasis
Encoding: 195 -1 194
Width: 750
VWidth: 0
Flags: HW
LayerCount: 2
Fore
SplineSet
325 0 m 5
 75 700 l 1
 175 700 l 1
 375 100 l 1
 575 700 l 1
 675 700 l 1
 425 0 l 1
 325 0 l 5
75 800 m 17
 75 850 l 1
 575 850 l 1
 575 950 l 1
 75 950 l 1
 75 1000 l 9
 675 1000 l 25
 675 800 l 25
 75 800 l 17
75 -300 m 25
 75 -200 l 25
 375 -100 l 25
 675 -200 l 25
 675 -300 l 25
 375 -200 l 25
 75 -300 l 25
EndSplineSet
Ligature2: "'liga' Standard Ligatures in Latin lookup 176 subtable" N Oacute emphasis
EndChar

StartChar: N_U_emphasis
Encoding: 196 -1 195
Width: 750
VWidth: 0
Flags: HW
LayerCount: 2
Fore
SplineSet
325 0 m 5
 75 700 l 1
 175 700 l 1
 375 100 l 1
 575 700 l 1
 675 700 l 1
 425 0 l 1
 325 0 l 5
75 900 m 13
 75 1000 l 17
 375 900 l 1
 675 1000 l 9
 675 900 l 17
 375 800 l 1
 75 900 l 13
75 -300 m 25
 75 -200 l 25
 375 -100 l 25
 675 -200 l 25
 675 -300 l 25
 375 -200 l 25
 75 -300 l 25
EndSplineSet
Ligature2: "'liga' Standard Ligatures in Latin lookup 176 subtable" N U emphasis
EndChar

StartChar: N_Uacute_emphasis
Encoding: 197 -1 196
Width: 750
VWidth: 0
Flags: HW
LayerCount: 2
Fore
SplineSet
325 0 m 5
 75 700 l 1
 175 700 l 1
 375 100 l 1
 575 700 l 1
 675 700 l 1
 425 0 l 1
 325 0 l 5
75 800 m 9
 75 900 l 17
 275 1000 l 1
 475 900 l 1
 675 1000 l 9
 675 900 l 17
 475 800 l 1
 275 900 l 1
 75 800 l 9
75 -300 m 25
 75 -200 l 25
 375 -100 l 25
 675 -200 l 25
 675 -300 l 25
 375 -200 l 25
 75 -300 l 25
EndSplineSet
Ligature2: "'liga' Standard Ligatures in Latin lookup 176 subtable" N Uacute emphasis
EndChar

StartChar: N_emphasis
Encoding: 198 -1 197
Width: 750
VWidth: 0
Flags: HW
LayerCount: 2
Fore
SplineSet
325 0 m 5
 75 700 l 1
 175 700 l 1
 375 100 l 1
 575 700 l 1
 675 700 l 1
 425 0 l 1
 325 0 l 5
75 -300 m 25
 75 -200 l 25
 375 -100 l 25
 675 -200 l 25
 675 -300 l 25
 375 -200 l 25
 75 -300 l 25
EndSplineSet
Ligature2: "'liga' Standard Ligatures in Latin lookup 176 subtable" N emphasis
EndChar

StartChar: Eng_A_emphasis
Encoding: 199 -1 198
Width: 750
VWidth: 0
Flags: HW
LayerCount: 2
Fore
SplineSet
75 0 m 17
 75 100 l 1
 325 100 l 1
 325 700 l 1
 425 700 l 1
 425 100 l 1
 675 100 l 5
 675 0 l 9
 75 0 l 17
75 800 m 25
 75 900 l 25
 675 900 l 29
 675 800 l 25
 75 800 l 25
75 -300 m 25
 75 -200 l 25
 375 -100 l 25
 675 -200 l 25
 675 -300 l 25
 375 -200 l 25
 75 -300 l 25
EndSplineSet
Ligature2: "'liga' Standard Ligatures in Latin lookup 176 subtable" Eng A emphasis
EndChar

StartChar: Eng_E_emphasis
Encoding: 200 -1 199
Width: 750
VWidth: 0
Flags: HW
LayerCount: 2
Fore
SplineSet
75 0 m 17
 75 100 l 1
 325 100 l 1
 325 700 l 1
 425 700 l 1
 425 100 l 1
 675 100 l 5
 675 0 l 9
 75 0 l 17
75 800 m 25
 75 900 l 25
 675 1000 l 25
 675 900 l 29
 75 800 l 25
75 -300 m 25
 75 -200 l 25
 375 -100 l 25
 675 -200 l 25
 675 -300 l 25
 375 -200 l 25
 75 -300 l 25
EndSplineSet
Ligature2: "'liga' Standard Ligatures in Latin lookup 176 subtable" Eng E emphasis
EndChar

StartChar: Eng_Eacute_emphasis
Encoding: 201 -1 200
Width: 750
VWidth: 0
Flags: HW
LayerCount: 2
Fore
SplineSet
75 0 m 17
 75 100 l 1
 325 100 l 1
 325 700 l 1
 425 700 l 1
 425 100 l 1
 675 100 l 5
 675 0 l 9
 75 0 l 17
75 900 m 29
 75 1000 l 29
 675 900 l 29
 675 800 l 29
 75 900 l 29
75 -300 m 25
 75 -200 l 25
 375 -100 l 25
 675 -200 l 25
 675 -300 l 25
 375 -200 l 25
 75 -300 l 25
EndSplineSet
Ligature2: "'liga' Standard Ligatures in Latin lookup 176 subtable" Eng Eacute emphasis
EndChar

StartChar: Eng_I_emphasis
Encoding: 202 -1 201
Width: 750
VWidth: 0
Flags: HW
LayerCount: 2
Fore
SplineSet
75 0 m 17
 75 100 l 1
 325 100 l 1
 325 700 l 1
 425 700 l 1
 425 100 l 1
 675 100 l 5
 675 0 l 9
 75 0 l 17
325 800 m 29
 325 1000 l 29
 425 1000 l 29
 425 800 l 29
 325 800 l 29
75 -300 m 25
 75 -200 l 25
 375 -100 l 25
 675 -200 l 25
 675 -300 l 25
 375 -200 l 25
 75 -300 l 25
EndSplineSet
Ligature2: "'liga' Standard Ligatures in Latin lookup 176 subtable" Eng I emphasis
EndChar

StartChar: Eng_Iacute_emphasis
Encoding: 203 -1 202
Width: 750
VWidth: 0
Flags: HW
LayerCount: 2
Fore
SplineSet
75 0 m 17
 75 100 l 1
 325 100 l 1
 325 700 l 1
 425 700 l 1
 425 100 l 1
 675 100 l 5
 675 0 l 9
 75 0 l 17
75 800 m 1
 75 900 l 1
 375 1000 l 1
 675 900 l 1
 675 800 l 1
 375 900 l 1
 75 800 l 1
75 -300 m 25
 75 -200 l 25
 375 -100 l 25
 675 -200 l 25
 675 -300 l 25
 375 -200 l 25
 75 -300 l 25
EndSplineSet
Ligature2: "'liga' Standard Ligatures in Latin lookup 176 subtable" Eng Iacute emphasis
EndChar

StartChar: Eng_O_emphasis
Encoding: 204 -1 203
Width: 750
VWidth: 0
Flags: HW
LayerCount: 2
Fore
SplineSet
75 0 m 17
 75 100 l 1
 325 100 l 1
 325 700 l 1
 425 700 l 1
 425 100 l 1
 675 100 l 5
 675 0 l 9
 75 0 l 17
175 950 m 29
 175 850 l 29
 575 850 l 29
 575 950 l 29
 175 950 l 29
75 800 m 29
 75 1000 l 29
 675 1000 l 29
 675 800 l 29
 75 800 l 29
75 -300 m 25
 75 -200 l 25
 375 -100 l 25
 675 -200 l 25
 675 -300 l 25
 375 -200 l 25
 75 -300 l 25
EndSplineSet
Ligature2: "'liga' Standard Ligatures in Latin lookup 176 subtable" Eng O emphasis
EndChar

StartChar: Eng_Oacute_emphasis
Encoding: 205 -1 204
Width: 750
VWidth: 0
Flags: HW
LayerCount: 2
Fore
SplineSet
75 0 m 17
 75 100 l 1
 325 100 l 1
 325 700 l 1
 425 700 l 1
 425 100 l 1
 675 100 l 5
 675 0 l 9
 75 0 l 17
75 800 m 17
 75 850 l 1
 575 850 l 1
 575 950 l 1
 75 950 l 1
 75 1000 l 9
 675 1000 l 25
 675 800 l 25
 75 800 l 17
75 -300 m 25
 75 -200 l 25
 375 -100 l 25
 675 -200 l 25
 675 -300 l 25
 375 -200 l 25
 75 -300 l 25
EndSplineSet
Ligature2: "'liga' Standard Ligatures in Latin lookup 176 subtable" Eng Oacute emphasis
EndChar

StartChar: Eng_U_emphasis
Encoding: 206 -1 205
Width: 750
VWidth: 0
Flags: HW
LayerCount: 2
Fore
SplineSet
75 0 m 17
 75 100 l 1
 325 100 l 1
 325 700 l 1
 425 700 l 1
 425 100 l 1
 675 100 l 5
 675 0 l 9
 75 0 l 17
75 900 m 13
 75 1000 l 17
 375 900 l 1
 675 1000 l 9
 675 900 l 17
 375 800 l 1
 75 900 l 13
75 -300 m 25
 75 -200 l 25
 375 -100 l 25
 675 -200 l 25
 675 -300 l 25
 375 -200 l 25
 75 -300 l 25
EndSplineSet
Ligature2: "'liga' Standard Ligatures in Latin lookup 176 subtable" Eng U emphasis
EndChar

StartChar: Eng_Uacute_emphasis
Encoding: 207 -1 206
Width: 750
VWidth: 0
Flags: HW
LayerCount: 2
Fore
SplineSet
75 0 m 17
 75 100 l 1
 325 100 l 1
 325 700 l 1
 425 700 l 1
 425 100 l 1
 675 100 l 5
 675 0 l 9
 75 0 l 17
75 800 m 9
 75 900 l 17
 275 1000 l 1
 475 900 l 1
 675 1000 l 9
 675 900 l 17
 475 800 l 1
 275 900 l 1
 75 800 l 9
75 -300 m 25
 75 -200 l 25
 375 -100 l 25
 675 -200 l 25
 675 -300 l 25
 375 -200 l 25
 75 -300 l 25
EndSplineSet
Ligature2: "'liga' Standard Ligatures in Latin lookup 176 subtable" Eng Uacute emphasis
EndChar

StartChar: Eng_emphasis
Encoding: 208 -1 207
Width: 750
VWidth: 0
Flags: HW
LayerCount: 2
Fore
SplineSet
75 0 m 17
 75 100 l 1
 325 100 l 1
 325 700 l 1
 425 700 l 1
 425 100 l 1
 675 100 l 5
 675 0 l 9
 75 0 l 17
75 -300 m 25
 75 -200 l 25
 375 -100 l 25
 675 -200 l 25
 675 -300 l 25
 375 -200 l 25
 75 -300 l 25
EndSplineSet
Ligature2: "'liga' Standard Ligatures in Latin lookup 176 subtable" Eng emphasis
EndChar

StartChar: P_A_emphasis
Encoding: 209 -1 208
Width: 750
VWidth: 0
Flags: HW
LayerCount: 2
Fore
SplineSet
175 500 m 25
 575 500 l 25
 575 600 l 25
 175 600 l 25
 175 500 l 25
75 0 m 17
 75 100 l 1
 575 100 l 1
 575 400 l 1
 75 400 l 5
 75 700 l 9
 675 700 l 25
 675 0 l 25
 75 0 l 17
75 800 m 25
 75 900 l 25
 675 900 l 29
 675 800 l 25
 75 800 l 25
75 -300 m 25
 75 -200 l 25
 375 -100 l 25
 675 -200 l 25
 675 -300 l 25
 375 -200 l 25
 75 -300 l 25
EndSplineSet
Ligature2: "'liga' Standard Ligatures in Latin lookup 176 subtable" P A emphasis
EndChar

StartChar: P_E_emphasis
Encoding: 210 -1 209
Width: 750
VWidth: 0
Flags: HW
LayerCount: 2
Fore
SplineSet
175 500 m 25
 575 500 l 25
 575 600 l 25
 175 600 l 25
 175 500 l 25
75 0 m 17
 75 100 l 1
 575 100 l 1
 575 400 l 1
 75 400 l 5
 75 700 l 9
 675 700 l 25
 675 0 l 25
 75 0 l 17
75 800 m 25
 75 900 l 25
 675 1000 l 25
 675 900 l 29
 75 800 l 25
75 -300 m 25
 75 -200 l 25
 375 -100 l 25
 675 -200 l 25
 675 -300 l 25
 375 -200 l 25
 75 -300 l 25
EndSplineSet
Ligature2: "'liga' Standard Ligatures in Latin lookup 176 subtable" P E emphasis
EndChar

StartChar: P_Eacute_emphasis
Encoding: 211 -1 210
Width: 750
VWidth: 0
Flags: HW
LayerCount: 2
Fore
SplineSet
175 500 m 25
 575 500 l 25
 575 600 l 25
 175 600 l 25
 175 500 l 25
75 0 m 17
 75 100 l 1
 575 100 l 1
 575 400 l 1
 75 400 l 5
 75 700 l 9
 675 700 l 25
 675 0 l 25
 75 0 l 17
75 900 m 29
 75 1000 l 29
 675 900 l 29
 675 800 l 29
 75 900 l 29
75 -300 m 25
 75 -200 l 25
 375 -100 l 25
 675 -200 l 25
 675 -300 l 25
 375 -200 l 25
 75 -300 l 25
EndSplineSet
Ligature2: "'liga' Standard Ligatures in Latin lookup 176 subtable" P Eacute emphasis
EndChar

StartChar: P_I_emphasis
Encoding: 212 -1 211
Width: 750
VWidth: 0
Flags: HW
LayerCount: 2
Fore
SplineSet
175 500 m 25
 575 500 l 25
 575 600 l 25
 175 600 l 25
 175 500 l 25
75 0 m 17
 75 100 l 1
 575 100 l 1
 575 400 l 1
 75 400 l 5
 75 700 l 9
 675 700 l 25
 675 0 l 25
 75 0 l 17
325 800 m 29
 325 1000 l 29
 425 1000 l 29
 425 800 l 29
 325 800 l 29
75 -300 m 25
 75 -200 l 25
 375 -100 l 25
 675 -200 l 25
 675 -300 l 25
 375 -200 l 25
 75 -300 l 25
EndSplineSet
Ligature2: "'liga' Standard Ligatures in Latin lookup 176 subtable" P I emphasis
EndChar

StartChar: P_Iacute_emphasis
Encoding: 213 -1 212
Width: 750
VWidth: 0
Flags: HW
LayerCount: 2
Fore
SplineSet
175 500 m 25
 575 500 l 25
 575 600 l 25
 175 600 l 25
 175 500 l 25
75 0 m 17
 75 100 l 1
 575 100 l 1
 575 400 l 1
 75 400 l 5
 75 700 l 9
 675 700 l 25
 675 0 l 25
 75 0 l 17
75 800 m 1
 75 900 l 1
 375 1000 l 1
 675 900 l 1
 675 800 l 1
 375 900 l 1
 75 800 l 1
75 -300 m 25
 75 -200 l 25
 375 -100 l 25
 675 -200 l 25
 675 -300 l 25
 375 -200 l 25
 75 -300 l 25
EndSplineSet
Ligature2: "'liga' Standard Ligatures in Latin lookup 176 subtable" P Iacute emphasis
EndChar

StartChar: P_O_emphasis
Encoding: 214 -1 213
Width: 750
VWidth: 0
Flags: HW
LayerCount: 2
Fore
SplineSet
175 500 m 25
 575 500 l 25
 575 600 l 25
 175 600 l 25
 175 500 l 25
75 0 m 17
 75 100 l 1
 575 100 l 1
 575 400 l 1
 75 400 l 5
 75 700 l 9
 675 700 l 25
 675 0 l 25
 75 0 l 17
175 950 m 29
 175 850 l 29
 575 850 l 29
 575 950 l 29
 175 950 l 29
75 800 m 29
 75 1000 l 29
 675 1000 l 29
 675 800 l 29
 75 800 l 29
75 -300 m 25
 75 -200 l 25
 375 -100 l 25
 675 -200 l 25
 675 -300 l 25
 375 -200 l 25
 75 -300 l 25
EndSplineSet
Ligature2: "'liga' Standard Ligatures in Latin lookup 176 subtable" P O emphasis
EndChar

StartChar: P_Oacute_emphasis
Encoding: 215 -1 214
Width: 750
VWidth: 0
Flags: HW
LayerCount: 2
Fore
SplineSet
175 500 m 25
 575 500 l 25
 575 600 l 25
 175 600 l 25
 175 500 l 25
75 0 m 17
 75 100 l 1
 575 100 l 1
 575 400 l 1
 75 400 l 5
 75 700 l 9
 675 700 l 25
 675 0 l 25
 75 0 l 17
75 800 m 17
 75 850 l 1
 575 850 l 1
 575 950 l 1
 75 950 l 1
 75 1000 l 9
 675 1000 l 25
 675 800 l 25
 75 800 l 17
75 -300 m 25
 75 -200 l 25
 375 -100 l 25
 675 -200 l 25
 675 -300 l 25
 375 -200 l 25
 75 -300 l 25
EndSplineSet
Ligature2: "'liga' Standard Ligatures in Latin lookup 176 subtable" P Oacute emphasis
EndChar

StartChar: P_U_emphasis
Encoding: 216 -1 215
Width: 750
VWidth: 0
Flags: HW
LayerCount: 2
Fore
SplineSet
175 500 m 25
 575 500 l 25
 575 600 l 25
 175 600 l 25
 175 500 l 25
75 0 m 17
 75 100 l 1
 575 100 l 1
 575 400 l 1
 75 400 l 5
 75 700 l 9
 675 700 l 25
 675 0 l 25
 75 0 l 17
75 900 m 13
 75 1000 l 17
 375 900 l 1
 675 1000 l 9
 675 900 l 17
 375 800 l 1
 75 900 l 13
75 -300 m 25
 75 -200 l 25
 375 -100 l 25
 675 -200 l 25
 675 -300 l 25
 375 -200 l 25
 75 -300 l 25
EndSplineSet
Ligature2: "'liga' Standard Ligatures in Latin lookup 176 subtable" P U emphasis
EndChar

StartChar: P_Uacute_emphasis
Encoding: 217 -1 216
Width: 750
VWidth: 0
Flags: HW
LayerCount: 2
Fore
SplineSet
175 500 m 25
 575 500 l 25
 575 600 l 25
 175 600 l 25
 175 500 l 25
75 0 m 17
 75 100 l 1
 575 100 l 1
 575 400 l 1
 75 400 l 5
 75 700 l 9
 675 700 l 25
 675 0 l 25
 75 0 l 17
75 800 m 9
 75 900 l 17
 275 1000 l 1
 475 900 l 1
 675 1000 l 9
 675 900 l 17
 475 800 l 1
 275 900 l 1
 75 800 l 9
75 -300 m 25
 75 -200 l 25
 375 -100 l 25
 675 -200 l 25
 675 -300 l 25
 375 -200 l 25
 75 -300 l 25
EndSplineSet
Ligature2: "'liga' Standard Ligatures in Latin lookup 176 subtable" P Uacute emphasis
EndChar

StartChar: P_emphasis
Encoding: 218 -1 217
Width: 750
VWidth: 0
Flags: HW
LayerCount: 2
Fore
SplineSet
175 500 m 25
 575 500 l 25
 575 600 l 25
 175 600 l 25
 175 500 l 25
75 0 m 17
 75 100 l 1
 575 100 l 1
 575 400 l 1
 75 400 l 5
 75 700 l 9
 675 700 l 25
 675 0 l 25
 75 0 l 17
75 -300 m 25
 75 -200 l 25
 375 -100 l 25
 675 -200 l 25
 675 -300 l 25
 375 -200 l 25
 75 -300 l 25
EndSplineSet
Ligature2: "'liga' Standard Ligatures in Latin lookup 176 subtable" P emphasis
EndChar

StartChar: R_A_emphasis
Encoding: 219 -1 218
Width: 750
VWidth: 0
Flags: HW
LayerCount: 2
Fore
SplineSet
75 0 m 1
 75 100 l 1
 575 300 l 1
 75 500 l 1
 75 700 l 9
 675 700 l 17
 675 600 l 1
 175 600 l 1
 675 400 l 1
 675 200 l 1
 75 0 l 1
75 800 m 25
 75 900 l 25
 675 900 l 29
 675 800 l 25
 75 800 l 25
75 -300 m 25
 75 -200 l 25
 375 -100 l 25
 675 -200 l 25
 675 -300 l 25
 375 -200 l 25
 75 -300 l 25
EndSplineSet
Ligature2: "'liga' Standard Ligatures in Latin lookup 176 subtable" R A emphasis
EndChar

StartChar: R_E_emphasis
Encoding: 220 -1 219
Width: 750
VWidth: 0
Flags: HW
LayerCount: 2
Fore
SplineSet
75 0 m 1
 75 100 l 1
 575 300 l 1
 75 500 l 1
 75 700 l 9
 675 700 l 17
 675 600 l 1
 175 600 l 1
 675 400 l 1
 675 200 l 1
 75 0 l 1
75 800 m 25
 75 900 l 25
 675 1000 l 25
 675 900 l 29
 75 800 l 25
75 -300 m 25
 75 -200 l 25
 375 -100 l 25
 675 -200 l 25
 675 -300 l 25
 375 -200 l 25
 75 -300 l 25
EndSplineSet
Ligature2: "'liga' Standard Ligatures in Latin lookup 176 subtable" R E emphasis
EndChar

StartChar: R_Eacute_emphasis
Encoding: 221 -1 220
Width: 750
VWidth: 0
Flags: HW
LayerCount: 2
Fore
SplineSet
75 0 m 1
 75 100 l 1
 575 300 l 1
 75 500 l 1
 75 700 l 9
 675 700 l 17
 675 600 l 1
 175 600 l 1
 675 400 l 1
 675 200 l 1
 75 0 l 1
75 900 m 29
 75 1000 l 29
 675 900 l 29
 675 800 l 29
 75 900 l 29
75 -300 m 25
 75 -200 l 25
 375 -100 l 25
 675 -200 l 25
 675 -300 l 25
 375 -200 l 25
 75 -300 l 25
EndSplineSet
Ligature2: "'liga' Standard Ligatures in Latin lookup 176 subtable" R Eacute emphasis
EndChar

StartChar: R_I_emphasis
Encoding: 222 -1 221
Width: 750
VWidth: 0
Flags: HW
LayerCount: 2
Fore
SplineSet
75 0 m 1
 75 100 l 1
 575 300 l 1
 75 500 l 1
 75 700 l 9
 675 700 l 17
 675 600 l 1
 175 600 l 1
 675 400 l 1
 675 200 l 1
 75 0 l 1
325 800 m 29
 325 1000 l 29
 425 1000 l 29
 425 800 l 29
 325 800 l 29
75 -300 m 25
 75 -200 l 25
 375 -100 l 25
 675 -200 l 25
 675 -300 l 25
 375 -200 l 25
 75 -300 l 25
EndSplineSet
Ligature2: "'liga' Standard Ligatures in Latin lookup 176 subtable" R I emphasis
EndChar

StartChar: R_Iacute_emphasis
Encoding: 223 -1 222
Width: 750
VWidth: 0
Flags: HW
LayerCount: 2
Fore
SplineSet
75 0 m 1
 75 100 l 1
 575 300 l 1
 75 500 l 1
 75 700 l 9
 675 700 l 17
 675 600 l 1
 175 600 l 1
 675 400 l 1
 675 200 l 1
 75 0 l 1
75 800 m 1
 75 900 l 1
 375 1000 l 1
 675 900 l 1
 675 800 l 1
 375 900 l 1
 75 800 l 1
75 -300 m 25
 75 -200 l 25
 375 -100 l 25
 675 -200 l 25
 675 -300 l 25
 375 -200 l 25
 75 -300 l 25
EndSplineSet
Ligature2: "'liga' Standard Ligatures in Latin lookup 176 subtable" R Iacute emphasis
EndChar

StartChar: R_O_emphasis
Encoding: 224 -1 223
Width: 750
VWidth: 0
Flags: HW
LayerCount: 2
Fore
SplineSet
75 0 m 1
 75 100 l 1
 575 300 l 1
 75 500 l 1
 75 700 l 9
 675 700 l 17
 675 600 l 1
 175 600 l 1
 675 400 l 1
 675 200 l 1
 75 0 l 1
175 950 m 29
 175 850 l 29
 575 850 l 29
 575 950 l 29
 175 950 l 29
75 800 m 29
 75 1000 l 29
 675 1000 l 29
 675 800 l 29
 75 800 l 29
75 -300 m 25
 75 -200 l 25
 375 -100 l 25
 675 -200 l 25
 675 -300 l 25
 375 -200 l 25
 75 -300 l 25
EndSplineSet
Ligature2: "'liga' Standard Ligatures in Latin lookup 176 subtable" R O emphasis
EndChar

StartChar: R_Oacute_emphasis
Encoding: 225 -1 224
Width: 750
VWidth: 0
Flags: HW
LayerCount: 2
Fore
SplineSet
75 0 m 1
 75 100 l 1
 575 300 l 1
 75 500 l 1
 75 700 l 9
 675 700 l 17
 675 600 l 1
 175 600 l 1
 675 400 l 1
 675 200 l 1
 75 0 l 1
75 800 m 17
 75 850 l 1
 575 850 l 1
 575 950 l 1
 75 950 l 1
 75 1000 l 9
 675 1000 l 25
 675 800 l 25
 75 800 l 17
75 -300 m 25
 75 -200 l 25
 375 -100 l 25
 675 -200 l 25
 675 -300 l 25
 375 -200 l 25
 75 -300 l 25
EndSplineSet
Ligature2: "'liga' Standard Ligatures in Latin lookup 176 subtable" R Oacute emphasis
EndChar

StartChar: R_U_emphasis
Encoding: 226 -1 225
Width: 750
VWidth: 0
Flags: HW
LayerCount: 2
Fore
SplineSet
75 0 m 1
 75 100 l 1
 575 300 l 1
 75 500 l 1
 75 700 l 9
 675 700 l 17
 675 600 l 1
 175 600 l 1
 675 400 l 1
 675 200 l 1
 75 0 l 1
75 900 m 13
 75 1000 l 17
 375 900 l 1
 675 1000 l 9
 675 900 l 17
 375 800 l 1
 75 900 l 13
75 -300 m 25
 75 -200 l 25
 375 -100 l 25
 675 -200 l 25
 675 -300 l 25
 375 -200 l 25
 75 -300 l 25
EndSplineSet
Ligature2: "'liga' Standard Ligatures in Latin lookup 176 subtable" R U emphasis
EndChar

StartChar: R_Uacute_emphasis
Encoding: 227 -1 226
Width: 750
VWidth: 0
Flags: HW
LayerCount: 2
Fore
SplineSet
75 0 m 1
 75 100 l 1
 575 300 l 1
 75 500 l 1
 75 700 l 9
 675 700 l 17
 675 600 l 1
 175 600 l 1
 675 400 l 1
 675 200 l 1
 75 0 l 1
75 800 m 9
 75 900 l 17
 275 1000 l 1
 475 900 l 1
 675 1000 l 9
 675 900 l 17
 475 800 l 1
 275 900 l 1
 75 800 l 9
75 -300 m 25
 75 -200 l 25
 375 -100 l 25
 675 -200 l 25
 675 -300 l 25
 375 -200 l 25
 75 -300 l 25
EndSplineSet
Ligature2: "'liga' Standard Ligatures in Latin lookup 176 subtable" R Uacute emphasis
EndChar

StartChar: R_emphasis
Encoding: 228 -1 227
Width: 750
VWidth: 0
Flags: HW
LayerCount: 2
Fore
SplineSet
75 0 m 1
 75 100 l 1
 575 300 l 1
 75 500 l 1
 75 700 l 9
 675 700 l 17
 675 600 l 1
 175 600 l 1
 675 400 l 1
 675 200 l 1
 75 0 l 1
75 -300 m 25
 75 -200 l 25
 375 -100 l 25
 675 -200 l 25
 675 -300 l 25
 375 -200 l 25
 75 -300 l 25
EndSplineSet
Ligature2: "'liga' Standard Ligatures in Latin lookup 176 subtable" R emphasis
EndChar

StartChar: S_A_emphasis
Encoding: 229 -1 228
Width: 750
VWidth: 0
Flags: HW
LayerCount: 2
Fore
SplineSet
75 0 m 1
 525 300 l 1
 75 300 l 1
 75 400 l 1
 575 700 l 9
 675 700 l 1
 225 400 l 1
 675 400 l 1
 675 300 l 1
 175 0 l 9
 75 0 l 1
75 800 m 25
 75 900 l 25
 675 900 l 29
 675 800 l 25
 75 800 l 25
75 -300 m 25
 75 -200 l 25
 375 -100 l 25
 675 -200 l 25
 675 -300 l 25
 375 -200 l 25
 75 -300 l 25
EndSplineSet
Ligature2: "'liga' Standard Ligatures in Latin lookup 176 subtable" S A emphasis
EndChar

StartChar: S_E_emphasis
Encoding: 230 -1 229
Width: 750
VWidth: 0
Flags: HW
LayerCount: 2
Fore
SplineSet
75 0 m 1
 525 300 l 1
 75 300 l 1
 75 400 l 1
 575 700 l 9
 675 700 l 1
 225 400 l 1
 675 400 l 1
 675 300 l 1
 175 0 l 9
 75 0 l 1
75 800 m 25
 75 900 l 25
 675 1000 l 25
 675 900 l 29
 75 800 l 25
75 -300 m 25
 75 -200 l 25
 375 -100 l 25
 675 -200 l 25
 675 -300 l 25
 375 -200 l 25
 75 -300 l 25
EndSplineSet
Ligature2: "'liga' Standard Ligatures in Latin lookup 176 subtable" S E emphasis
EndChar

StartChar: S_Eacute_emphasis
Encoding: 231 -1 230
Width: 750
VWidth: 0
Flags: HW
LayerCount: 2
Fore
SplineSet
75 0 m 1
 525 300 l 1
 75 300 l 1
 75 400 l 1
 575 700 l 9
 675 700 l 1
 225 400 l 1
 675 400 l 1
 675 300 l 1
 175 0 l 9
 75 0 l 1
75 900 m 29
 75 1000 l 29
 675 900 l 29
 675 800 l 29
 75 900 l 29
75 -300 m 25
 75 -200 l 25
 375 -100 l 25
 675 -200 l 25
 675 -300 l 25
 375 -200 l 25
 75 -300 l 25
EndSplineSet
Ligature2: "'liga' Standard Ligatures in Latin lookup 176 subtable" S Eacute emphasis
EndChar

StartChar: S_I_emphasis
Encoding: 232 -1 231
Width: 750
VWidth: 0
Flags: HW
LayerCount: 2
Fore
SplineSet
75 0 m 1
 525 300 l 1
 75 300 l 1
 75 400 l 1
 575 700 l 9
 675 700 l 1
 225 400 l 1
 675 400 l 1
 675 300 l 1
 175 0 l 9
 75 0 l 1
325 800 m 29
 325 1000 l 29
 425 1000 l 29
 425 800 l 29
 325 800 l 29
75 -300 m 25
 75 -200 l 25
 375 -100 l 25
 675 -200 l 25
 675 -300 l 25
 375 -200 l 25
 75 -300 l 25
EndSplineSet
Ligature2: "'liga' Standard Ligatures in Latin lookup 176 subtable" S I emphasis
EndChar

StartChar: S_Iacute_emphasis
Encoding: 233 -1 232
Width: 750
VWidth: 0
Flags: HW
LayerCount: 2
Fore
SplineSet
75 0 m 1
 525 300 l 1
 75 300 l 1
 75 400 l 1
 575 700 l 9
 675 700 l 1
 225 400 l 1
 675 400 l 1
 675 300 l 1
 175 0 l 9
 75 0 l 1
75 800 m 1
 75 900 l 1
 375 1000 l 1
 675 900 l 1
 675 800 l 1
 375 900 l 1
 75 800 l 1
75 -300 m 25
 75 -200 l 25
 375 -100 l 25
 675 -200 l 25
 675 -300 l 25
 375 -200 l 25
 75 -300 l 25
EndSplineSet
Ligature2: "'liga' Standard Ligatures in Latin lookup 176 subtable" S Iacute emphasis
EndChar

StartChar: S_O_emphasis
Encoding: 234 -1 233
Width: 750
VWidth: 0
Flags: HW
LayerCount: 2
Fore
SplineSet
75 0 m 1
 525 300 l 1
 75 300 l 1
 75 400 l 1
 575 700 l 9
 675 700 l 1
 225 400 l 1
 675 400 l 1
 675 300 l 1
 175 0 l 9
 75 0 l 1
175 950 m 29
 175 850 l 29
 575 850 l 29
 575 950 l 29
 175 950 l 29
75 800 m 29
 75 1000 l 29
 675 1000 l 29
 675 800 l 29
 75 800 l 29
75 -300 m 25
 75 -200 l 25
 375 -100 l 25
 675 -200 l 25
 675 -300 l 25
 375 -200 l 25
 75 -300 l 25
EndSplineSet
Ligature2: "'liga' Standard Ligatures in Latin lookup 176 subtable" S O emphasis
EndChar

StartChar: S_Oacute_emphasis
Encoding: 235 -1 234
Width: 750
VWidth: 0
Flags: HW
LayerCount: 2
Fore
SplineSet
75 0 m 1
 525 300 l 1
 75 300 l 1
 75 400 l 1
 575 700 l 9
 675 700 l 1
 225 400 l 1
 675 400 l 1
 675 300 l 1
 175 0 l 9
 75 0 l 1
75 800 m 17
 75 850 l 1
 575 850 l 1
 575 950 l 1
 75 950 l 1
 75 1000 l 9
 675 1000 l 25
 675 800 l 25
 75 800 l 17
75 -300 m 25
 75 -200 l 25
 375 -100 l 25
 675 -200 l 25
 675 -300 l 25
 375 -200 l 25
 75 -300 l 25
EndSplineSet
Ligature2: "'liga' Standard Ligatures in Latin lookup 176 subtable" S Oacute emphasis
EndChar

StartChar: S_U_emphasis
Encoding: 236 -1 235
Width: 750
VWidth: 0
Flags: HW
LayerCount: 2
Fore
SplineSet
75 0 m 1
 525 300 l 1
 75 300 l 1
 75 400 l 1
 575 700 l 9
 675 700 l 1
 225 400 l 1
 675 400 l 1
 675 300 l 1
 175 0 l 9
 75 0 l 1
75 900 m 13
 75 1000 l 17
 375 900 l 1
 675 1000 l 9
 675 900 l 17
 375 800 l 1
 75 900 l 13
75 -300 m 25
 75 -200 l 25
 375 -100 l 25
 675 -200 l 25
 675 -300 l 25
 375 -200 l 25
 75 -300 l 25
EndSplineSet
Ligature2: "'liga' Standard Ligatures in Latin lookup 176 subtable" S U emphasis
EndChar

StartChar: S_Uacute_emphasis
Encoding: 237 -1 236
Width: 750
VWidth: 0
Flags: HW
LayerCount: 2
Fore
SplineSet
75 0 m 1
 525 300 l 1
 75 300 l 1
 75 400 l 1
 575 700 l 9
 675 700 l 1
 225 400 l 1
 675 400 l 1
 675 300 l 1
 175 0 l 9
 75 0 l 1
75 800 m 9
 75 900 l 17
 275 1000 l 1
 475 900 l 1
 675 1000 l 9
 675 900 l 17
 475 800 l 1
 275 900 l 1
 75 800 l 9
75 -300 m 25
 75 -200 l 25
 375 -100 l 25
 675 -200 l 25
 675 -300 l 25
 375 -200 l 25
 75 -300 l 25
EndSplineSet
Ligature2: "'liga' Standard Ligatures in Latin lookup 176 subtable" S Uacute emphasis
EndChar

StartChar: S_emphasis
Encoding: 238 -1 237
Width: 750
VWidth: 0
Flags: HW
LayerCount: 2
Fore
SplineSet
75 0 m 1
 525 300 l 1
 75 300 l 1
 75 400 l 1
 575 700 l 9
 675 700 l 1
 225 400 l 1
 675 400 l 1
 675 300 l 1
 175 0 l 9
 75 0 l 1
75 -300 m 25
 75 -200 l 25
 375 -100 l 25
 675 -200 l 25
 675 -300 l 25
 375 -200 l 25
 75 -300 l 25
EndSplineSet
Ligature2: "'liga' Standard Ligatures in Latin lookup 176 subtable" S emphasis
EndChar

StartChar: Esh_A_emphasis
Encoding: 239 -1 238
Width: 750
VWidth: 0
Flags: HW
LayerCount: 2
Fore
SplineSet
75 200 m 29
 675 600 l 29
 675 500 l 29
 75 100 l 29
 75 200 l 29
75 0 m 1
 525 300 l 1
 75 300 l 1
 75 400 l 1
 575 700 l 9
 675 700 l 1
 225 400 l 1
 675 400 l 1
 675 300 l 1
 175 0 l 9
 75 0 l 1
75 800 m 25
 75 900 l 25
 675 900 l 29
 675 800 l 25
 75 800 l 25
75 -300 m 25
 75 -200 l 25
 375 -100 l 25
 675 -200 l 25
 675 -300 l 25
 375 -200 l 25
 75 -300 l 25
EndSplineSet
Ligature2: "'liga' Standard Ligatures in Latin lookup 176 subtable" Esh A emphasis
EndChar

StartChar: Esh_E_emphasis
Encoding: 240 -1 239
Width: 750
VWidth: 0
Flags: HW
LayerCount: 2
Fore
SplineSet
75 200 m 29
 675 600 l 29
 675 500 l 29
 75 100 l 29
 75 200 l 29
75 0 m 1
 525 300 l 1
 75 300 l 1
 75 400 l 1
 575 700 l 9
 675 700 l 1
 225 400 l 1
 675 400 l 1
 675 300 l 1
 175 0 l 9
 75 0 l 1
75 800 m 25
 75 900 l 25
 675 1000 l 25
 675 900 l 29
 75 800 l 25
75 -300 m 25
 75 -200 l 25
 375 -100 l 25
 675 -200 l 25
 675 -300 l 25
 375 -200 l 25
 75 -300 l 25
EndSplineSet
Ligature2: "'liga' Standard Ligatures in Latin lookup 176 subtable" Esh E emphasis
EndChar

StartChar: Esh_Eacute_emphasis
Encoding: 241 -1 240
Width: 750
VWidth: 0
Flags: HW
LayerCount: 2
Fore
SplineSet
75 200 m 29
 675 600 l 29
 675 500 l 29
 75 100 l 29
 75 200 l 29
75 0 m 1
 525 300 l 1
 75 300 l 1
 75 400 l 1
 575 700 l 9
 675 700 l 1
 225 400 l 1
 675 400 l 1
 675 300 l 1
 175 0 l 9
 75 0 l 1
75 900 m 29
 75 1000 l 29
 675 900 l 29
 675 800 l 29
 75 900 l 29
75 -300 m 25
 75 -200 l 25
 375 -100 l 25
 675 -200 l 25
 675 -300 l 25
 375 -200 l 25
 75 -300 l 25
EndSplineSet
Ligature2: "'liga' Standard Ligatures in Latin lookup 176 subtable" Esh Eacute emphasis
EndChar

StartChar: Esh_I_emphasis
Encoding: 242 -1 241
Width: 750
VWidth: 0
Flags: HW
LayerCount: 2
Fore
SplineSet
75 200 m 29
 675 600 l 29
 675 500 l 29
 75 100 l 29
 75 200 l 29
75 0 m 1
 525 300 l 1
 75 300 l 1
 75 400 l 1
 575 700 l 9
 675 700 l 1
 225 400 l 1
 675 400 l 1
 675 300 l 1
 175 0 l 9
 75 0 l 1
325 800 m 29
 325 1000 l 29
 425 1000 l 29
 425 800 l 29
 325 800 l 29
75 -300 m 25
 75 -200 l 25
 375 -100 l 25
 675 -200 l 25
 675 -300 l 25
 375 -200 l 25
 75 -300 l 25
EndSplineSet
Ligature2: "'liga' Standard Ligatures in Latin lookup 176 subtable" Esh I emphasis
EndChar

StartChar: Esh_Iacute_emphasis
Encoding: 243 -1 242
Width: 750
VWidth: 0
Flags: HW
LayerCount: 2
Fore
SplineSet
75 200 m 29
 675 600 l 29
 675 500 l 29
 75 100 l 29
 75 200 l 29
75 0 m 1
 525 300 l 1
 75 300 l 1
 75 400 l 1
 575 700 l 9
 675 700 l 1
 225 400 l 1
 675 400 l 1
 675 300 l 1
 175 0 l 9
 75 0 l 1
75 800 m 1
 75 900 l 1
 375 1000 l 1
 675 900 l 1
 675 800 l 1
 375 900 l 1
 75 800 l 1
75 -300 m 25
 75 -200 l 25
 375 -100 l 25
 675 -200 l 25
 675 -300 l 25
 375 -200 l 25
 75 -300 l 25
EndSplineSet
Ligature2: "'liga' Standard Ligatures in Latin lookup 176 subtable" Esh Iacute emphasis
EndChar

StartChar: Esh_O_emphasis
Encoding: 244 -1 243
Width: 750
VWidth: 0
Flags: HW
LayerCount: 2
Fore
SplineSet
75 200 m 29
 675 600 l 29
 675 500 l 29
 75 100 l 29
 75 200 l 29
75 0 m 1
 525 300 l 1
 75 300 l 1
 75 400 l 1
 575 700 l 9
 675 700 l 1
 225 400 l 1
 675 400 l 1
 675 300 l 1
 175 0 l 9
 75 0 l 1
175 950 m 29
 175 850 l 29
 575 850 l 29
 575 950 l 29
 175 950 l 29
75 800 m 29
 75 1000 l 29
 675 1000 l 29
 675 800 l 29
 75 800 l 29
75 -300 m 25
 75 -200 l 25
 375 -100 l 25
 675 -200 l 25
 675 -300 l 25
 375 -200 l 25
 75 -300 l 25
EndSplineSet
Ligature2: "'liga' Standard Ligatures in Latin lookup 176 subtable" Esh O emphasis
EndChar

StartChar: Esh_Oacute_emphasis
Encoding: 245 -1 244
Width: 750
VWidth: 0
Flags: HW
LayerCount: 2
Fore
SplineSet
75 200 m 29
 675 600 l 29
 675 500 l 29
 75 100 l 29
 75 200 l 29
75 0 m 1
 525 300 l 1
 75 300 l 1
 75 400 l 1
 575 700 l 9
 675 700 l 1
 225 400 l 1
 675 400 l 1
 675 300 l 1
 175 0 l 9
 75 0 l 1
75 800 m 17
 75 850 l 1
 575 850 l 1
 575 950 l 1
 75 950 l 1
 75 1000 l 9
 675 1000 l 25
 675 800 l 25
 75 800 l 17
75 -300 m 25
 75 -200 l 25
 375 -100 l 25
 675 -200 l 25
 675 -300 l 25
 375 -200 l 25
 75 -300 l 25
EndSplineSet
Ligature2: "'liga' Standard Ligatures in Latin lookup 176 subtable" Esh Oacute emphasis
EndChar

StartChar: Esh_U_emphasis
Encoding: 246 -1 245
Width: 750
VWidth: 0
Flags: HW
LayerCount: 2
Fore
SplineSet
75 200 m 29
 675 600 l 29
 675 500 l 29
 75 100 l 29
 75 200 l 29
75 0 m 1
 525 300 l 1
 75 300 l 1
 75 400 l 1
 575 700 l 9
 675 700 l 1
 225 400 l 1
 675 400 l 1
 675 300 l 1
 175 0 l 9
 75 0 l 1
75 900 m 13
 75 1000 l 17
 375 900 l 1
 675 1000 l 9
 675 900 l 17
 375 800 l 1
 75 900 l 13
75 -300 m 25
 75 -200 l 25
 375 -100 l 25
 675 -200 l 25
 675 -300 l 25
 375 -200 l 25
 75 -300 l 25
EndSplineSet
Ligature2: "'liga' Standard Ligatures in Latin lookup 176 subtable" Esh U emphasis
EndChar

StartChar: Esh_Uacute_emphasis
Encoding: 247 -1 246
Width: 750
VWidth: 0
Flags: HW
LayerCount: 2
Fore
SplineSet
75 200 m 29
 675 600 l 29
 675 500 l 29
 75 100 l 29
 75 200 l 29
75 0 m 1
 525 300 l 1
 75 300 l 1
 75 400 l 1
 575 700 l 9
 675 700 l 1
 225 400 l 1
 675 400 l 1
 675 300 l 1
 175 0 l 9
 75 0 l 1
75 800 m 9
 75 900 l 17
 275 1000 l 1
 475 900 l 1
 675 1000 l 9
 675 900 l 17
 475 800 l 1
 275 900 l 1
 75 800 l 9
75 -300 m 25
 75 -200 l 25
 375 -100 l 25
 675 -200 l 25
 675 -300 l 25
 375 -200 l 25
 75 -300 l 25
EndSplineSet
Ligature2: "'liga' Standard Ligatures in Latin lookup 176 subtable" Esh Uacute emphasis
EndChar

StartChar: Esh_emphasis
Encoding: 248 -1 247
Width: 750
VWidth: 0
Flags: HW
LayerCount: 2
Fore
SplineSet
75 200 m 29
 675 600 l 29
 675 500 l 29
 75 100 l 29
 75 200 l 29
75 0 m 1
 525 300 l 1
 75 300 l 1
 75 400 l 1
 575 700 l 9
 675 700 l 1
 225 400 l 1
 675 400 l 1
 675 300 l 1
 175 0 l 9
 75 0 l 1
75 -300 m 25
 75 -200 l 25
 375 -100 l 25
 675 -200 l 25
 675 -300 l 25
 375 -200 l 25
 75 -300 l 25
EndSplineSet
Ligature2: "'liga' Standard Ligatures in Latin lookup 176 subtable" Esh emphasis
EndChar

StartChar: T_A_emphasis
Encoding: 249 -1 248
Width: 750
VWidth: 0
Flags: HW
LayerCount: 2
Fore
SplineSet
225 100 m 25
 525 100 l 25
 375 550 l 29
 225 100 l 25
75 0 m 1
 325 700 l 1
 425 700 l 1
 675 0 l 1
 75 0 l 1
75 800 m 25
 75 900 l 25
 675 900 l 29
 675 800 l 25
 75 800 l 25
75 -300 m 25
 75 -200 l 25
 375 -100 l 25
 675 -200 l 25
 675 -300 l 25
 375 -200 l 25
 75 -300 l 25
EndSplineSet
Ligature2: "'liga' Standard Ligatures in Latin lookup 176 subtable" T A emphasis
EndChar

StartChar: T_E_emphasis
Encoding: 250 -1 249
Width: 750
VWidth: 0
Flags: HW
LayerCount: 2
Fore
SplineSet
225 100 m 25
 525 100 l 25
 375 550 l 29
 225 100 l 25
75 0 m 1
 325 700 l 1
 425 700 l 1
 675 0 l 1
 75 0 l 1
75 800 m 25
 75 900 l 25
 675 1000 l 25
 675 900 l 29
 75 800 l 25
75 -300 m 25
 75 -200 l 25
 375 -100 l 25
 675 -200 l 25
 675 -300 l 25
 375 -200 l 25
 75 -300 l 25
EndSplineSet
Ligature2: "'liga' Standard Ligatures in Latin lookup 176 subtable" T E emphasis
EndChar

StartChar: T_Eacute_emphasis
Encoding: 251 -1 250
Width: 750
VWidth: 0
Flags: HW
LayerCount: 2
Fore
SplineSet
225 100 m 25
 525 100 l 25
 375 550 l 29
 225 100 l 25
75 0 m 1
 325 700 l 1
 425 700 l 1
 675 0 l 1
 75 0 l 1
75 900 m 29
 75 1000 l 29
 675 900 l 29
 675 800 l 29
 75 900 l 29
75 -300 m 25
 75 -200 l 25
 375 -100 l 25
 675 -200 l 25
 675 -300 l 25
 375 -200 l 25
 75 -300 l 25
EndSplineSet
Ligature2: "'liga' Standard Ligatures in Latin lookup 176 subtable" T Eacute emphasis
EndChar

StartChar: T_I_emphasis
Encoding: 252 -1 251
Width: 750
VWidth: 0
Flags: HW
LayerCount: 2
Fore
SplineSet
225 100 m 25
 525 100 l 25
 375 550 l 29
 225 100 l 25
75 0 m 1
 325 700 l 1
 425 700 l 1
 675 0 l 1
 75 0 l 1
325 800 m 29
 325 1000 l 29
 425 1000 l 29
 425 800 l 29
 325 800 l 29
75 -300 m 25
 75 -200 l 25
 375 -100 l 25
 675 -200 l 25
 675 -300 l 25
 375 -200 l 25
 75 -300 l 25
EndSplineSet
Ligature2: "'liga' Standard Ligatures in Latin lookup 176 subtable" T I emphasis
EndChar

StartChar: T_Iacute_emphasis
Encoding: 253 -1 252
Width: 750
VWidth: 0
Flags: HW
LayerCount: 2
Fore
SplineSet
225 100 m 25
 525 100 l 25
 375 550 l 29
 225 100 l 25
75 0 m 1
 325 700 l 1
 425 700 l 1
 675 0 l 1
 75 0 l 1
75 800 m 1
 75 900 l 1
 375 1000 l 1
 675 900 l 1
 675 800 l 1
 375 900 l 1
 75 800 l 1
75 -300 m 25
 75 -200 l 25
 375 -100 l 25
 675 -200 l 25
 675 -300 l 25
 375 -200 l 25
 75 -300 l 25
EndSplineSet
Ligature2: "'liga' Standard Ligatures in Latin lookup 176 subtable" T Iacute emphasis
EndChar

StartChar: T_O_emphasis
Encoding: 254 -1 253
Width: 750
VWidth: 0
Flags: HW
LayerCount: 2
Fore
SplineSet
225 100 m 25
 525 100 l 25
 375 550 l 29
 225 100 l 25
75 0 m 1
 325 700 l 1
 425 700 l 1
 675 0 l 1
 75 0 l 1
175 950 m 29
 175 850 l 29
 575 850 l 29
 575 950 l 29
 175 950 l 29
75 800 m 29
 75 1000 l 29
 675 1000 l 29
 675 800 l 29
 75 800 l 29
75 -300 m 25
 75 -200 l 25
 375 -100 l 25
 675 -200 l 25
 675 -300 l 25
 375 -200 l 25
 75 -300 l 25
EndSplineSet
Ligature2: "'liga' Standard Ligatures in Latin lookup 176 subtable" T O emphasis
EndChar

StartChar: T_Oacute_emphasis
Encoding: 255 -1 254
Width: 750
VWidth: 0
Flags: HW
LayerCount: 2
Fore
SplineSet
225 100 m 25
 525 100 l 25
 375 550 l 29
 225 100 l 25
75 0 m 1
 325 700 l 1
 425 700 l 1
 675 0 l 1
 75 0 l 1
75 800 m 17
 75 850 l 1
 575 850 l 1
 575 950 l 1
 75 950 l 1
 75 1000 l 9
 675 1000 l 25
 675 800 l 25
 75 800 l 17
75 -300 m 25
 75 -200 l 25
 375 -100 l 25
 675 -200 l 25
 675 -300 l 25
 375 -200 l 25
 75 -300 l 25
EndSplineSet
Ligature2: "'liga' Standard Ligatures in Latin lookup 176 subtable" T Oacute emphasis
EndChar

StartChar: T_U_emphasis
Encoding: 256 -1 255
Width: 750
VWidth: 0
Flags: HW
LayerCount: 2
Fore
SplineSet
225 100 m 25
 525 100 l 25
 375 550 l 29
 225 100 l 25
75 0 m 1
 325 700 l 1
 425 700 l 1
 675 0 l 1
 75 0 l 1
75 900 m 13
 75 1000 l 17
 375 900 l 1
 675 1000 l 9
 675 900 l 17
 375 800 l 1
 75 900 l 13
75 -300 m 25
 75 -200 l 25
 375 -100 l 25
 675 -200 l 25
 675 -300 l 25
 375 -200 l 25
 75 -300 l 25
EndSplineSet
Ligature2: "'liga' Standard Ligatures in Latin lookup 176 subtable" T U emphasis
EndChar

StartChar: T_Uacute_emphasis
Encoding: 257 -1 256
Width: 750
VWidth: 0
Flags: HW
LayerCount: 2
Fore
SplineSet
225 100 m 25
 525 100 l 25
 375 550 l 29
 225 100 l 25
75 0 m 1
 325 700 l 1
 425 700 l 1
 675 0 l 1
 75 0 l 1
75 800 m 9
 75 900 l 17
 275 1000 l 1
 475 900 l 1
 675 1000 l 9
 675 900 l 17
 475 800 l 1
 275 900 l 1
 75 800 l 9
75 -300 m 25
 75 -200 l 25
 375 -100 l 25
 675 -200 l 25
 675 -300 l 25
 375 -200 l 25
 75 -300 l 25
EndSplineSet
Ligature2: "'liga' Standard Ligatures in Latin lookup 176 subtable" T Uacute emphasis
EndChar

StartChar: T_emphasis
Encoding: 258 -1 257
Width: 750
VWidth: 0
Flags: HW
LayerCount: 2
Fore
SplineSet
225 100 m 25
 525 100 l 25
 375 550 l 29
 225 100 l 25
75 0 m 1
 325 700 l 1
 425 700 l 1
 675 0 l 1
 75 0 l 1
75 -300 m 25
 75 -200 l 25
 375 -100 l 25
 675 -200 l 25
 675 -300 l 25
 375 -200 l 25
 75 -300 l 25
EndSplineSet
Ligature2: "'liga' Standard Ligatures in Latin lookup 176 subtable" T emphasis
EndChar

StartChar: Thorn_A_emphasis
Encoding: 259 -1 258
Width: 750
VWidth: 0
Flags: HW
LayerCount: 2
Fore
SplineSet
175 0 m 29
 225 100 l 25
 575 100 l 25
 575 300 l 25
 675 300 l 25
 675 0 l 25
 175 0 l 29
75 0 m 1
 525 300 l 1
 75 300 l 1
 75 400 l 1
 575 700 l 9
 675 700 l 1
 225 400 l 1
 675 400 l 1
 675 300 l 1
 175 0 l 9
 75 0 l 1
75 800 m 25
 75 900 l 25
 675 900 l 29
 675 800 l 25
 75 800 l 25
75 -300 m 25
 75 -200 l 25
 375 -100 l 25
 675 -200 l 25
 675 -300 l 25
 375 -200 l 25
 75 -300 l 25
EndSplineSet
Ligature2: "'liga' Standard Ligatures in Latin lookup 176 subtable" Thorn A emphasis
EndChar

StartChar: Thorn_E_emphasis
Encoding: 260 -1 259
Width: 750
VWidth: 0
Flags: HW
LayerCount: 2
Fore
SplineSet
175 0 m 29
 225 100 l 25
 575 100 l 25
 575 300 l 25
 675 300 l 25
 675 0 l 25
 175 0 l 29
75 0 m 1
 525 300 l 1
 75 300 l 1
 75 400 l 1
 575 700 l 9
 675 700 l 1
 225 400 l 1
 675 400 l 1
 675 300 l 1
 175 0 l 9
 75 0 l 1
75 800 m 25
 75 900 l 25
 675 1000 l 25
 675 900 l 29
 75 800 l 25
75 -300 m 25
 75 -200 l 25
 375 -100 l 25
 675 -200 l 25
 675 -300 l 25
 375 -200 l 25
 75 -300 l 25
EndSplineSet
Ligature2: "'liga' Standard Ligatures in Latin lookup 176 subtable" Thorn E emphasis
EndChar

StartChar: Thorn_Eacute_emphasis
Encoding: 261 -1 260
Width: 750
VWidth: 0
Flags: HW
LayerCount: 2
Fore
SplineSet
175 0 m 29
 225 100 l 25
 575 100 l 25
 575 300 l 25
 675 300 l 25
 675 0 l 25
 175 0 l 29
75 0 m 1
 525 300 l 1
 75 300 l 1
 75 400 l 1
 575 700 l 9
 675 700 l 1
 225 400 l 1
 675 400 l 1
 675 300 l 1
 175 0 l 9
 75 0 l 1
75 900 m 29
 75 1000 l 29
 675 900 l 29
 675 800 l 29
 75 900 l 29
75 -300 m 25
 75 -200 l 25
 375 -100 l 25
 675 -200 l 25
 675 -300 l 25
 375 -200 l 25
 75 -300 l 25
EndSplineSet
Ligature2: "'liga' Standard Ligatures in Latin lookup 176 subtable" Thorn Eacute emphasis
EndChar

StartChar: Thorn_I_emphasis
Encoding: 262 -1 261
Width: 750
VWidth: 0
Flags: HW
LayerCount: 2
Fore
SplineSet
175 0 m 29
 225 100 l 25
 575 100 l 25
 575 300 l 25
 675 300 l 25
 675 0 l 25
 175 0 l 29
75 0 m 1
 525 300 l 1
 75 300 l 1
 75 400 l 1
 575 700 l 9
 675 700 l 1
 225 400 l 1
 675 400 l 1
 675 300 l 1
 175 0 l 9
 75 0 l 1
325 800 m 29
 325 1000 l 29
 425 1000 l 29
 425 800 l 29
 325 800 l 29
75 -300 m 25
 75 -200 l 25
 375 -100 l 25
 675 -200 l 25
 675 -300 l 25
 375 -200 l 25
 75 -300 l 25
EndSplineSet
Ligature2: "'liga' Standard Ligatures in Latin lookup 176 subtable" Thorn I emphasis
EndChar

StartChar: Thorn_Iacute_emphasis
Encoding: 263 -1 262
Width: 750
VWidth: 0
Flags: HW
LayerCount: 2
Fore
SplineSet
175 0 m 29
 225 100 l 25
 575 100 l 25
 575 300 l 25
 675 300 l 25
 675 0 l 25
 175 0 l 29
75 0 m 1
 525 300 l 1
 75 300 l 1
 75 400 l 1
 575 700 l 9
 675 700 l 1
 225 400 l 1
 675 400 l 1
 675 300 l 1
 175 0 l 9
 75 0 l 1
75 800 m 1
 75 900 l 1
 375 1000 l 1
 675 900 l 1
 675 800 l 1
 375 900 l 1
 75 800 l 1
75 -300 m 25
 75 -200 l 25
 375 -100 l 25
 675 -200 l 25
 675 -300 l 25
 375 -200 l 25
 75 -300 l 25
EndSplineSet
Ligature2: "'liga' Standard Ligatures in Latin lookup 176 subtable" Thorn Iacute emphasis
EndChar

StartChar: Thorn_O_emphasis
Encoding: 264 -1 263
Width: 750
VWidth: 0
Flags: HW
LayerCount: 2
Fore
SplineSet
175 0 m 29
 225 100 l 25
 575 100 l 25
 575 300 l 25
 675 300 l 25
 675 0 l 25
 175 0 l 29
75 0 m 1
 525 300 l 1
 75 300 l 1
 75 400 l 1
 575 700 l 9
 675 700 l 1
 225 400 l 1
 675 400 l 1
 675 300 l 1
 175 0 l 9
 75 0 l 1
175 950 m 29
 175 850 l 29
 575 850 l 29
 575 950 l 29
 175 950 l 29
75 800 m 29
 75 1000 l 29
 675 1000 l 29
 675 800 l 29
 75 800 l 29
75 -300 m 25
 75 -200 l 25
 375 -100 l 25
 675 -200 l 25
 675 -300 l 25
 375 -200 l 25
 75 -300 l 25
EndSplineSet
Ligature2: "'liga' Standard Ligatures in Latin lookup 176 subtable" Thorn O emphasis
EndChar

StartChar: Thorn_Oacute_emphasis
Encoding: 265 -1 264
Width: 750
VWidth: 0
Flags: HW
LayerCount: 2
Fore
SplineSet
175 0 m 29
 225 100 l 25
 575 100 l 25
 575 300 l 25
 675 300 l 25
 675 0 l 25
 175 0 l 29
75 0 m 1
 525 300 l 1
 75 300 l 1
 75 400 l 1
 575 700 l 9
 675 700 l 1
 225 400 l 1
 675 400 l 1
 675 300 l 1
 175 0 l 9
 75 0 l 1
75 800 m 17
 75 850 l 1
 575 850 l 1
 575 950 l 1
 75 950 l 1
 75 1000 l 9
 675 1000 l 25
 675 800 l 25
 75 800 l 17
75 -300 m 25
 75 -200 l 25
 375 -100 l 25
 675 -200 l 25
 675 -300 l 25
 375 -200 l 25
 75 -300 l 25
EndSplineSet
Ligature2: "'liga' Standard Ligatures in Latin lookup 176 subtable" Thorn Oacute emphasis
EndChar

StartChar: Thorn_U_emphasis
Encoding: 266 -1 265
Width: 750
VWidth: 0
Flags: HW
LayerCount: 2
Fore
SplineSet
175 0 m 29
 225 100 l 25
 575 100 l 25
 575 300 l 25
 675 300 l 25
 675 0 l 25
 175 0 l 29
75 0 m 1
 525 300 l 1
 75 300 l 1
 75 400 l 1
 575 700 l 9
 675 700 l 1
 225 400 l 1
 675 400 l 1
 675 300 l 1
 175 0 l 9
 75 0 l 1
75 900 m 13
 75 1000 l 17
 375 900 l 1
 675 1000 l 9
 675 900 l 17
 375 800 l 1
 75 900 l 13
75 -300 m 25
 75 -200 l 25
 375 -100 l 25
 675 -200 l 25
 675 -300 l 25
 375 -200 l 25
 75 -300 l 25
EndSplineSet
Ligature2: "'liga' Standard Ligatures in Latin lookup 176 subtable" Thorn U emphasis
EndChar

StartChar: Thorn_Uacute_emphasis
Encoding: 267 -1 266
Width: 750
VWidth: 0
Flags: HW
LayerCount: 2
Fore
SplineSet
175 0 m 29
 225 100 l 25
 575 100 l 25
 575 300 l 25
 675 300 l 25
 675 0 l 25
 175 0 l 29
75 0 m 1
 525 300 l 1
 75 300 l 1
 75 400 l 1
 575 700 l 9
 675 700 l 1
 225 400 l 1
 675 400 l 1
 675 300 l 1
 175 0 l 9
 75 0 l 1
75 800 m 9
 75 900 l 17
 275 1000 l 1
 475 900 l 1
 675 1000 l 9
 675 900 l 17
 475 800 l 1
 275 900 l 1
 75 800 l 9
75 -300 m 25
 75 -200 l 25
 375 -100 l 25
 675 -200 l 25
 675 -300 l 25
 375 -200 l 25
 75 -300 l 25
EndSplineSet
Ligature2: "'liga' Standard Ligatures in Latin lookup 176 subtable" Thorn Uacute emphasis
EndChar

StartChar: Thorn_emphasis
Encoding: 268 -1 267
Width: 750
VWidth: 0
Flags: HW
LayerCount: 2
Fore
SplineSet
175 0 m 29
 225 100 l 25
 575 100 l 25
 575 300 l 25
 675 300 l 25
 675 0 l 25
 175 0 l 29
75 0 m 1
 525 300 l 1
 75 300 l 1
 75 400 l 1
 575 700 l 9
 675 700 l 1
 225 400 l 1
 675 400 l 1
 675 300 l 1
 175 0 l 9
 75 0 l 1
75 -300 m 25
 75 -200 l 25
 375 -100 l 25
 675 -200 l 25
 675 -300 l 25
 375 -200 l 25
 75 -300 l 25
EndSplineSet
Ligature2: "'liga' Standard Ligatures in Latin lookup 176 subtable" Thorn emphasis
EndChar

StartChar: V_A_emphasis
Encoding: 269 -1 268
Width: 750
VWidth: 0
Flags: HW
LayerCount: 2
Fore
SplineSet
325 600 m 29
 425 600 l 29
 425 500 l 29
 325 500 l 29
 325 600 l 29
175 600 m 25
 175 500 l 25
 575 500 l 25
 575 600 l 25
 175 600 l 25
75 0 m 25
 75 700 l 25
 675 700 l 25
 675 400 l 25
 175 400 l 25
 175 0 l 25
 75 0 l 25
75 800 m 25
 75 900 l 25
 675 900 l 29
 675 800 l 25
 75 800 l 25
75 -300 m 25
 75 -200 l 25
 375 -100 l 25
 675 -200 l 25
 675 -300 l 25
 375 -200 l 25
 75 -300 l 25
EndSplineSet
Ligature2: "'liga' Standard Ligatures in Latin lookup 176 subtable" V A emphasis
EndChar

StartChar: V_E_emphasis
Encoding: 270 -1 269
Width: 750
VWidth: 0
Flags: HW
LayerCount: 2
Fore
SplineSet
325 600 m 29
 425 600 l 29
 425 500 l 29
 325 500 l 29
 325 600 l 29
175 600 m 25
 175 500 l 25
 575 500 l 25
 575 600 l 25
 175 600 l 25
75 0 m 25
 75 700 l 25
 675 700 l 25
 675 400 l 25
 175 400 l 25
 175 0 l 25
 75 0 l 25
75 800 m 25
 75 900 l 25
 675 1000 l 25
 675 900 l 29
 75 800 l 25
75 -300 m 25
 75 -200 l 25
 375 -100 l 25
 675 -200 l 25
 675 -300 l 25
 375 -200 l 25
 75 -300 l 25
EndSplineSet
Ligature2: "'liga' Standard Ligatures in Latin lookup 176 subtable" V E emphasis
EndChar

StartChar: V_Eacute_emphasis
Encoding: 271 -1 270
Width: 750
VWidth: 0
Flags: HW
LayerCount: 2
Fore
SplineSet
325 600 m 29
 425 600 l 29
 425 500 l 29
 325 500 l 29
 325 600 l 29
175 600 m 25
 175 500 l 25
 575 500 l 25
 575 600 l 25
 175 600 l 25
75 0 m 25
 75 700 l 25
 675 700 l 25
 675 400 l 25
 175 400 l 25
 175 0 l 25
 75 0 l 25
75 900 m 29
 75 1000 l 29
 675 900 l 29
 675 800 l 29
 75 900 l 29
75 -300 m 25
 75 -200 l 25
 375 -100 l 25
 675 -200 l 25
 675 -300 l 25
 375 -200 l 25
 75 -300 l 25
EndSplineSet
Ligature2: "'liga' Standard Ligatures in Latin lookup 176 subtable" V Eacute emphasis
EndChar

StartChar: V_I_emphasis
Encoding: 272 -1 271
Width: 750
VWidth: 0
Flags: HW
LayerCount: 2
Fore
SplineSet
325 600 m 29
 425 600 l 29
 425 500 l 29
 325 500 l 29
 325 600 l 29
175 600 m 25
 175 500 l 25
 575 500 l 25
 575 600 l 25
 175 600 l 25
75 0 m 25
 75 700 l 25
 675 700 l 25
 675 400 l 25
 175 400 l 25
 175 0 l 25
 75 0 l 25
325 800 m 29
 325 1000 l 29
 425 1000 l 29
 425 800 l 29
 325 800 l 29
75 -300 m 25
 75 -200 l 25
 375 -100 l 25
 675 -200 l 25
 675 -300 l 25
 375 -200 l 25
 75 -300 l 25
EndSplineSet
Ligature2: "'liga' Standard Ligatures in Latin lookup 176 subtable" V I emphasis
EndChar

StartChar: V_Iacute_emphasis
Encoding: 273 -1 272
Width: 750
VWidth: 0
Flags: HW
LayerCount: 2
Fore
SplineSet
325 600 m 29
 425 600 l 29
 425 500 l 29
 325 500 l 29
 325 600 l 29
175 600 m 25
 175 500 l 25
 575 500 l 25
 575 600 l 25
 175 600 l 25
75 0 m 25
 75 700 l 25
 675 700 l 25
 675 400 l 25
 175 400 l 25
 175 0 l 25
 75 0 l 25
75 800 m 1
 75 900 l 1
 375 1000 l 1
 675 900 l 1
 675 800 l 1
 375 900 l 1
 75 800 l 1
75 -300 m 25
 75 -200 l 25
 375 -100 l 25
 675 -200 l 25
 675 -300 l 25
 375 -200 l 25
 75 -300 l 25
EndSplineSet
Ligature2: "'liga' Standard Ligatures in Latin lookup 176 subtable" V Iacute emphasis
EndChar

StartChar: V_O_emphasis
Encoding: 274 -1 273
Width: 750
VWidth: 0
Flags: HW
LayerCount: 2
Fore
SplineSet
325 600 m 29
 425 600 l 29
 425 500 l 29
 325 500 l 29
 325 600 l 29
175 600 m 25
 175 500 l 25
 575 500 l 25
 575 600 l 25
 175 600 l 25
75 0 m 25
 75 700 l 25
 675 700 l 25
 675 400 l 25
 175 400 l 25
 175 0 l 25
 75 0 l 25
175 950 m 29
 175 850 l 29
 575 850 l 29
 575 950 l 29
 175 950 l 29
75 800 m 29
 75 1000 l 29
 675 1000 l 29
 675 800 l 29
 75 800 l 29
75 -300 m 25
 75 -200 l 25
 375 -100 l 25
 675 -200 l 25
 675 -300 l 25
 375 -200 l 25
 75 -300 l 25
EndSplineSet
Ligature2: "'liga' Standard Ligatures in Latin lookup 176 subtable" V O emphasis
EndChar

StartChar: V_Oacute_emphasis
Encoding: 275 -1 274
Width: 750
VWidth: 0
Flags: HW
LayerCount: 2
Fore
SplineSet
325 600 m 29
 425 600 l 29
 425 500 l 29
 325 500 l 29
 325 600 l 29
175 600 m 25
 175 500 l 25
 575 500 l 25
 575 600 l 25
 175 600 l 25
75 0 m 25
 75 700 l 25
 675 700 l 25
 675 400 l 25
 175 400 l 25
 175 0 l 25
 75 0 l 25
75 800 m 17
 75 850 l 1
 575 850 l 1
 575 950 l 1
 75 950 l 1
 75 1000 l 9
 675 1000 l 25
 675 800 l 25
 75 800 l 17
75 -300 m 25
 75 -200 l 25
 375 -100 l 25
 675 -200 l 25
 675 -300 l 25
 375 -200 l 25
 75 -300 l 25
EndSplineSet
Ligature2: "'liga' Standard Ligatures in Latin lookup 176 subtable" V Oacute emphasis
EndChar

StartChar: V_U_emphasis
Encoding: 276 -1 275
Width: 750
VWidth: 0
Flags: HW
LayerCount: 2
Fore
SplineSet
325 600 m 29
 425 600 l 29
 425 500 l 29
 325 500 l 29
 325 600 l 29
175 600 m 25
 175 500 l 25
 575 500 l 25
 575 600 l 25
 175 600 l 25
75 0 m 25
 75 700 l 25
 675 700 l 25
 675 400 l 25
 175 400 l 25
 175 0 l 25
 75 0 l 25
75 900 m 13
 75 1000 l 17
 375 900 l 1
 675 1000 l 9
 675 900 l 17
 375 800 l 1
 75 900 l 13
75 -300 m 25
 75 -200 l 25
 375 -100 l 25
 675 -200 l 25
 675 -300 l 25
 375 -200 l 25
 75 -300 l 25
EndSplineSet
Ligature2: "'liga' Standard Ligatures in Latin lookup 176 subtable" V U emphasis
EndChar

StartChar: V_Uacute_emphasis
Encoding: 277 -1 276
Width: 750
VWidth: 0
Flags: HW
LayerCount: 2
Fore
SplineSet
325 600 m 29
 425 600 l 29
 425 500 l 29
 325 500 l 29
 325 600 l 29
175 600 m 25
 175 500 l 25
 575 500 l 25
 575 600 l 25
 175 600 l 25
75 0 m 25
 75 700 l 25
 675 700 l 25
 675 400 l 25
 175 400 l 25
 175 0 l 25
 75 0 l 25
75 800 m 9
 75 900 l 17
 275 1000 l 1
 475 900 l 1
 675 1000 l 9
 675 900 l 17
 475 800 l 1
 275 900 l 1
 75 800 l 9
75 -300 m 25
 75 -200 l 25
 375 -100 l 25
 675 -200 l 25
 675 -300 l 25
 375 -200 l 25
 75 -300 l 25
EndSplineSet
Ligature2: "'liga' Standard Ligatures in Latin lookup 176 subtable" V Uacute emphasis
EndChar

StartChar: V_emphasis
Encoding: 278 -1 277
Width: 750
VWidth: 0
Flags: HW
LayerCount: 2
Fore
SplineSet
325 600 m 29
 425 600 l 29
 425 500 l 29
 325 500 l 29
 325 600 l 29
175 600 m 25
 175 500 l 25
 575 500 l 25
 575 600 l 25
 175 600 l 25
75 0 m 25
 75 700 l 25
 675 700 l 25
 675 400 l 25
 175 400 l 25
 175 0 l 25
 75 0 l 25
75 -300 m 25
 75 -200 l 25
 375 -100 l 25
 675 -200 l 25
 675 -300 l 25
 375 -200 l 25
 75 -300 l 25
EndSplineSet
Ligature2: "'liga' Standard Ligatures in Latin lookup 176 subtable" V emphasis
EndChar

StartChar: W_A_emphasis
Encoding: 279 -1 278
Width: 750
VWidth: 0
Flags: HW
LayerCount: 2
Fore
SplineSet
575 0 m 17
 175 600 l 1
 175 100 l 1
 325 100 l 1
 225 250 l 1
 225 400 l 1
 475 0 l 1
 75 0 l 1
 75 700 l 5
 225 700 l 25
 675 0 l 1
 575 0 l 17
75 800 m 25
 75 900 l 25
 675 900 l 29
 675 800 l 25
 75 800 l 25
75 -300 m 25
 75 -200 l 25
 375 -100 l 25
 675 -200 l 25
 675 -300 l 25
 375 -200 l 25
 75 -300 l 25
EndSplineSet
Ligature2: "'liga' Standard Ligatures in Latin lookup 176 subtable" W A emphasis
EndChar

StartChar: W_E_emphasis
Encoding: 280 -1 279
Width: 750
VWidth: 0
Flags: HW
LayerCount: 2
Fore
SplineSet
575 0 m 17
 175 600 l 1
 175 100 l 1
 325 100 l 1
 225 250 l 1
 225 400 l 1
 475 0 l 1
 75 0 l 1
 75 700 l 5
 225 700 l 25
 675 0 l 1
 575 0 l 17
75 800 m 25
 75 900 l 25
 675 1000 l 25
 675 900 l 29
 75 800 l 25
75 -300 m 25
 75 -200 l 25
 375 -100 l 25
 675 -200 l 25
 675 -300 l 25
 375 -200 l 25
 75 -300 l 25
EndSplineSet
Ligature2: "'liga' Standard Ligatures in Latin lookup 176 subtable" W E emphasis
EndChar

StartChar: W_Eacute_emphasis
Encoding: 281 -1 280
Width: 750
VWidth: 0
Flags: HW
LayerCount: 2
Fore
SplineSet
575 0 m 17
 175 600 l 1
 175 100 l 1
 325 100 l 1
 225 250 l 1
 225 400 l 1
 475 0 l 1
 75 0 l 1
 75 700 l 5
 225 700 l 25
 675 0 l 1
 575 0 l 17
75 900 m 29
 75 1000 l 29
 675 900 l 29
 675 800 l 29
 75 900 l 29
75 -300 m 25
 75 -200 l 25
 375 -100 l 25
 675 -200 l 25
 675 -300 l 25
 375 -200 l 25
 75 -300 l 25
EndSplineSet
Ligature2: "'liga' Standard Ligatures in Latin lookup 176 subtable" W Eacute emphasis
EndChar

StartChar: W_I_emphasis
Encoding: 282 -1 281
Width: 750
VWidth: 0
Flags: HW
LayerCount: 2
Fore
SplineSet
575 0 m 17
 175 600 l 1
 175 100 l 1
 325 100 l 1
 225 250 l 1
 225 400 l 1
 475 0 l 1
 75 0 l 1
 75 700 l 5
 225 700 l 25
 675 0 l 1
 575 0 l 17
325 800 m 29
 325 1000 l 29
 425 1000 l 29
 425 800 l 29
 325 800 l 29
75 -300 m 25
 75 -200 l 25
 375 -100 l 25
 675 -200 l 25
 675 -300 l 25
 375 -200 l 25
 75 -300 l 25
EndSplineSet
Ligature2: "'liga' Standard Ligatures in Latin lookup 176 subtable" W I emphasis
EndChar

StartChar: W_Iacute_emphasis
Encoding: 283 -1 282
Width: 750
VWidth: 0
Flags: HW
LayerCount: 2
Fore
SplineSet
575 0 m 17
 175 600 l 1
 175 100 l 1
 325 100 l 1
 225 250 l 1
 225 400 l 1
 475 0 l 1
 75 0 l 1
 75 700 l 5
 225 700 l 25
 675 0 l 1
 575 0 l 17
75 800 m 1
 75 900 l 1
 375 1000 l 1
 675 900 l 1
 675 800 l 1
 375 900 l 1
 75 800 l 1
75 -300 m 25
 75 -200 l 25
 375 -100 l 25
 675 -200 l 25
 675 -300 l 25
 375 -200 l 25
 75 -300 l 25
EndSplineSet
Ligature2: "'liga' Standard Ligatures in Latin lookup 176 subtable" W Iacute emphasis
EndChar

StartChar: W_O_emphasis
Encoding: 284 -1 283
Width: 750
VWidth: 0
Flags: HW
LayerCount: 2
Fore
SplineSet
575 0 m 17
 175 600 l 1
 175 100 l 1
 325 100 l 1
 225 250 l 1
 225 400 l 1
 475 0 l 1
 75 0 l 1
 75 700 l 5
 225 700 l 25
 675 0 l 1
 575 0 l 17
175 950 m 29
 175 850 l 29
 575 850 l 29
 575 950 l 29
 175 950 l 29
75 800 m 29
 75 1000 l 29
 675 1000 l 29
 675 800 l 29
 75 800 l 29
75 -300 m 25
 75 -200 l 25
 375 -100 l 25
 675 -200 l 25
 675 -300 l 25
 375 -200 l 25
 75 -300 l 25
EndSplineSet
Ligature2: "'liga' Standard Ligatures in Latin lookup 176 subtable" W O emphasis
EndChar

StartChar: W_Oacute_emphasis
Encoding: 285 -1 284
Width: 750
VWidth: 0
Flags: HW
LayerCount: 2
Fore
SplineSet
575 0 m 17
 175 600 l 1
 175 100 l 1
 325 100 l 1
 225 250 l 1
 225 400 l 1
 475 0 l 1
 75 0 l 1
 75 700 l 5
 225 700 l 25
 675 0 l 1
 575 0 l 17
75 800 m 17
 75 850 l 1
 575 850 l 1
 575 950 l 1
 75 950 l 1
 75 1000 l 9
 675 1000 l 25
 675 800 l 25
 75 800 l 17
75 -300 m 25
 75 -200 l 25
 375 -100 l 25
 675 -200 l 25
 675 -300 l 25
 375 -200 l 25
 75 -300 l 25
EndSplineSet
Ligature2: "'liga' Standard Ligatures in Latin lookup 176 subtable" W Oacute emphasis
EndChar

StartChar: W_U_emphasis
Encoding: 286 -1 285
Width: 750
VWidth: 0
Flags: HW
LayerCount: 2
Fore
SplineSet
575 0 m 17
 175 600 l 1
 175 100 l 1
 325 100 l 1
 225 250 l 1
 225 400 l 1
 475 0 l 1
 75 0 l 1
 75 700 l 5
 225 700 l 25
 675 0 l 1
 575 0 l 17
75 900 m 13
 75 1000 l 17
 375 900 l 1
 675 1000 l 9
 675 900 l 17
 375 800 l 1
 75 900 l 13
75 -300 m 25
 75 -200 l 25
 375 -100 l 25
 675 -200 l 25
 675 -300 l 25
 375 -200 l 25
 75 -300 l 25
EndSplineSet
Ligature2: "'liga' Standard Ligatures in Latin lookup 176 subtable" W U emphasis
EndChar

StartChar: W_Uacute_emphasis
Encoding: 287 -1 286
Width: 750
VWidth: 0
Flags: HW
LayerCount: 2
Fore
SplineSet
575 0 m 17
 175 600 l 1
 175 100 l 1
 325 100 l 1
 225 250 l 1
 225 400 l 1
 475 0 l 1
 75 0 l 1
 75 700 l 5
 225 700 l 25
 675 0 l 1
 575 0 l 17
75 800 m 9
 75 900 l 17
 275 1000 l 1
 475 900 l 1
 675 1000 l 9
 675 900 l 17
 475 800 l 1
 275 900 l 1
 75 800 l 9
75 -300 m 25
 75 -200 l 25
 375 -100 l 25
 675 -200 l 25
 675 -300 l 25
 375 -200 l 25
 75 -300 l 25
EndSplineSet
Ligature2: "'liga' Standard Ligatures in Latin lookup 176 subtable" W Uacute emphasis
EndChar

StartChar: W_emphasis
Encoding: 288 -1 287
Width: 750
VWidth: 0
Flags: HW
LayerCount: 2
Fore
SplineSet
575 0 m 17
 175 600 l 1
 175 100 l 1
 325 100 l 1
 225 250 l 1
 225 400 l 1
 475 0 l 1
 75 0 l 1
 75 700 l 5
 225 700 l 25
 675 0 l 1
 575 0 l 17
75 -300 m 25
 75 -200 l 25
 375 -100 l 25
 675 -200 l 25
 675 -300 l 25
 375 -200 l 25
 75 -300 l 25
EndSplineSet
Ligature2: "'liga' Standard Ligatures in Latin lookup 176 subtable" W emphasis
EndChar

StartChar: X_A_emphasis
Encoding: 289 -1 288
Width: 750
VWidth: 0
Flags: HW
LayerCount: 2
Fore
SplineSet
75 0 m 1
 325 350 l 1
 75 700 l 1
 175 700 l 1
 375 400 l 1
 575 700 l 1
 675 700 l 1
 425 350 l 1
 675 0 l 1
 575 0 l 1
 375 300 l 1
 175 0 l 1
 75 0 l 1
75 800 m 25
 75 900 l 25
 675 900 l 29
 675 800 l 25
 75 800 l 25
75 -300 m 25
 75 -200 l 25
 375 -100 l 25
 675 -200 l 25
 675 -300 l 25
 375 -200 l 25
 75 -300 l 25
EndSplineSet
Ligature2: "'liga' Standard Ligatures in Latin lookup 176 subtable" X A emphasis
EndChar

StartChar: X_E_emphasis
Encoding: 290 -1 289
Width: 750
VWidth: 0
Flags: HW
LayerCount: 2
Fore
SplineSet
75 0 m 1
 325 350 l 1
 75 700 l 1
 175 700 l 1
 375 400 l 1
 575 700 l 1
 675 700 l 1
 425 350 l 1
 675 0 l 1
 575 0 l 1
 375 300 l 1
 175 0 l 1
 75 0 l 1
75 800 m 25
 75 900 l 25
 675 1000 l 25
 675 900 l 29
 75 800 l 25
75 -300 m 25
 75 -200 l 25
 375 -100 l 25
 675 -200 l 25
 675 -300 l 25
 375 -200 l 25
 75 -300 l 25
EndSplineSet
Ligature2: "'liga' Standard Ligatures in Latin lookup 176 subtable" X E emphasis
EndChar

StartChar: X_Eacute_emphasis
Encoding: 291 -1 290
Width: 750
VWidth: 0
Flags: HW
LayerCount: 2
Fore
SplineSet
75 0 m 1
 325 350 l 1
 75 700 l 1
 175 700 l 1
 375 400 l 1
 575 700 l 1
 675 700 l 1
 425 350 l 1
 675 0 l 1
 575 0 l 1
 375 300 l 1
 175 0 l 1
 75 0 l 1
75 900 m 29
 75 1000 l 29
 675 900 l 29
 675 800 l 29
 75 900 l 29
75 -300 m 25
 75 -200 l 25
 375 -100 l 25
 675 -200 l 25
 675 -300 l 25
 375 -200 l 25
 75 -300 l 25
EndSplineSet
Ligature2: "'liga' Standard Ligatures in Latin lookup 176 subtable" X Eacute emphasis
EndChar

StartChar: X_I_emphasis
Encoding: 292 -1 291
Width: 750
VWidth: 0
Flags: HW
LayerCount: 2
Fore
SplineSet
75 0 m 1
 325 350 l 1
 75 700 l 1
 175 700 l 1
 375 400 l 1
 575 700 l 1
 675 700 l 1
 425 350 l 1
 675 0 l 1
 575 0 l 1
 375 300 l 1
 175 0 l 1
 75 0 l 1
325 800 m 29
 325 1000 l 29
 425 1000 l 29
 425 800 l 29
 325 800 l 29
75 -300 m 25
 75 -200 l 25
 375 -100 l 25
 675 -200 l 25
 675 -300 l 25
 375 -200 l 25
 75 -300 l 25
EndSplineSet
Ligature2: "'liga' Standard Ligatures in Latin lookup 176 subtable" X I emphasis
EndChar

StartChar: X_Iacute_emphasis
Encoding: 293 -1 292
Width: 750
VWidth: 0
Flags: HW
LayerCount: 2
Fore
SplineSet
75 0 m 1
 325 350 l 1
 75 700 l 1
 175 700 l 1
 375 400 l 1
 575 700 l 1
 675 700 l 1
 425 350 l 1
 675 0 l 1
 575 0 l 1
 375 300 l 1
 175 0 l 1
 75 0 l 1
75 800 m 1
 75 900 l 1
 375 1000 l 1
 675 900 l 1
 675 800 l 1
 375 900 l 1
 75 800 l 1
75 -300 m 25
 75 -200 l 25
 375 -100 l 25
 675 -200 l 25
 675 -300 l 25
 375 -200 l 25
 75 -300 l 25
EndSplineSet
Ligature2: "'liga' Standard Ligatures in Latin lookup 176 subtable" X Iacute emphasis
EndChar

StartChar: X_O_emphasis
Encoding: 294 -1 293
Width: 750
VWidth: 0
Flags: HW
LayerCount: 2
Fore
SplineSet
75 0 m 1
 325 350 l 1
 75 700 l 1
 175 700 l 1
 375 400 l 1
 575 700 l 1
 675 700 l 1
 425 350 l 1
 675 0 l 1
 575 0 l 1
 375 300 l 1
 175 0 l 1
 75 0 l 1
175 950 m 29
 175 850 l 29
 575 850 l 29
 575 950 l 29
 175 950 l 29
75 800 m 29
 75 1000 l 29
 675 1000 l 29
 675 800 l 29
 75 800 l 29
75 -300 m 25
 75 -200 l 25
 375 -100 l 25
 675 -200 l 25
 675 -300 l 25
 375 -200 l 25
 75 -300 l 25
EndSplineSet
Ligature2: "'liga' Standard Ligatures in Latin lookup 176 subtable" X O emphasis
EndChar

StartChar: X_Oacute_emphasis
Encoding: 295 -1 294
Width: 750
VWidth: 0
Flags: HW
LayerCount: 2
Fore
SplineSet
75 0 m 1
 325 350 l 1
 75 700 l 1
 175 700 l 1
 375 400 l 1
 575 700 l 1
 675 700 l 1
 425 350 l 1
 675 0 l 1
 575 0 l 1
 375 300 l 1
 175 0 l 1
 75 0 l 1
75 800 m 17
 75 850 l 1
 575 850 l 1
 575 950 l 1
 75 950 l 1
 75 1000 l 9
 675 1000 l 25
 675 800 l 25
 75 800 l 17
75 -300 m 25
 75 -200 l 25
 375 -100 l 25
 675 -200 l 25
 675 -300 l 25
 375 -200 l 25
 75 -300 l 25
EndSplineSet
Ligature2: "'liga' Standard Ligatures in Latin lookup 176 subtable" X Oacute emphasis
EndChar

StartChar: X_U_emphasis
Encoding: 296 -1 295
Width: 750
VWidth: 0
Flags: HW
LayerCount: 2
Fore
SplineSet
75 0 m 1
 325 350 l 1
 75 700 l 1
 175 700 l 1
 375 400 l 1
 575 700 l 1
 675 700 l 1
 425 350 l 1
 675 0 l 1
 575 0 l 1
 375 300 l 1
 175 0 l 1
 75 0 l 1
75 900 m 13
 75 1000 l 17
 375 900 l 1
 675 1000 l 9
 675 900 l 17
 375 800 l 1
 75 900 l 13
75 -300 m 25
 75 -200 l 25
 375 -100 l 25
 675 -200 l 25
 675 -300 l 25
 375 -200 l 25
 75 -300 l 25
EndSplineSet
Ligature2: "'liga' Standard Ligatures in Latin lookup 176 subtable" X U emphasis
EndChar

StartChar: X_Uacute_emphasis
Encoding: 297 -1 296
Width: 750
VWidth: 0
Flags: HW
LayerCount: 2
Fore
SplineSet
75 0 m 1
 325 350 l 1
 75 700 l 1
 175 700 l 1
 375 400 l 1
 575 700 l 1
 675 700 l 1
 425 350 l 1
 675 0 l 1
 575 0 l 1
 375 300 l 1
 175 0 l 1
 75 0 l 1
75 800 m 9
 75 900 l 17
 275 1000 l 1
 475 900 l 1
 675 1000 l 9
 675 900 l 17
 475 800 l 1
 275 900 l 1
 75 800 l 9
75 -300 m 25
 75 -200 l 25
 375 -100 l 25
 675 -200 l 25
 675 -300 l 25
 375 -200 l 25
 75 -300 l 25
EndSplineSet
Ligature2: "'liga' Standard Ligatures in Latin lookup 176 subtable" X Uacute emphasis
EndChar

StartChar: X_emphasis
Encoding: 298 -1 297
Width: 750
Flags: HW
LayerCount: 2
Fore
SplineSet
75 0 m 1
 325 350 l 1
 75 700 l 1
 175 700 l 1
 375 400 l 1
 575 700 l 1
 675 700 l 1
 425 350 l 1
 675 0 l 1
 575 0 l 1
 375 300 l 1
 175 0 l 1
 75 0 l 1
75 -300 m 25
 75 -200 l 25
 375 -100 l 25
 675 -200 l 25
 675 -300 l 25
 375 -200 l 25
 75 -300 l 25
EndSplineSet
Ligature2: "'liga' Standard Ligatures in Latin lookup 176 subtable" X emphasis
EndChar

StartChar: Y_A_emphasis
Encoding: 299 -1 298
Width: 750
VWidth: 0
Flags: HW
LayerCount: 2
Fore
SplineSet
75 400 m 25
 75 500 l 25
 675 500 l 25
 675 400 l 25
 75 400 l 25
75 200 m 1
 75 300 l 1
 675 300 l 1
 675 200 l 5
 75 200 l 1
75 800 m 25
 75 900 l 25
 675 900 l 29
 675 800 l 25
 75 800 l 25
75 -300 m 25
 75 -200 l 25
 375 -100 l 25
 675 -200 l 25
 675 -300 l 25
 375 -200 l 25
 75 -300 l 25
EndSplineSet
Ligature2: "'liga' Standard Ligatures in Latin lookup 176 subtable" Y A emphasis
EndChar

StartChar: Y_E_emphasis
Encoding: 300 -1 299
Width: 750
VWidth: 0
Flags: HW
LayerCount: 2
Fore
SplineSet
75 400 m 25
 75 500 l 25
 675 500 l 25
 675 400 l 25
 75 400 l 25
75 200 m 1
 75 300 l 1
 675 300 l 1
 675 200 l 5
 75 200 l 1
75 800 m 25
 75 900 l 25
 675 1000 l 25
 675 900 l 29
 75 800 l 25
75 -300 m 25
 75 -200 l 25
 375 -100 l 25
 675 -200 l 25
 675 -300 l 25
 375 -200 l 25
 75 -300 l 25
EndSplineSet
Ligature2: "'liga' Standard Ligatures in Latin lookup 176 subtable" Y E emphasis
EndChar

StartChar: Y_Eacute_emphasis
Encoding: 301 -1 300
Width: 750
VWidth: 0
Flags: HW
LayerCount: 2
Fore
SplineSet
75 400 m 25
 75 500 l 25
 675 500 l 25
 675 400 l 25
 75 400 l 25
75 200 m 1
 75 300 l 1
 675 300 l 1
 675 200 l 5
 75 200 l 1
75 900 m 29
 75 1000 l 29
 675 900 l 29
 675 800 l 29
 75 900 l 29
75 -300 m 25
 75 -200 l 25
 375 -100 l 25
 675 -200 l 25
 675 -300 l 25
 375 -200 l 25
 75 -300 l 25
EndSplineSet
Ligature2: "'liga' Standard Ligatures in Latin lookup 176 subtable" Y Eacute emphasis
EndChar

StartChar: Y_I_emphasis
Encoding: 302 -1 301
Width: 750
VWidth: 0
Flags: HW
LayerCount: 2
Fore
SplineSet
75 400 m 25
 75 500 l 25
 675 500 l 25
 675 400 l 25
 75 400 l 25
75 200 m 1
 75 300 l 1
 675 300 l 1
 675 200 l 5
 75 200 l 1
325 800 m 29
 325 1000 l 29
 425 1000 l 29
 425 800 l 29
 325 800 l 29
75 -300 m 25
 75 -200 l 25
 375 -100 l 25
 675 -200 l 25
 675 -300 l 25
 375 -200 l 25
 75 -300 l 25
EndSplineSet
Ligature2: "'liga' Standard Ligatures in Latin lookup 176 subtable" Y I emphasis
EndChar

StartChar: Y_Iacute_emphasis
Encoding: 303 -1 302
Width: 750
VWidth: 0
Flags: HW
LayerCount: 2
Fore
SplineSet
75 400 m 25
 75 500 l 25
 675 500 l 25
 675 400 l 25
 75 400 l 25
75 200 m 1
 75 300 l 1
 675 300 l 1
 675 200 l 5
 75 200 l 1
75 800 m 1
 75 900 l 1
 375 1000 l 1
 675 900 l 1
 675 800 l 1
 375 900 l 1
 75 800 l 1
75 -300 m 25
 75 -200 l 25
 375 -100 l 25
 675 -200 l 25
 675 -300 l 25
 375 -200 l 25
 75 -300 l 25
EndSplineSet
Ligature2: "'liga' Standard Ligatures in Latin lookup 176 subtable" Y Iacute emphasis
EndChar

StartChar: Y_O_emphasis
Encoding: 304 -1 303
Width: 750
VWidth: 0
Flags: HW
LayerCount: 2
Fore
SplineSet
75 400 m 25
 75 500 l 25
 675 500 l 25
 675 400 l 25
 75 400 l 25
75 200 m 1
 75 300 l 1
 675 300 l 1
 675 200 l 5
 75 200 l 1
175 950 m 29
 175 850 l 29
 575 850 l 29
 575 950 l 29
 175 950 l 29
75 800 m 29
 75 1000 l 29
 675 1000 l 29
 675 800 l 29
 75 800 l 29
75 -300 m 25
 75 -200 l 25
 375 -100 l 25
 675 -200 l 25
 675 -300 l 25
 375 -200 l 25
 75 -300 l 25
EndSplineSet
Ligature2: "'liga' Standard Ligatures in Latin lookup 176 subtable" Y O emphasis
EndChar

StartChar: Y_Oacute_emphasis
Encoding: 305 -1 304
Width: 750
VWidth: 0
Flags: HW
LayerCount: 2
Fore
SplineSet
75 400 m 25
 75 500 l 25
 675 500 l 25
 675 400 l 25
 75 400 l 25
75 200 m 1
 75 300 l 1
 675 300 l 1
 675 200 l 5
 75 200 l 1
75 800 m 17
 75 850 l 1
 575 850 l 1
 575 950 l 1
 75 950 l 1
 75 1000 l 9
 675 1000 l 25
 675 800 l 25
 75 800 l 17
75 -300 m 25
 75 -200 l 25
 375 -100 l 25
 675 -200 l 25
 675 -300 l 25
 375 -200 l 25
 75 -300 l 25
EndSplineSet
Ligature2: "'liga' Standard Ligatures in Latin lookup 176 subtable" Y Oacute emphasis
EndChar

StartChar: Y_U_emphasis
Encoding: 306 -1 305
Width: 750
VWidth: 0
Flags: HW
LayerCount: 2
Fore
SplineSet
75 400 m 25
 75 500 l 25
 675 500 l 25
 675 400 l 25
 75 400 l 25
75 200 m 1
 75 300 l 1
 675 300 l 1
 675 200 l 5
 75 200 l 1
75 900 m 13
 75 1000 l 17
 375 900 l 1
 675 1000 l 9
 675 900 l 17
 375 800 l 1
 75 900 l 13
75 -300 m 25
 75 -200 l 25
 375 -100 l 25
 675 -200 l 25
 675 -300 l 25
 375 -200 l 25
 75 -300 l 25
EndSplineSet
Ligature2: "'liga' Standard Ligatures in Latin lookup 176 subtable" Y U emphasis
EndChar

StartChar: Y_Uacute_emphasis
Encoding: 307 -1 306
Width: 750
VWidth: 0
Flags: HW
LayerCount: 2
Fore
SplineSet
75 400 m 25
 75 500 l 25
 675 500 l 25
 675 400 l 25
 75 400 l 25
75 200 m 1
 75 300 l 1
 675 300 l 1
 675 200 l 5
 75 200 l 1
75 800 m 9
 75 900 l 17
 275 1000 l 1
 475 900 l 1
 675 1000 l 9
 675 900 l 17
 475 800 l 1
 275 900 l 1
 75 800 l 9
75 -300 m 25
 75 -200 l 25
 375 -100 l 25
 675 -200 l 25
 675 -300 l 25
 375 -200 l 25
 75 -300 l 25
EndSplineSet
Ligature2: "'liga' Standard Ligatures in Latin lookup 176 subtable" Y Uacute emphasis
EndChar

StartChar: Y_emphasis
Encoding: 308 -1 307
Width: 750
VWidth: 0
Flags: HW
LayerCount: 2
Fore
SplineSet
75 400 m 25
 75 500 l 25
 675 500 l 25
 675 400 l 25
 75 400 l 25
75 200 m 1
 75 300 l 1
 675 300 l 1
 675 200 l 5
 75 200 l 1
75 -300 m 25
 75 -200 l 25
 375 -100 l 25
 675 -200 l 25
 675 -300 l 25
 375 -200 l 25
 75 -300 l 25
EndSplineSet
Ligature2: "'liga' Standard Ligatures in Latin lookup 176 subtable" Y emphasis
EndChar

StartChar: Z_A_emphasis
Encoding: 309 -1 308
Width: 750
VWidth: 0
Flags: HW
LayerCount: 2
Fore
SplineSet
75 500 m 29
 75 600 l 29
 675 600 l 29
 675 500 l 29
 75 500 l 29
75 0 m 1
 525 300 l 1
 75 300 l 1
 75 400 l 1
 575 700 l 9
 675 700 l 1
 225 400 l 1
 675 400 l 1
 675 300 l 1
 175 0 l 9
 75 0 l 1
75 800 m 25
 75 900 l 25
 675 900 l 29
 675 800 l 25
 75 800 l 25
75 -300 m 25
 75 -200 l 25
 375 -100 l 25
 675 -200 l 25
 675 -300 l 25
 375 -200 l 25
 75 -300 l 25
EndSplineSet
Ligature2: "'liga' Standard Ligatures in Latin lookup 176 subtable" Z A emphasis
EndChar

StartChar: Z_E_emphasis
Encoding: 310 -1 309
Width: 750
VWidth: 0
Flags: HW
LayerCount: 2
Fore
SplineSet
75 500 m 29
 75 600 l 29
 675 600 l 29
 675 500 l 29
 75 500 l 29
75 0 m 1
 525 300 l 1
 75 300 l 1
 75 400 l 1
 575 700 l 9
 675 700 l 1
 225 400 l 1
 675 400 l 1
 675 300 l 1
 175 0 l 9
 75 0 l 1
75 800 m 25
 75 900 l 25
 675 1000 l 25
 675 900 l 29
 75 800 l 25
75 -300 m 25
 75 -200 l 25
 375 -100 l 25
 675 -200 l 25
 675 -300 l 25
 375 -200 l 25
 75 -300 l 25
EndSplineSet
Ligature2: "'liga' Standard Ligatures in Latin lookup 176 subtable" Z E emphasis
EndChar

StartChar: Z_Eacute_emphasis
Encoding: 311 -1 310
Width: 750
VWidth: 0
Flags: HW
LayerCount: 2
Fore
SplineSet
75 500 m 29
 75 600 l 29
 675 600 l 29
 675 500 l 29
 75 500 l 29
75 0 m 1
 525 300 l 1
 75 300 l 1
 75 400 l 1
 575 700 l 9
 675 700 l 1
 225 400 l 1
 675 400 l 1
 675 300 l 1
 175 0 l 9
 75 0 l 1
75 900 m 29
 75 1000 l 29
 675 900 l 29
 675 800 l 29
 75 900 l 29
75 -300 m 25
 75 -200 l 25
 375 -100 l 25
 675 -200 l 25
 675 -300 l 25
 375 -200 l 25
 75 -300 l 25
EndSplineSet
Ligature2: "'liga' Standard Ligatures in Latin lookup 176 subtable" Z Eacute emphasis
EndChar

StartChar: Z_I_emphasis
Encoding: 312 -1 311
Width: 750
VWidth: 0
Flags: HW
LayerCount: 2
Fore
SplineSet
75 500 m 29
 75 600 l 29
 675 600 l 29
 675 500 l 29
 75 500 l 29
75 0 m 1
 525 300 l 1
 75 300 l 1
 75 400 l 1
 575 700 l 9
 675 700 l 1
 225 400 l 1
 675 400 l 1
 675 300 l 1
 175 0 l 9
 75 0 l 1
325 800 m 29
 325 1000 l 29
 425 1000 l 29
 425 800 l 29
 325 800 l 29
75 -300 m 25
 75 -200 l 25
 375 -100 l 25
 675 -200 l 25
 675 -300 l 25
 375 -200 l 25
 75 -300 l 25
EndSplineSet
Ligature2: "'liga' Standard Ligatures in Latin lookup 176 subtable" Z I emphasis
EndChar

StartChar: Z_Iacute_emphasis
Encoding: 313 -1 312
Width: 750
VWidth: 0
Flags: HW
LayerCount: 2
Fore
SplineSet
75 500 m 29
 75 600 l 29
 675 600 l 29
 675 500 l 29
 75 500 l 29
75 0 m 1
 525 300 l 1
 75 300 l 1
 75 400 l 1
 575 700 l 9
 675 700 l 1
 225 400 l 1
 675 400 l 1
 675 300 l 1
 175 0 l 9
 75 0 l 1
75 800 m 1
 75 900 l 1
 375 1000 l 1
 675 900 l 1
 675 800 l 1
 375 900 l 1
 75 800 l 1
75 -300 m 25
 75 -200 l 25
 375 -100 l 25
 675 -200 l 25
 675 -300 l 25
 375 -200 l 25
 75 -300 l 25
EndSplineSet
Ligature2: "'liga' Standard Ligatures in Latin lookup 176 subtable" Z Iacute emphasis
EndChar

StartChar: Z_O_emphasis
Encoding: 314 -1 313
Width: 750
VWidth: 0
Flags: HW
LayerCount: 2
Fore
SplineSet
75 500 m 29
 75 600 l 29
 675 600 l 29
 675 500 l 29
 75 500 l 29
75 0 m 1
 525 300 l 1
 75 300 l 1
 75 400 l 1
 575 700 l 9
 675 700 l 1
 225 400 l 1
 675 400 l 1
 675 300 l 1
 175 0 l 9
 75 0 l 1
175 950 m 29
 175 850 l 29
 575 850 l 29
 575 950 l 29
 175 950 l 29
75 800 m 29
 75 1000 l 29
 675 1000 l 29
 675 800 l 29
 75 800 l 29
75 -300 m 25
 75 -200 l 25
 375 -100 l 25
 675 -200 l 25
 675 -300 l 25
 375 -200 l 25
 75 -300 l 25
EndSplineSet
Ligature2: "'liga' Standard Ligatures in Latin lookup 176 subtable" Z O emphasis
EndChar

StartChar: Z_Oacute_emphasis
Encoding: 315 -1 314
Width: 750
VWidth: 0
Flags: HW
LayerCount: 2
Fore
SplineSet
75 500 m 29
 75 600 l 29
 675 600 l 29
 675 500 l 29
 75 500 l 29
75 0 m 1
 525 300 l 1
 75 300 l 1
 75 400 l 1
 575 700 l 9
 675 700 l 1
 225 400 l 1
 675 400 l 1
 675 300 l 1
 175 0 l 9
 75 0 l 1
75 800 m 17
 75 850 l 1
 575 850 l 1
 575 950 l 1
 75 950 l 1
 75 1000 l 9
 675 1000 l 25
 675 800 l 25
 75 800 l 17
75 -300 m 25
 75 -200 l 25
 375 -100 l 25
 675 -200 l 25
 675 -300 l 25
 375 -200 l 25
 75 -300 l 25
EndSplineSet
Ligature2: "'liga' Standard Ligatures in Latin lookup 176 subtable" Z Oacute emphasis
EndChar

StartChar: Z_U_emphasis
Encoding: 316 -1 315
Width: 750
VWidth: 0
Flags: HW
LayerCount: 2
Fore
SplineSet
75 500 m 29
 75 600 l 29
 675 600 l 29
 675 500 l 29
 75 500 l 29
75 0 m 1
 525 300 l 1
 75 300 l 1
 75 400 l 1
 575 700 l 9
 675 700 l 1
 225 400 l 1
 675 400 l 1
 675 300 l 1
 175 0 l 9
 75 0 l 1
75 900 m 13
 75 1000 l 17
 375 900 l 1
 675 1000 l 9
 675 900 l 17
 375 800 l 1
 75 900 l 13
75 -300 m 25
 75 -200 l 25
 375 -100 l 25
 675 -200 l 25
 675 -300 l 25
 375 -200 l 25
 75 -300 l 25
EndSplineSet
Ligature2: "'liga' Standard Ligatures in Latin lookup 176 subtable" Z U emphasis
EndChar

StartChar: Z_Uacute_emphasis
Encoding: 317 -1 316
Width: 750
VWidth: 0
Flags: HW
LayerCount: 2
Fore
SplineSet
75 500 m 29
 75 600 l 29
 675 600 l 29
 675 500 l 29
 75 500 l 29
75 0 m 1
 525 300 l 1
 75 300 l 1
 75 400 l 1
 575 700 l 9
 675 700 l 1
 225 400 l 1
 675 400 l 1
 675 300 l 1
 175 0 l 9
 75 0 l 1
75 800 m 9
 75 900 l 17
 275 1000 l 1
 475 900 l 1
 675 1000 l 9
 675 900 l 17
 475 800 l 1
 275 900 l 1
 75 800 l 9
75 -300 m 25
 75 -200 l 25
 375 -100 l 25
 675 -200 l 25
 675 -300 l 25
 375 -200 l 25
 75 -300 l 25
EndSplineSet
Ligature2: "'liga' Standard Ligatures in Latin lookup 176 subtable" Z Uacute emphasis
EndChar

StartChar: Z_emphasis
Encoding: 318 -1 317
Width: 750
VWidth: 0
Flags: HW
LayerCount: 2
Fore
SplineSet
75 500 m 29
 75 600 l 29
 675 600 l 29
 675 500 l 29
 75 500 l 29
75 0 m 1
 525 300 l 1
 75 300 l 1
 75 400 l 1
 575 700 l 9
 675 700 l 1
 225 400 l 1
 675 400 l 1
 675 300 l 1
 175 0 l 9
 75 0 l 1
75 -300 m 25
 75 -200 l 25
 375 -100 l 25
 675 -200 l 25
 675 -300 l 25
 375 -200 l 25
 75 -300 l 25
EndSplineSet
Ligature2: "'liga' Standard Ligatures in Latin lookup 176 subtable" Z emphasis
EndChar

StartChar: Zhed_A_emphasis
Encoding: 319 -1 318
Width: 750
VWidth: 0
Flags: HW
LayerCount: 2
Fore
SplineSet
75 200 m 29
 675 600 l 29
 675 500 l 29
 75 100 l 29
 75 200 l 29
75 500 m 29
 75 600 l 29
 675 600 l 29
 675 500 l 29
 75 500 l 29
75 0 m 1
 525 300 l 1
 75 300 l 1
 75 400 l 1
 575 700 l 9
 675 700 l 1
 225 400 l 1
 675 400 l 1
 675 300 l 1
 175 0 l 9
 75 0 l 1
75 800 m 25
 75 900 l 25
 675 900 l 29
 675 800 l 25
 75 800 l 25
75 -300 m 25
 75 -200 l 25
 375 -100 l 25
 675 -200 l 25
 675 -300 l 25
 375 -200 l 25
 75 -300 l 25
EndSplineSet
Ligature2: "'liga' Standard Ligatures in Latin lookup 176 subtable" Zhed A emphasis
EndChar

StartChar: Zhed_E_emphasis
Encoding: 320 -1 319
Width: 750
VWidth: 0
Flags: HW
LayerCount: 2
Fore
SplineSet
75 200 m 29
 675 600 l 29
 675 500 l 29
 75 100 l 29
 75 200 l 29
75 500 m 29
 75 600 l 29
 675 600 l 29
 675 500 l 29
 75 500 l 29
75 0 m 1
 525 300 l 1
 75 300 l 1
 75 400 l 1
 575 700 l 9
 675 700 l 1
 225 400 l 1
 675 400 l 1
 675 300 l 1
 175 0 l 9
 75 0 l 1
75 800 m 25
 75 900 l 25
 675 1000 l 25
 675 900 l 29
 75 800 l 25
75 -300 m 25
 75 -200 l 25
 375 -100 l 25
 675 -200 l 25
 675 -300 l 25
 375 -200 l 25
 75 -300 l 25
EndSplineSet
Ligature2: "'liga' Standard Ligatures in Latin lookup 176 subtable" Zhed E emphasis
EndChar

StartChar: Zhed_Eacute_emphasis
Encoding: 321 -1 320
Width: 750
VWidth: 0
Flags: HW
LayerCount: 2
Fore
SplineSet
75 200 m 29
 675 600 l 29
 675 500 l 29
 75 100 l 29
 75 200 l 29
75 500 m 29
 75 600 l 29
 675 600 l 29
 675 500 l 29
 75 500 l 29
75 0 m 1
 525 300 l 1
 75 300 l 1
 75 400 l 1
 575 700 l 9
 675 700 l 1
 225 400 l 1
 675 400 l 1
 675 300 l 1
 175 0 l 9
 75 0 l 1
75 900 m 29
 75 1000 l 29
 675 900 l 29
 675 800 l 29
 75 900 l 29
75 -300 m 25
 75 -200 l 25
 375 -100 l 25
 675 -200 l 25
 675 -300 l 25
 375 -200 l 25
 75 -300 l 25
EndSplineSet
Ligature2: "'liga' Standard Ligatures in Latin lookup 176 subtable" Zhed Eacute emphasis
EndChar

StartChar: Zhed_I_emphasis
Encoding: 322 -1 321
Width: 750
VWidth: 0
Flags: HW
LayerCount: 2
Fore
SplineSet
75 200 m 29
 675 600 l 29
 675 500 l 29
 75 100 l 29
 75 200 l 29
75 500 m 29
 75 600 l 29
 675 600 l 29
 675 500 l 29
 75 500 l 29
75 0 m 1
 525 300 l 1
 75 300 l 1
 75 400 l 1
 575 700 l 9
 675 700 l 1
 225 400 l 1
 675 400 l 1
 675 300 l 1
 175 0 l 9
 75 0 l 1
325 800 m 29
 325 1000 l 29
 425 1000 l 29
 425 800 l 29
 325 800 l 29
75 -300 m 25
 75 -200 l 25
 375 -100 l 25
 675 -200 l 25
 675 -300 l 25
 375 -200 l 25
 75 -300 l 25
EndSplineSet
Ligature2: "'liga' Standard Ligatures in Latin lookup 176 subtable" Zhed I emphasis
EndChar

StartChar: Zhed_Iacute_emphasis
Encoding: 323 -1 322
Width: 750
VWidth: 0
Flags: HW
LayerCount: 2
Fore
SplineSet
75 200 m 29
 675 600 l 29
 675 500 l 29
 75 100 l 29
 75 200 l 29
75 500 m 29
 75 600 l 29
 675 600 l 29
 675 500 l 29
 75 500 l 29
75 0 m 1
 525 300 l 1
 75 300 l 1
 75 400 l 1
 575 700 l 9
 675 700 l 1
 225 400 l 1
 675 400 l 1
 675 300 l 1
 175 0 l 9
 75 0 l 1
75 800 m 1
 75 900 l 1
 375 1000 l 1
 675 900 l 1
 675 800 l 1
 375 900 l 1
 75 800 l 1
75 -300 m 25
 75 -200 l 25
 375 -100 l 25
 675 -200 l 25
 675 -300 l 25
 375 -200 l 25
 75 -300 l 25
EndSplineSet
Ligature2: "'liga' Standard Ligatures in Latin lookup 176 subtable" Zhed Iacute emphasis
EndChar

StartChar: Zhed_O_emphasis
Encoding: 324 -1 323
Width: 750
VWidth: 0
Flags: HW
LayerCount: 2
Fore
SplineSet
75 200 m 29
 675 600 l 29
 675 500 l 29
 75 100 l 29
 75 200 l 29
75 500 m 29
 75 600 l 29
 675 600 l 29
 675 500 l 29
 75 500 l 29
75 0 m 1
 525 300 l 1
 75 300 l 1
 75 400 l 1
 575 700 l 9
 675 700 l 1
 225 400 l 1
 675 400 l 1
 675 300 l 1
 175 0 l 9
 75 0 l 1
175 950 m 29
 175 850 l 29
 575 850 l 29
 575 950 l 29
 175 950 l 29
75 800 m 29
 75 1000 l 29
 675 1000 l 29
 675 800 l 29
 75 800 l 29
75 -300 m 25
 75 -200 l 25
 375 -100 l 25
 675 -200 l 25
 675 -300 l 25
 375 -200 l 25
 75 -300 l 25
EndSplineSet
Ligature2: "'liga' Standard Ligatures in Latin lookup 176 subtable" Zhed O emphasis
EndChar

StartChar: Zhed_Oacute_emphasis
Encoding: 325 -1 324
Width: 750
VWidth: 0
Flags: HW
LayerCount: 2
Fore
SplineSet
75 200 m 29
 675 600 l 29
 675 500 l 29
 75 100 l 29
 75 200 l 29
75 500 m 29
 75 600 l 29
 675 600 l 29
 675 500 l 29
 75 500 l 29
75 0 m 1
 525 300 l 1
 75 300 l 1
 75 400 l 1
 575 700 l 9
 675 700 l 1
 225 400 l 1
 675 400 l 1
 675 300 l 1
 175 0 l 9
 75 0 l 1
75 800 m 17
 75 850 l 1
 575 850 l 1
 575 950 l 1
 75 950 l 1
 75 1000 l 9
 675 1000 l 25
 675 800 l 25
 75 800 l 17
75 -300 m 25
 75 -200 l 25
 375 -100 l 25
 675 -200 l 25
 675 -300 l 25
 375 -200 l 25
 75 -300 l 25
EndSplineSet
Ligature2: "'liga' Standard Ligatures in Latin lookup 176 subtable" Zhed Oacute emphasis
EndChar

StartChar: Zhed_U_emphasis
Encoding: 326 -1 325
Width: 750
VWidth: 0
Flags: HW
LayerCount: 2
Fore
SplineSet
75 200 m 29
 675 600 l 29
 675 500 l 29
 75 100 l 29
 75 200 l 29
75 500 m 29
 75 600 l 29
 675 600 l 29
 675 500 l 29
 75 500 l 29
75 0 m 1
 525 300 l 1
 75 300 l 1
 75 400 l 1
 575 700 l 9
 675 700 l 1
 225 400 l 1
 675 400 l 1
 675 300 l 1
 175 0 l 9
 75 0 l 1
75 900 m 13
 75 1000 l 17
 375 900 l 1
 675 1000 l 9
 675 900 l 17
 375 800 l 1
 75 900 l 13
75 -300 m 25
 75 -200 l 25
 375 -100 l 25
 675 -200 l 25
 675 -300 l 25
 375 -200 l 25
 75 -300 l 25
EndSplineSet
Ligature2: "'liga' Standard Ligatures in Latin lookup 176 subtable" Zhed U emphasis
EndChar

StartChar: Zhed_Uacute_emphasis
Encoding: 327 -1 326
Width: 750
VWidth: 0
Flags: HW
LayerCount: 2
Fore
SplineSet
75 200 m 29
 675 600 l 29
 675 500 l 29
 75 100 l 29
 75 200 l 29
75 500 m 29
 75 600 l 29
 675 600 l 29
 675 500 l 29
 75 500 l 29
75 0 m 1
 525 300 l 1
 75 300 l 1
 75 400 l 1
 575 700 l 9
 675 700 l 1
 225 400 l 1
 675 400 l 1
 675 300 l 1
 175 0 l 9
 75 0 l 1
75 800 m 9
 75 900 l 17
 275 1000 l 1
 475 900 l 1
 675 1000 l 9
 675 900 l 17
 475 800 l 1
 275 900 l 1
 75 800 l 9
75 -300 m 25
 75 -200 l 25
 375 -100 l 25
 675 -200 l 25
 675 -300 l 25
 375 -200 l 25
 75 -300 l 25
EndSplineSet
Ligature2: "'liga' Standard Ligatures in Latin lookup 176 subtable" Zhed Uacute emphasis
EndChar

StartChar: Zhed_emphasis
Encoding: 328 -1 327
Width: 750
VWidth: 0
Flags: HW
LayerCount: 2
Fore
SplineSet
75 200 m 29
 675 600 l 29
 675 500 l 29
 75 100 l 29
 75 200 l 29
75 500 m 29
 75 600 l 29
 675 600 l 29
 675 500 l 29
 75 500 l 29
75 0 m 1
 525 300 l 1
 75 300 l 1
 75 400 l 1
 575 700 l 9
 675 700 l 1
 225 400 l 1
 675 400 l 1
 675 300 l 1
 175 0 l 9
 75 0 l 1
75 -300 m 25
 75 -200 l 25
 375 -100 l 25
 675 -200 l 25
 675 -300 l 25
 375 -200 l 25
 75 -300 l 25
EndSplineSet
Ligature2: "'liga' Standard Ligatures in Latin lookup 176 subtable" Zhed emphasis
EndChar

StartChar: B_A
Encoding: 329 -1 328
Width: 750
VWidth: 0
Flags: HW
LayerCount: 2
Fore
SplineSet
325 600 m 25
 425 600 l 25
 425 500 l 25
 325 500 l 29
 325 600 l 25
175 500 m 25
 575 500 l 25
 575 600 l 25
 175 600 l 25
 175 500 l 25
75 0 m 17
 75 100 l 1
 575 100 l 1
 575 400 l 1
 75 400 l 5
 75 700 l 9
 675 700 l 25
 675 0 l 25
 75 0 l 17
75 800 m 25
 75 900 l 25
 675 900 l 29
 675 800 l 25
 75 800 l 25
EndSplineSet
Ligature2: "'liga' Standard Ligatures in Latin lookup 176 subtable" B A
EndChar

StartChar: B_E
Encoding: 330 -1 329
Width: 750
VWidth: 0
Flags: HW
LayerCount: 2
Fore
SplineSet
325 600 m 25
 425 600 l 25
 425 500 l 25
 325 500 l 29
 325 600 l 25
175 500 m 25
 575 500 l 25
 575 600 l 25
 175 600 l 25
 175 500 l 25
75 0 m 17
 75 100 l 1
 575 100 l 1
 575 400 l 1
 75 400 l 5
 75 700 l 9
 675 700 l 25
 675 0 l 25
 75 0 l 17
75 800 m 25
 75 900 l 25
 675 1000 l 25
 675 900 l 29
 75 800 l 25
EndSplineSet
Ligature2: "'liga' Standard Ligatures in Latin lookup 176 subtable" B E
EndChar

StartChar: B_Eacute
Encoding: 331 -1 330
Width: 750
VWidth: 0
Flags: HW
LayerCount: 2
Fore
SplineSet
325 600 m 25
 425 600 l 25
 425 500 l 25
 325 500 l 29
 325 600 l 25
175 500 m 25
 575 500 l 25
 575 600 l 25
 175 600 l 25
 175 500 l 25
75 0 m 17
 75 100 l 1
 575 100 l 1
 575 400 l 1
 75 400 l 5
 75 700 l 9
 675 700 l 25
 675 0 l 25
 75 0 l 17
75 900 m 29
 75 1000 l 29
 675 900 l 29
 675 800 l 29
 75 900 l 29
EndSplineSet
Ligature2: "'liga' Standard Ligatures in Latin lookup 176 subtable" B Eacute
EndChar

StartChar: B_I
Encoding: 332 -1 331
Width: 750
VWidth: 0
Flags: HW
LayerCount: 2
Fore
SplineSet
325 600 m 25
 425 600 l 25
 425 500 l 25
 325 500 l 29
 325 600 l 25
175 500 m 25
 575 500 l 25
 575 600 l 25
 175 600 l 25
 175 500 l 25
75 0 m 17
 75 100 l 1
 575 100 l 1
 575 400 l 1
 75 400 l 5
 75 700 l 9
 675 700 l 25
 675 0 l 25
 75 0 l 17
325 800 m 29
 325 1000 l 29
 425 1000 l 29
 425 800 l 29
 325 800 l 29
EndSplineSet
Ligature2: "'liga' Standard Ligatures in Latin lookup 176 subtable" B I
EndChar

StartChar: B_Iacute
Encoding: 333 -1 332
Width: 750
VWidth: 0
Flags: HW
LayerCount: 2
Fore
SplineSet
325 600 m 25
 425 600 l 25
 425 500 l 25
 325 500 l 29
 325 600 l 25
175 500 m 25
 575 500 l 25
 575 600 l 25
 175 600 l 25
 175 500 l 25
75 0 m 17
 75 100 l 1
 575 100 l 1
 575 400 l 1
 75 400 l 5
 75 700 l 9
 675 700 l 25
 675 0 l 25
 75 0 l 17
75 800 m 1
 75 900 l 1
 375 1000 l 1
 675 900 l 1
 675 800 l 1
 375 900 l 1
 75 800 l 1
EndSplineSet
Ligature2: "'liga' Standard Ligatures in Latin lookup 176 subtable" B Iacute
EndChar

StartChar: B_O
Encoding: 334 -1 333
Width: 750
VWidth: 0
Flags: HW
LayerCount: 2
Fore
SplineSet
325 600 m 25
 425 600 l 25
 425 500 l 25
 325 500 l 29
 325 600 l 25
175 500 m 25
 575 500 l 25
 575 600 l 25
 175 600 l 25
 175 500 l 25
75 0 m 17
 75 100 l 1
 575 100 l 1
 575 400 l 1
 75 400 l 5
 75 700 l 9
 675 700 l 25
 675 0 l 25
 75 0 l 17
175 950 m 29
 175 850 l 29
 575 850 l 29
 575 950 l 29
 175 950 l 29
75 800 m 29
 75 1000 l 29
 675 1000 l 29
 675 800 l 29
 75 800 l 29
EndSplineSet
Ligature2: "'liga' Standard Ligatures in Latin lookup 176 subtable" B O
EndChar

StartChar: B_Oacute
Encoding: 335 -1 334
Width: 750
VWidth: 0
Flags: HW
LayerCount: 2
Fore
SplineSet
325 600 m 25
 425 600 l 25
 425 500 l 25
 325 500 l 29
 325 600 l 25
175 500 m 25
 575 500 l 25
 575 600 l 25
 175 600 l 25
 175 500 l 25
75 0 m 17
 75 100 l 1
 575 100 l 1
 575 400 l 1
 75 400 l 5
 75 700 l 9
 675 700 l 25
 675 0 l 25
 75 0 l 17
75 800 m 17
 75 850 l 1
 575 850 l 1
 575 950 l 1
 75 950 l 1
 75 1000 l 9
 675 1000 l 25
 675 800 l 25
 75 800 l 17
EndSplineSet
Ligature2: "'liga' Standard Ligatures in Latin lookup 176 subtable" B Oacute
EndChar

StartChar: B_U
Encoding: 336 -1 335
Width: 750
VWidth: 0
Flags: HW
LayerCount: 2
Fore
SplineSet
325 600 m 25
 425 600 l 25
 425 500 l 25
 325 500 l 29
 325 600 l 25
175 500 m 25
 575 500 l 25
 575 600 l 25
 175 600 l 25
 175 500 l 25
75 0 m 17
 75 100 l 1
 575 100 l 1
 575 400 l 1
 75 400 l 5
 75 700 l 9
 675 700 l 25
 675 0 l 25
 75 0 l 17
75 900 m 13
 75 1000 l 17
 375 900 l 1
 675 1000 l 9
 675 900 l 17
 375 800 l 1
 75 900 l 13
EndSplineSet
Ligature2: "'liga' Standard Ligatures in Latin lookup 176 subtable" B U
EndChar

StartChar: B_Uacute
Encoding: 337 -1 336
Width: 750
VWidth: 0
Flags: HW
LayerCount: 2
Fore
SplineSet
325 600 m 25
 425 600 l 25
 425 500 l 25
 325 500 l 29
 325 600 l 25
175 500 m 25
 575 500 l 25
 575 600 l 25
 175 600 l 25
 175 500 l 25
75 0 m 17
 75 100 l 1
 575 100 l 1
 575 400 l 1
 75 400 l 5
 75 700 l 9
 675 700 l 25
 675 0 l 25
 75 0 l 17
75 800 m 9
 75 900 l 17
 275 1000 l 1
 475 900 l 1
 675 1000 l 9
 675 900 l 17
 475 800 l 1
 275 900 l 1
 75 800 l 9
EndSplineSet
Ligature2: "'liga' Standard Ligatures in Latin lookup 176 subtable" B Uacute
EndChar

StartChar: C_A
Encoding: 338 -1 337
Width: 750
VWidth: 0
Flags: HW
LayerCount: 2
Fore
SplineSet
675 700 m 1
 675 300 l 1
 175 300 l 1
 175 100 l 1
 675 100 l 1
 675 0 l 1
 75 0 l 1
 75 400 l 1
 575 400 l 1
 575 700 l 1
 675 700 l 1
75 800 m 25
 75 900 l 25
 675 900 l 29
 675 800 l 25
 75 800 l 25
EndSplineSet
Ligature2: "'liga' Standard Ligatures in Latin lookup 176 subtable" C A
EndChar

StartChar: C_E
Encoding: 339 -1 338
Width: 750
VWidth: 0
Flags: HW
LayerCount: 2
Fore
SplineSet
675 700 m 1
 675 300 l 1
 175 300 l 1
 175 100 l 1
 675 100 l 1
 675 0 l 1
 75 0 l 1
 75 400 l 1
 575 400 l 1
 575 700 l 1
 675 700 l 1
75 800 m 25
 75 900 l 25
 675 1000 l 25
 675 900 l 29
 75 800 l 25
EndSplineSet
Ligature2: "'liga' Standard Ligatures in Latin lookup 176 subtable" C E
EndChar

StartChar: C_Eacute
Encoding: 340 -1 339
Width: 750
VWidth: 0
Flags: HW
LayerCount: 2
Fore
SplineSet
675 700 m 1
 675 300 l 1
 175 300 l 1
 175 100 l 1
 675 100 l 1
 675 0 l 1
 75 0 l 1
 75 400 l 1
 575 400 l 1
 575 700 l 1
 675 700 l 1
75 900 m 29
 75 1000 l 29
 675 900 l 29
 675 800 l 29
 75 900 l 29
EndSplineSet
Ligature2: "'liga' Standard Ligatures in Latin lookup 176 subtable" C Eacute
EndChar

StartChar: C_I
Encoding: 341 -1 340
Width: 750
VWidth: 0
Flags: HW
LayerCount: 2
Fore
SplineSet
675 700 m 1
 675 300 l 1
 175 300 l 1
 175 100 l 1
 675 100 l 1
 675 0 l 1
 75 0 l 1
 75 400 l 1
 575 400 l 1
 575 700 l 1
 675 700 l 1
325 800 m 29
 325 1000 l 29
 425 1000 l 29
 425 800 l 29
 325 800 l 29
EndSplineSet
Ligature2: "'liga' Standard Ligatures in Latin lookup 176 subtable" C I
EndChar

StartChar: C_Iacute
Encoding: 342 -1 341
Width: 750
VWidth: 0
Flags: HW
LayerCount: 2
Fore
SplineSet
675 700 m 1
 675 300 l 1
 175 300 l 1
 175 100 l 1
 675 100 l 1
 675 0 l 1
 75 0 l 1
 75 400 l 1
 575 400 l 1
 575 700 l 1
 675 700 l 1
75 800 m 1
 75 900 l 1
 375 1000 l 1
 675 900 l 1
 675 800 l 1
 375 900 l 1
 75 800 l 1
EndSplineSet
Ligature2: "'liga' Standard Ligatures in Latin lookup 176 subtable" C Iacute
EndChar

StartChar: C_O
Encoding: 343 -1 342
Width: 750
VWidth: 0
Flags: HW
LayerCount: 2
Fore
SplineSet
675 700 m 1
 675 300 l 1
 175 300 l 1
 175 100 l 1
 675 100 l 1
 675 0 l 1
 75 0 l 1
 75 400 l 1
 575 400 l 1
 575 700 l 1
 675 700 l 1
175 950 m 29
 175 850 l 29
 575 850 l 29
 575 950 l 29
 175 950 l 29
75 800 m 29
 75 1000 l 29
 675 1000 l 29
 675 800 l 29
 75 800 l 29
EndSplineSet
Ligature2: "'liga' Standard Ligatures in Latin lookup 176 subtable" C O
EndChar

StartChar: C_Oacute
Encoding: 344 -1 343
Width: 750
VWidth: 0
Flags: HW
LayerCount: 2
Fore
SplineSet
675 700 m 1
 675 300 l 1
 175 300 l 1
 175 100 l 1
 675 100 l 1
 675 0 l 1
 75 0 l 1
 75 400 l 1
 575 400 l 1
 575 700 l 1
 675 700 l 1
75 800 m 17
 75 850 l 1
 575 850 l 1
 575 950 l 1
 75 950 l 1
 75 1000 l 9
 675 1000 l 25
 675 800 l 25
 75 800 l 17
EndSplineSet
Ligature2: "'liga' Standard Ligatures in Latin lookup 176 subtable" C Oacute
EndChar

StartChar: C_U
Encoding: 345 -1 344
Width: 750
VWidth: 0
Flags: HW
LayerCount: 2
Fore
SplineSet
675 700 m 1
 675 300 l 1
 175 300 l 1
 175 100 l 1
 675 100 l 1
 675 0 l 1
 75 0 l 1
 75 400 l 1
 575 400 l 1
 575 700 l 1
 675 700 l 1
75 900 m 13
 75 1000 l 17
 375 900 l 1
 675 1000 l 9
 675 900 l 17
 375 800 l 1
 75 900 l 13
EndSplineSet
Ligature2: "'liga' Standard Ligatures in Latin lookup 176 subtable" C U
EndChar

StartChar: C_Uacute
Encoding: 346 -1 345
Width: 750
VWidth: 0
Flags: HW
LayerCount: 2
Fore
SplineSet
675 700 m 1
 675 300 l 1
 175 300 l 1
 175 100 l 1
 675 100 l 1
 675 0 l 1
 75 0 l 1
 75 400 l 1
 575 400 l 1
 575 700 l 1
 675 700 l 1
75 800 m 9
 75 900 l 17
 275 1000 l 1
 475 900 l 1
 675 1000 l 9
 675 900 l 17
 475 800 l 1
 275 900 l 1
 75 800 l 9
EndSplineSet
Ligature2: "'liga' Standard Ligatures in Latin lookup 176 subtable" C Uacute
EndChar

StartChar: D_A
Encoding: 347 -1 346
Width: 750
VWidth: 0
Flags: HW
LayerCount: 2
Fore
SplineSet
275 250 m 29
 275 350 l 25
 475 350 l 25
 475 250 l 25
 275 250 l 29
225 100 m 25
 525 100 l 25
 375 550 l 29
 225 100 l 25
75 0 m 1
 325 700 l 1
 425 700 l 1
 675 0 l 1
 75 0 l 1
75 800 m 25
 75 900 l 25
 675 900 l 29
 675 800 l 25
 75 800 l 25
EndSplineSet
Ligature2: "'liga' Standard Ligatures in Latin lookup 176 subtable" D A
EndChar

StartChar: D_E
Encoding: 348 -1 347
Width: 750
VWidth: 0
Flags: HW
LayerCount: 2
Fore
SplineSet
275 250 m 29
 275 350 l 25
 475 350 l 25
 475 250 l 25
 275 250 l 29
225 100 m 25
 525 100 l 25
 375 550 l 29
 225 100 l 25
75 0 m 1
 325 700 l 1
 425 700 l 1
 675 0 l 1
 75 0 l 1
75 800 m 25
 75 900 l 25
 675 1000 l 25
 675 900 l 29
 75 800 l 25
EndSplineSet
Ligature2: "'liga' Standard Ligatures in Latin lookup 176 subtable" D E
EndChar

StartChar: D_Eacute
Encoding: 349 -1 348
Width: 750
VWidth: 0
Flags: HW
LayerCount: 2
Fore
SplineSet
275 250 m 29
 275 350 l 25
 475 350 l 25
 475 250 l 25
 275 250 l 29
225 100 m 25
 525 100 l 25
 375 550 l 29
 225 100 l 25
75 0 m 1
 325 700 l 1
 425 700 l 1
 675 0 l 1
 75 0 l 1
75 900 m 29
 75 1000 l 29
 675 900 l 29
 675 800 l 29
 75 900 l 29
EndSplineSet
Ligature2: "'liga' Standard Ligatures in Latin lookup 176 subtable" D Eacute
EndChar

StartChar: D_I
Encoding: 350 -1 349
Width: 750
VWidth: 0
Flags: HW
LayerCount: 2
Fore
SplineSet
275 250 m 29
 275 350 l 25
 475 350 l 25
 475 250 l 25
 275 250 l 29
225 100 m 25
 525 100 l 25
 375 550 l 29
 225 100 l 25
75 0 m 1
 325 700 l 1
 425 700 l 1
 675 0 l 1
 75 0 l 1
325 800 m 29
 325 1000 l 29
 425 1000 l 29
 425 800 l 29
 325 800 l 29
EndSplineSet
Ligature2: "'liga' Standard Ligatures in Latin lookup 176 subtable" D I
EndChar

StartChar: D_Iacute
Encoding: 351 -1 350
Width: 750
VWidth: 0
Flags: HW
LayerCount: 2
Fore
SplineSet
275 250 m 29
 275 350 l 25
 475 350 l 25
 475 250 l 25
 275 250 l 29
225 100 m 25
 525 100 l 25
 375 550 l 29
 225 100 l 25
75 0 m 1
 325 700 l 1
 425 700 l 1
 675 0 l 1
 75 0 l 1
75 800 m 1
 75 900 l 1
 375 1000 l 1
 675 900 l 1
 675 800 l 1
 375 900 l 1
 75 800 l 1
EndSplineSet
Ligature2: "'liga' Standard Ligatures in Latin lookup 176 subtable" D Iacute
EndChar

StartChar: D_O
Encoding: 352 -1 351
Width: 750
VWidth: 0
Flags: HW
LayerCount: 2
Fore
SplineSet
275 250 m 29
 275 350 l 25
 475 350 l 25
 475 250 l 25
 275 250 l 29
225 100 m 25
 525 100 l 25
 375 550 l 29
 225 100 l 25
75 0 m 1
 325 700 l 1
 425 700 l 1
 675 0 l 1
 75 0 l 1
175 950 m 29
 175 850 l 29
 575 850 l 29
 575 950 l 29
 175 950 l 29
75 800 m 29
 75 1000 l 29
 675 1000 l 29
 675 800 l 29
 75 800 l 29
EndSplineSet
Ligature2: "'liga' Standard Ligatures in Latin lookup 176 subtable" D O
EndChar

StartChar: D_Oacute
Encoding: 353 -1 352
Width: 750
VWidth: 0
Flags: HW
LayerCount: 2
Fore
SplineSet
275 250 m 29
 275 350 l 25
 475 350 l 25
 475 250 l 25
 275 250 l 29
225 100 m 25
 525 100 l 25
 375 550 l 29
 225 100 l 25
75 0 m 1
 325 700 l 1
 425 700 l 1
 675 0 l 1
 75 0 l 1
75 800 m 17
 75 850 l 1
 575 850 l 1
 575 950 l 1
 75 950 l 1
 75 1000 l 9
 675 1000 l 25
 675 800 l 25
 75 800 l 17
EndSplineSet
Ligature2: "'liga' Standard Ligatures in Latin lookup 176 subtable" D Oacute
EndChar

StartChar: D_U
Encoding: 354 -1 353
Width: 750
VWidth: 0
Flags: HW
LayerCount: 2
Fore
SplineSet
275 250 m 29
 275 350 l 25
 475 350 l 25
 475 250 l 25
 275 250 l 29
225 100 m 25
 525 100 l 25
 375 550 l 29
 225 100 l 25
75 0 m 1
 325 700 l 1
 425 700 l 1
 675 0 l 1
 75 0 l 1
75 900 m 13
 75 1000 l 17
 375 900 l 1
 675 1000 l 9
 675 900 l 17
 375 800 l 1
 75 900 l 13
EndSplineSet
Ligature2: "'liga' Standard Ligatures in Latin lookup 176 subtable" D U
EndChar

StartChar: D_Uacute
Encoding: 355 -1 354
Width: 750
VWidth: 0
Flags: HW
LayerCount: 2
Fore
SplineSet
275 250 m 29
 275 350 l 25
 475 350 l 25
 475 250 l 25
 275 250 l 29
225 100 m 25
 525 100 l 25
 375 550 l 29
 225 100 l 25
75 0 m 1
 325 700 l 1
 425 700 l 1
 675 0 l 1
 75 0 l 1
75 800 m 9
 75 900 l 17
 275 1000 l 1
 475 900 l 1
 675 1000 l 9
 675 900 l 17
 475 800 l 1
 275 900 l 1
 75 800 l 9
EndSplineSet
Ligature2: "'liga' Standard Ligatures in Latin lookup 176 subtable" D Uacute
EndChar

StartChar: Edh_A
Encoding: 356 -1 355
Width: 750
VWidth: 0
Flags: HW
LayerCount: 2
Fore
SplineSet
75 500 m 25
 75 600 l 29
 675 600 l 25
 675 500 l 25
 75 500 l 25
175 0 m 29
 225 100 l 25
 575 100 l 25
 575 300 l 25
 675 300 l 25
 675 0 l 25
 175 0 l 29
75 0 m 1
 525 300 l 1
 75 300 l 1
 75 400 l 1
 575 700 l 9
 675 700 l 1
 225 400 l 1
 675 400 l 1
 675 300 l 1
 175 0 l 9
 75 0 l 1
75 800 m 25
 75 900 l 25
 675 900 l 29
 675 800 l 25
 75 800 l 25
EndSplineSet
Ligature2: "'liga' Standard Ligatures in Latin lookup 176 subtable" Edh A
EndChar

